<?xml version="1.0" encoding="utf-8" standalone="no"?>
<!DOCTYPE svg PUBLIC "-//W3C//DTD SVG 1.1//EN"
  "http://www.w3.org/Graphics/SVG/1.1/DTD/svg11.dtd">
<!-- Created with matplotlib (https://matplotlib.org/) -->
<svg height="288pt" version="1.1" viewBox="0 0 432 288" width="432pt" xmlns="http://www.w3.org/2000/svg" xmlns:xlink="http://www.w3.org/1999/xlink">
 <metadata>
  <rdf:RDF xmlns:cc="http://creativecommons.org/ns#" xmlns:dc="http://purl.org/dc/elements/1.1/" xmlns:rdf="http://www.w3.org/1999/02/22-rdf-syntax-ns#">
   <cc:Work>
    <dc:type rdf:resource="http://purl.org/dc/dcmitype/StillImage"/>
    <dc:date>2021-11-10T19:08:44.483924</dc:date>
    <dc:format>image/svg+xml</dc:format>
    <dc:creator>
     <cc:Agent>
      <dc:title>Matplotlib v3.3.4, https://matplotlib.org/</dc:title>
     </cc:Agent>
    </dc:creator>
   </cc:Work>
  </rdf:RDF>
 </metadata>
 <defs>
  <style type="text/css">*{stroke-linecap:butt;stroke-linejoin:round;}</style>
 </defs>
 <g id="figure_1">
  <g id="patch_1">
   <path d="M 0 288 
L 432 288 
L 432 0 
L 0 0 
z
" style="fill:none;"/>
  </g>
  <g id="patch_2">
   <path d="M 112.68 252 
L 330.12 252 
L 330.12 34.56 
L 112.68 34.56 
z
" style="fill:#ffffff;"/>
  </g>
  <g id="pane3d_1">
   <g id="patch_3">
    <path d="M 129.09822 198.386264 
L 200.904009 138.197228 
L 199.90584 51.393878 
L 124.663773 106.302111 
" style="fill:#f2f2f2;opacity:0.5;stroke:#f2f2f2;stroke-linejoin:miter;"/>
   </g>
  </g>
  <g id="pane3d_2">
   <g id="patch_4">
    <path d="M 200.904009 138.197228 
L 316.12668 171.68791 
L 320.238571 81.894718 
L 199.90584 51.393878 
" style="fill:#e6e6e6;opacity:0.5;stroke:#e6e6e6;stroke-linejoin:miter;"/>
   </g>
  </g>
  <g id="pane3d_3">
   <g id="patch_5">
    <path d="M 129.09822 198.386264 
L 251.239879 238.27773 
L 316.12668 171.68791 
L 200.904009 138.197228 
" style="fill:#ececec;opacity:0.5;stroke:#ececec;stroke-linejoin:miter;"/>
   </g>
  </g>
  <g id="axis3d_1">
   <g id="line2d_1">
    <path d="M 129.09822 198.386264 
L 251.239879 238.27773 
" style="fill:none;stroke:#000000;stroke-linecap:square;stroke-width:0.8;"/>
   </g>
   <g id="Line3DCollection_1">
    <path d="M 131.893744 199.299283 
L 203.552576 138.967062 
L 202.666169 52.093541 
" style="fill:none;stroke:#b0b0b0;stroke-width:0.8;"/>
    <path d="M 152.881423 206.153859 
L 223.419835 144.74169 
L 223.380316 57.343973 
" style="fill:none;stroke:#b0b0b0;stroke-width:0.8;"/>
    <path d="M 174.26287 213.137039 
L 243.628826 150.615646 
L 244.466227 62.688637 
" style="fill:none;stroke:#b0b0b0;stroke-width:0.8;"/>
    <path d="M 196.049272 220.252478 
L 264.188441 156.591514 
L 265.934003 68.130092 
" style="fill:none;stroke:#b0b0b0;stroke-width:0.8;"/>
    <path d="M 218.252243 227.503968 
L 285.107886 162.671971 
L 287.79411 73.670993 
" style="fill:none;stroke:#b0b0b0;stroke-width:0.8;"/>
    <path d="M 240.883846 234.89545 
L 306.39669 168.859786 
L 310.057405 79.314089 
" style="fill:none;stroke:#b0b0b0;stroke-width:0.8;"/>
   </g>
   <g id="xtick_1">
    <g id="line2d_2">
     <path d="M 132.517642 198.774 
L 130.643277 200.352098 
" style="fill:none;stroke:#000000;stroke-linecap:square;stroke-width:0.8;"/>
    </g>
    <g id="text_1">
     <!-- 0.40 -->
     <g transform="translate(113.220096 222.582563)scale(0.1 -0.1)">
      <defs>
       <path d="M 31.78125 66.40625 
Q 24.171875 66.40625 20.328125 58.90625 
Q 16.5 51.421875 16.5 36.375 
Q 16.5 21.390625 20.328125 13.890625 
Q 24.171875 6.390625 31.78125 6.390625 
Q 39.453125 6.390625 43.28125 13.890625 
Q 47.125 21.390625 47.125 36.375 
Q 47.125 51.421875 43.28125 58.90625 
Q 39.453125 66.40625 31.78125 66.40625 
z
M 31.78125 74.21875 
Q 44.046875 74.21875 50.515625 64.515625 
Q 56.984375 54.828125 56.984375 36.375 
Q 56.984375 17.96875 50.515625 8.265625 
Q 44.046875 -1.421875 31.78125 -1.421875 
Q 19.53125 -1.421875 13.0625 8.265625 
Q 6.59375 17.96875 6.59375 36.375 
Q 6.59375 54.828125 13.0625 64.515625 
Q 19.53125 74.21875 31.78125 74.21875 
z
" id="DejaVuSans-48"/>
       <path d="M 10.6875 12.40625 
L 21 12.40625 
L 21 0 
L 10.6875 0 
z
" id="DejaVuSans-46"/>
       <path d="M 37.796875 64.3125 
L 12.890625 25.390625 
L 37.796875 25.390625 
z
M 35.203125 72.90625 
L 47.609375 72.90625 
L 47.609375 25.390625 
L 58.015625 25.390625 
L 58.015625 17.1875 
L 47.609375 17.1875 
L 47.609375 0 
L 37.796875 0 
L 37.796875 17.1875 
L 4.890625 17.1875 
L 4.890625 26.703125 
z
" id="DejaVuSans-52"/>
      </defs>
      <use xlink:href="#DejaVuSans-48"/>
      <use x="63.623047" xlink:href="#DejaVuSans-46"/>
      <use x="95.410156" xlink:href="#DejaVuSans-52"/>
      <use x="159.033203" xlink:href="#DejaVuSans-48"/>
     </g>
    </g>
   </g>
   <g id="xtick_2">
    <g id="line2d_3">
     <path d="M 153.496029 205.61877 
L 151.649555 207.226348 
" style="fill:none;stroke:#000000;stroke-linecap:square;stroke-width:0.8;"/>
    </g>
    <g id="text_2">
     <!-- 0.45 -->
     <g transform="translate(134.233626 229.615015)scale(0.1 -0.1)">
      <defs>
       <path d="M 10.796875 72.90625 
L 49.515625 72.90625 
L 49.515625 64.59375 
L 19.828125 64.59375 
L 19.828125 46.734375 
Q 21.96875 47.46875 24.109375 47.828125 
Q 26.265625 48.1875 28.421875 48.1875 
Q 40.625 48.1875 47.75 41.5 
Q 54.890625 34.8125 54.890625 23.390625 
Q 54.890625 11.625 47.5625 5.09375 
Q 40.234375 -1.421875 26.90625 -1.421875 
Q 22.3125 -1.421875 17.546875 -0.640625 
Q 12.796875 0.140625 7.71875 1.703125 
L 7.71875 11.625 
Q 12.109375 9.234375 16.796875 8.0625 
Q 21.484375 6.890625 26.703125 6.890625 
Q 35.15625 6.890625 40.078125 11.328125 
Q 45.015625 15.765625 45.015625 23.390625 
Q 45.015625 31 40.078125 35.4375 
Q 35.15625 39.890625 26.703125 39.890625 
Q 22.75 39.890625 18.8125 39.015625 
Q 14.890625 38.140625 10.796875 36.28125 
z
" id="DejaVuSans-53"/>
      </defs>
      <use xlink:href="#DejaVuSans-48"/>
      <use x="63.623047" xlink:href="#DejaVuSans-46"/>
      <use x="95.410156" xlink:href="#DejaVuSans-52"/>
      <use x="159.033203" xlink:href="#DejaVuSans-53"/>
     </g>
    </g>
   </g>
   <g id="xtick_3">
    <g id="line2d_4">
     <path d="M 174.867724 212.591868 
L 173.050524 214.22976 
" style="fill:none;stroke:#000000;stroke-linecap:square;stroke-width:0.8;"/>
    </g>
    <g id="text_3">
     <!-- 0.50 -->
     <g transform="translate(155.643234 236.78002)scale(0.1 -0.1)">
      <use xlink:href="#DejaVuSans-48"/>
      <use x="63.623047" xlink:href="#DejaVuSans-46"/>
      <use x="95.410156" xlink:href="#DejaVuSans-53"/>
      <use x="159.033203" xlink:href="#DejaVuSans-48"/>
     </g>
    </g>
   </g>
   <g id="xtick_4">
    <g id="line2d_5">
     <path d="M 196.643893 219.696937 
L 194.857412 221.366007 
" style="fill:none;stroke:#000000;stroke-linecap:square;stroke-width:0.8;"/>
    </g>
    <g id="text_4">
     <!-- 0.55 -->
     <g transform="translate(177.460224 244.081361)scale(0.1 -0.1)">
      <use xlink:href="#DejaVuSans-48"/>
      <use x="63.623047" xlink:href="#DejaVuSans-46"/>
      <use x="95.410156" xlink:href="#DejaVuSans-53"/>
      <use x="159.033203" xlink:href="#DejaVuSans-53"/>
     </g>
    </g>
   </g>
   <g id="xtick_5">
    <g id="line2d_6">
     <path d="M 218.836127 226.937758 
L 217.081879 228.638907 
" style="fill:none;stroke:#000000;stroke-linecap:square;stroke-width:0.8;"/>
    </g>
    <g id="text_5">
     <!-- 0.60 -->
     <g transform="translate(199.696337 251.522967)scale(0.1 -0.1)">
      <defs>
       <path d="M 33.015625 40.375 
Q 26.375 40.375 22.484375 35.828125 
Q 18.609375 31.296875 18.609375 23.390625 
Q 18.609375 15.53125 22.484375 10.953125 
Q 26.375 6.390625 33.015625 6.390625 
Q 39.65625 6.390625 43.53125 10.953125 
Q 47.40625 15.53125 47.40625 23.390625 
Q 47.40625 31.296875 43.53125 35.828125 
Q 39.65625 40.375 33.015625 40.375 
z
M 52.59375 71.296875 
L 52.59375 62.3125 
Q 48.875 64.0625 45.09375 64.984375 
Q 41.3125 65.921875 37.59375 65.921875 
Q 27.828125 65.921875 22.671875 59.328125 
Q 17.53125 52.734375 16.796875 39.40625 
Q 19.671875 43.65625 24.015625 45.921875 
Q 28.375 48.1875 33.59375 48.1875 
Q 44.578125 48.1875 50.953125 41.515625 
Q 57.328125 34.859375 57.328125 23.390625 
Q 57.328125 12.15625 50.6875 5.359375 
Q 44.046875 -1.421875 33.015625 -1.421875 
Q 20.359375 -1.421875 13.671875 8.265625 
Q 6.984375 17.96875 6.984375 36.375 
Q 6.984375 53.65625 15.1875 63.9375 
Q 23.390625 74.21875 37.203125 74.21875 
Q 40.921875 74.21875 44.703125 73.484375 
Q 48.484375 72.75 52.59375 71.296875 
z
" id="DejaVuSans-54"/>
      </defs>
      <use xlink:href="#DejaVuSans-48"/>
      <use x="63.623047" xlink:href="#DejaVuSans-46"/>
      <use x="95.410156" xlink:href="#DejaVuSans-54"/>
      <use x="159.033203" xlink:href="#DejaVuSans-48"/>
     </g>
    </g>
   </g>
   <g id="xtick_6">
    <g id="line2d_7">
     <path d="M 241.456466 234.31826 
L 239.736035 236.05242 
" style="fill:none;stroke:#000000;stroke-linecap:square;stroke-width:0.8;"/>
    </g>
    <g id="text_6">
     <!-- 0.65 -->
     <g transform="translate(222.363768 259.108918)scale(0.1 -0.1)">
      <use xlink:href="#DejaVuSans-48"/>
      <use x="63.623047" xlink:href="#DejaVuSans-46"/>
      <use x="95.410156" xlink:href="#DejaVuSans-54"/>
      <use x="159.033203" xlink:href="#DejaVuSans-53"/>
     </g>
    </g>
   </g>
  </g>
  <g id="axis3d_2">
   <g id="line2d_8">
    <path d="M 316.12668 171.68791 
L 251.239879 238.27773 
" style="fill:none;stroke:#000000;stroke-linecap:square;stroke-width:0.8;"/>
   </g>
   <g id="Line3DCollection_2">
    <path d="M 135.414388 98.456801 
L 139.324512 189.814383 
L 260.515841 228.758311 
" style="fill:none;stroke:#b0b0b0;stroke-width:0.8;"/>
    <path d="M 153.025976 85.604667 
L 156.101125 175.751894 
L 275.708122 213.167294 
" style="fill:none;stroke:#b0b0b0;stroke-width:0.8;"/>
    <path d="M 169.940637 73.261118 
L 172.241939 162.222343 
L 290.295076 198.19749 
" style="fill:none;stroke:#b0b0b0;stroke-width:0.8;"/>
    <path d="M 186.198938 61.39655 
L 187.782426 149.195999 
L 304.312177 183.812496 
" style="fill:none;stroke:#b0b0b0;stroke-width:0.8;"/>
   </g>
   <g id="xtick_7">
    <g id="line2d_9">
     <path d="M 259.494887 228.430235 
L 262.560372 229.415306 
" style="fill:none;stroke:#000000;stroke-linecap:square;stroke-width:0.8;"/>
    </g>
    <g id="text_7">
     <!-- −0.20 -->
     <g transform="translate(257.996997 249.692774)scale(0.1 -0.1)">
      <defs>
       <path d="M 10.59375 35.5 
L 73.1875 35.5 
L 73.1875 27.203125 
L 10.59375 27.203125 
z
" id="DejaVuSans-8722"/>
       <path d="M 19.1875 8.296875 
L 53.609375 8.296875 
L 53.609375 0 
L 7.328125 0 
L 7.328125 8.296875 
Q 12.9375 14.109375 22.625 23.890625 
Q 32.328125 33.6875 34.8125 36.53125 
Q 39.546875 41.84375 41.421875 45.53125 
Q 43.3125 49.21875 43.3125 52.78125 
Q 43.3125 58.59375 39.234375 62.25 
Q 35.15625 65.921875 28.609375 65.921875 
Q 23.96875 65.921875 18.8125 64.3125 
Q 13.671875 62.703125 7.8125 59.421875 
L 7.8125 69.390625 
Q 13.765625 71.78125 18.9375 73 
Q 24.125 74.21875 28.421875 74.21875 
Q 39.75 74.21875 46.484375 68.546875 
Q 53.21875 62.890625 53.21875 53.421875 
Q 53.21875 48.921875 51.53125 44.890625 
Q 49.859375 40.875 45.40625 35.40625 
Q 44.1875 33.984375 37.640625 27.21875 
Q 31.109375 20.453125 19.1875 8.296875 
z
" id="DejaVuSans-50"/>
      </defs>
      <use xlink:href="#DejaVuSans-8722"/>
      <use x="83.789062" xlink:href="#DejaVuSans-48"/>
      <use x="147.412109" xlink:href="#DejaVuSans-46"/>
      <use x="179.199219" xlink:href="#DejaVuSans-50"/>
      <use x="242.822266" xlink:href="#DejaVuSans-48"/>
     </g>
    </g>
   </g>
   <g id="xtick_8">
    <g id="line2d_10">
     <path d="M 274.701546 212.852417 
L 277.723807 213.79784 
" style="fill:none;stroke:#000000;stroke-linecap:square;stroke-width:0.8;"/>
    </g>
    <g id="text_8">
     <!-- −0.15 -->
     <g transform="translate(272.939666 233.819357)scale(0.1 -0.1)">
      <defs>
       <path d="M 12.40625 8.296875 
L 28.515625 8.296875 
L 28.515625 63.921875 
L 10.984375 60.40625 
L 10.984375 69.390625 
L 28.421875 72.90625 
L 38.28125 72.90625 
L 38.28125 8.296875 
L 54.390625 8.296875 
L 54.390625 0 
L 12.40625 0 
z
" id="DejaVuSans-49"/>
      </defs>
      <use xlink:href="#DejaVuSans-8722"/>
      <use x="83.789062" xlink:href="#DejaVuSans-48"/>
      <use x="147.412109" xlink:href="#DejaVuSans-46"/>
      <use x="179.199219" xlink:href="#DejaVuSans-49"/>
      <use x="242.822266" xlink:href="#DejaVuSans-53"/>
     </g>
    </g>
   </g>
   <g id="xtick_9">
    <g id="line2d_11">
     <path d="M 289.302555 197.895032 
L 292.282568 198.803152 
" style="fill:none;stroke:#000000;stroke-linecap:square;stroke-width:0.8;"/>
    </g>
    <g id="text_9">
     <!-- −0.10 -->
     <g transform="translate(287.286539 218.578848)scale(0.1 -0.1)">
      <use xlink:href="#DejaVuSans-8722"/>
      <use x="83.789062" xlink:href="#DejaVuSans-48"/>
      <use x="147.412109" xlink:href="#DejaVuSans-46"/>
      <use x="179.199219" xlink:href="#DejaVuSans-49"/>
      <use x="242.822266" xlink:href="#DejaVuSans-48"/>
     </g>
    </g>
   </g>
   <g id="xtick_10">
    <g id="line2d_12">
     <path d="M 303.33339 183.521736 
L 306.272118 184.394719 
" style="fill:none;stroke:#000000;stroke-linecap:square;stroke-width:0.8;"/>
    </g>
    <g id="text_10">
     <!-- −0.05 -->
     <g transform="translate(301.072552 203.934133)scale(0.1 -0.1)">
      <use xlink:href="#DejaVuSans-8722"/>
      <use x="83.789062" xlink:href="#DejaVuSans-48"/>
      <use x="147.412109" xlink:href="#DejaVuSans-46"/>
      <use x="179.199219" xlink:href="#DejaVuSans-48"/>
      <use x="242.822266" xlink:href="#DejaVuSans-53"/>
     </g>
    </g>
   </g>
  </g>
  <g id="axis3d_3">
   <g id="line2d_13">
    <path d="M 316.12668 171.68791 
L 320.238571 81.894718 
" style="fill:none;stroke:#000000;stroke-linecap:square;stroke-width:0.8;"/>
   </g>
   <g id="Line3DCollection_3">
    <path d="M 316.750964 158.055151 
L 200.752191 124.994784 
L 128.425927 184.425665 
" style="fill:none;stroke:#b0b0b0;stroke-width:0.8;"/>
    <path d="M 317.428047 143.269382 
L 200.587644 110.685296 
L 127.696384 169.276251 
" style="fill:none;stroke:#b0b0b0;stroke-width:0.8;"/>
    <path d="M 318.115125 128.265352 
L 200.420784 96.174746 
L 126.955659 153.894607 
" style="fill:none;stroke:#b0b0b0;stroke-width:0.8;"/>
    <path d="M 318.812421 113.03819 
L 200.251563 81.458867 
L 126.203491 138.275353 
" style="fill:none;stroke:#b0b0b0;stroke-width:0.8;"/>
    <path d="M 319.520164 97.582882 
L 200.07993 66.53327 
L 125.439613 122.412939 
" style="fill:none;stroke:#b0b0b0;stroke-width:0.8;"/>
   </g>
   <g id="xtick_11">
    <g id="line2d_14">
     <path d="M 315.777105 157.777595 
L 318.701014 158.610927 
" style="fill:none;stroke:#000000;stroke-linecap:square;stroke-width:0.8;"/>
    </g>
    <g id="text_11">
     <!-- 0.2 -->
     <g transform="translate(327.157071 163.083026)scale(0.1 -0.1)">
      <use xlink:href="#DejaVuSans-48"/>
      <use x="63.623047" xlink:href="#DejaVuSans-46"/>
      <use x="95.410156" xlink:href="#DejaVuSans-50"/>
     </g>
    </g>
   </g>
   <g id="xtick_12">
    <g id="line2d_15">
     <path d="M 316.446784 142.995731 
L 319.39294 143.817346 
" style="fill:none;stroke:#000000;stroke-linecap:square;stroke-width:0.8;"/>
    </g>
    <g id="text_12">
     <!-- 0.3 -->
     <g transform="translate(327.965638 148.333478)scale(0.1 -0.1)">
      <defs>
       <path d="M 40.578125 39.3125 
Q 47.65625 37.796875 51.625 33 
Q 55.609375 28.21875 55.609375 21.1875 
Q 55.609375 10.40625 48.1875 4.484375 
Q 40.765625 -1.421875 27.09375 -1.421875 
Q 22.515625 -1.421875 17.65625 -0.515625 
Q 12.796875 0.390625 7.625 2.203125 
L 7.625 11.71875 
Q 11.71875 9.328125 16.59375 8.109375 
Q 21.484375 6.890625 26.8125 6.890625 
Q 36.078125 6.890625 40.9375 10.546875 
Q 45.796875 14.203125 45.796875 21.1875 
Q 45.796875 27.640625 41.28125 31.265625 
Q 36.765625 34.90625 28.71875 34.90625 
L 20.21875 34.90625 
L 20.21875 43.015625 
L 29.109375 43.015625 
Q 36.375 43.015625 40.234375 45.921875 
Q 44.09375 48.828125 44.09375 54.296875 
Q 44.09375 59.90625 40.109375 62.90625 
Q 36.140625 65.921875 28.71875 65.921875 
Q 24.65625 65.921875 20.015625 65.03125 
Q 15.375 64.15625 9.8125 62.3125 
L 9.8125 71.09375 
Q 15.4375 72.65625 20.34375 73.4375 
Q 25.25 74.21875 29.59375 74.21875 
Q 40.828125 74.21875 47.359375 69.109375 
Q 53.90625 64.015625 53.90625 55.328125 
Q 53.90625 49.265625 50.4375 45.09375 
Q 46.96875 40.921875 40.578125 39.3125 
z
" id="DejaVuSans-51"/>
      </defs>
      <use xlink:href="#DejaVuSans-48"/>
      <use x="63.623047" xlink:href="#DejaVuSans-46"/>
      <use x="95.410156" xlink:href="#DejaVuSans-51"/>
     </g>
    </g>
   </g>
   <g id="xtick_13">
    <g id="line2d_16">
     <path d="M 317.126344 127.99575 
L 320.095089 128.80521 
" style="fill:none;stroke:#000000;stroke-linecap:square;stroke-width:0.8;"/>
    </g>
    <g id="text_13">
     <!-- 0.4 -->
     <g transform="translate(328.786096 133.367017)scale(0.1 -0.1)">
      <use xlink:href="#DejaVuSans-48"/>
      <use x="63.623047" xlink:href="#DejaVuSans-46"/>
      <use x="95.410156" xlink:href="#DejaVuSans-52"/>
     </g>
    </g>
   </g>
   <g id="xtick_14">
    <g id="line2d_17">
     <path d="M 317.816007 112.77279 
L 320.807689 113.56964 
" style="fill:none;stroke:#000000;stroke-linecap:square;stroke-width:0.8;"/>
    </g>
    <g id="text_14">
     <!-- 0.5 -->
     <g transform="translate(329.61871 118.178824)scale(0.1 -0.1)">
      <use xlink:href="#DejaVuSans-48"/>
      <use x="63.623047" xlink:href="#DejaVuSans-46"/>
      <use x="95.410156" xlink:href="#DejaVuSans-53"/>
     </g>
    </g>
   </g>
   <g id="xtick_15">
    <g id="line2d_18">
     <path d="M 318.515998 97.32184 
L 321.530973 98.105611 
" style="fill:none;stroke:#000000;stroke-linecap:square;stroke-width:0.8;"/>
    </g>
    <g id="text_15">
     <!-- 0.6 -->
     <g transform="translate(330.463751 102.763934)scale(0.1 -0.1)">
      <use xlink:href="#DejaVuSans-48"/>
      <use x="63.623047" xlink:href="#DejaVuSans-46"/>
      <use x="95.410156" xlink:href="#DejaVuSans-54"/>
     </g>
    </g>
   </g>
  </g>
  <g id="axes_1">
   <g id="line2d_19">
    <path clip-path="url(#pb52edf97db)" d="M 252.147566 73.998522 
L 252.822698 74.995452 
L 253.868 75.917334 
L 255.546226 76.85927 
L 260.748776 79.625496 
L 262.532901 81.120533 
L 264.517243 83.190705 
L 264.806303 83.895421 
L 265.25656 85.358014 
L 265.601515 86.629633 
L 266.58838 89.337954 
L 267.504434 90.721675 
L 267.902991 91.407305 
L 268.930809 93.218224 
L 269.801839 94.624815 
L 271.707989 97.118722 
L 274.611309 100.424136 
L 276.112265 102.460995 
L 276.802825 103.850794 
L 277.23279 104.956006 
L 278.059556 108.343179 
L 278.589696 110.817745 
L 278.772359 111.517189 
L 279.087883 112.937486 
L 279.387904 114.300248 
L 279.561728 115.236106 
L 279.76591 116.354847 
L 279.904106 117.178659 
L 280.076398 118.144512 
L 280.143761 119.837814 
L 280.159601 121.107011 
L 280.169853 122.267346 
L 280.080429 124.107841 
L 279.948151 124.963453 
L 279.770594 125.90969 
L 279.422058 127.439816 
L 278.653163 130.65252 
L 278.426377 131.761792 
L 278.357034 132.430858 
L 278.348593 133.367985 
L 278.433665 135.162425 
L 278.577263 137.365991 
L 278.704888 140.413326 
L 278.817797 141.280794 
L 278.930936 142.09091 
L 279.57488 144.098081 
L 280.037087 144.724508 
L 281.331914 146.217611 
L 282.541517 148.039299 
L 282.696953 149.285976 
L 282.685626 151.857886 
L 282.201873 153.854997 
L 281.748705 155.582785 
L 281.68423 156.552929 
L 281.83005 157.242071 
L 282.43847 158.389924 
L 282.979216 159.332703 
L 283.228936 159.709872 
L 284.161699 161.178959 
L 284.806687 162.709671 
L 285.304725 163.598756 
L 285.491717 164.41235 
L 285.470473 165.350509 
L 285.350199 165.92766 
L 284.624712 167.637553 
L 284.070677 168.859136 
L 283.866424 169.848391 
L 283.824975 170.951795 
L 283.936917 172.774917 
L 283.940723 173.227598 
L 284.194151 174.485578 
L 284.433988 174.662758 
L 284.936433 174.731969 
L 285.699728 174.665671 
L 287.225065 174.4025 
L 287.224357 174.45675 
L 287.371883 174.651377 
L 288.238399 175.505444 
L 288.877252 175.957782 
L 289.564466 177.663854 
L 289.392698 177.828018 
L 289.865127 177.497254 
L 290.408514 177.231613 
L 290.687193 177.348688 
L 291.028951 177.63107 
L 291.143979 177.8769 
L 291.015221 178.102545 
L 290.346961 178.697233 
L 290.404491 178.742456 
L 290.519902 178.884301 
L 290.653488 179.139369 
L 290.654449 179.295957 
L 290.657532 179.297548 
L 290.722737 179.464036 
L 291.162123 179.655754 
L 291.13763 179.719978 
L 291.027241 180.043032 
L 291.043044 180.125836 
L 291.01733 180.157454 
L 290.708152 180.791891 
L 290.73042 180.965418 
L 290.73042 180.965418 
" style="fill:none;stroke:#1f77b4;stroke-linecap:square;stroke-width:1.5;"/>
   </g>
   <g id="line2d_20">
    <path clip-path="url(#pb52edf97db)" d="M 137.647484 106.614144 
L 145.282749 106.22285 
L 155.753255 105.703284 
L 174.798447 105.361579 
L 179.617924 105.508292 
L 191.349288 106.180291 
L 203.15511 107.163781 
L 211.317225 107.91865 
L 216.20776 108.491453 
L 223.575012 109.394563 
L 230.676336 110.657608 
L 234.715418 111.46766 
L 239.292368 112.506949 
L 241.723296 113.188286 
L 245.747623 114.464244 
L 249.679457 115.797318 
L 252.588654 116.836336 
L 260.092304 119.793183 
L 267.055986 123.207882 
L 270.913557 125.537231 
L 273.52916 127.519843 
L 277.284544 130.124714 
L 278.615407 130.815297 
L 287.341391 135.251112 
L 288.455281 135.930996 
L 293.6117 138.551726 
L 294.62967 139.562289 
L 295.138611 140.550045 
L 297.008922 146.475299 
L 297.014242 148.700293 
L 296.318944 151.041021 
L 294.953927 154.02896 
L 286.721385 168.367957 
L 286.408903 169.077078 
L 286.465453 169.537392 
L 286.700145 169.821374 
L 287.258839 170.268229 
L 289.204371 171.950412 
L 289.187911 172.395877 
L 288.854267 172.869399 
L 288.150957 173.828662 
L 287.746689 174.306118 
L 287.049352 174.733411 
L 286.456292 175.158222 
L 286.207821 175.763599 
L 286.694372 176.414688 
L 286.633886 176.705244 
L 286.513995 176.837723 
L 286.816223 176.667302 
L 286.815577 176.669357 
L 286.826979 176.668588 
L 286.786163 176.81075 
L 286.788957 176.813012 
L 286.78378 176.900178 
L 286.794344 176.920705 
L 287.409667 177.65085 
L 287.491865 177.833499 
L 287.357391 178.089106 
L 287.36365 178.095154 
L 287.651173 178.302352 
L 287.940076 178.501543 
L 288.167337 178.720756 
L 288.130376 178.85944 
L 287.777282 179.179096 
L 288.211034 178.935699 
L 288.893562 178.41971 
L 288.876575 178.585419 
L 289.026863 178.768074 
L 289.141307 179.314147 
L 289.487555 179.811033 
L 289.573652 179.88509 
L 289.582283 179.885659 
L 289.827576 179.865109 
L 289.978062 179.858814 
L 289.89936 179.953725 
L 289.875002 180.113091 
L 289.887786 180.121391 
L 290.044336 180.150573 
L 290.564929 179.945172 
L 290.678058 179.954551 
L 290.546518 179.959675 
L 290.640472 180.026869 
L 290.302088 181.061923 
L 290.302088 181.061923 
" style="fill:none;stroke:#ff7f0e;stroke-linecap:square;stroke-width:1.5;"/>
   </g>
   <g id="line2d_21">
    <path clip-path="url(#pb52edf97db)" d="M 222.051586 129.608364 
L 225.589618 128.995382 
L 233.002574 128.010234 
L 239.157638 127.660096 
L 242.766833 127.719176 
L 245.370623 127.898074 
L 247.882688 128.235487 
L 250.645588 128.783737 
L 253.90275 129.736137 
L 256.342013 130.770277 
L 258.009808 131.608063 
L 260.658926 133.216475 
L 263.635009 135.27303 
L 266.330665 137.441133 
L 271.764884 142.777317 
L 273.354056 145.119557 
L 273.77358 146.082548 
L 274.061585 147.025888 
L 274.613118 150.20631 
L 274.705276 151.170317 
L 274.773905 151.924089 
L 275.159452 154.403726 
L 275.401843 155.056678 
L 275.917114 155.579448 
L 276.522257 156.013908 
L 277.098404 156.271388 
L 280.973126 157.929879 
L 282.568756 159.015684 
L 283.333105 160.164658 
L 283.988174 161.940547 
L 284.230198 162.504683 
L 284.845853 164.123894 
L 285.847181 165.239868 
L 287.023511 165.950654 
L 288.153166 166.459057 
L 288.885605 166.861218 
L 289.32273 167.211302 
L 289.500351 167.505959 
L 289.454029 168.12857 
L 289.226723 168.555103 
L 288.531915 169.337482 
L 286.155533 171.773327 
L 284.022879 173.978046 
L 283.82323 174.399735 
L 283.993859 174.630314 
L 284.398487 174.713275 
L 287.880879 174.856227 
L 288.037912 175.054807 
L 288.047253 176.623885 
L 288.228935 176.897766 
L 288.547134 177.168379 
L 289.608535 177.334407 
L 289.954903 177.229742 
L 290.228659 176.922088 
L 290.240323 176.902949 
L 289.647809 177.21448 
L 288.611103 178.05238 
L 288.514904 178.152945 
L 288.722466 178.108477 
L 290.025781 177.600625 
L 290.410022 177.544164 
L 290.502272 177.706406 
L 290.239392 178.025428 
L 289.955469 178.421666 
L 289.901188 178.891666 
L 289.869912 179.061834 
L 289.779798 179.346944 
L 289.854508 179.370029 
L 290.000496 179.435423 
L 290.0001 179.443063 
L 289.998622 179.467516 
L 289.926059 179.539254 
L 289.714039 179.751601 
L 289.594257 180.081538 
L 289.620001 180.373156 
L 289.620001 180.373156 
" style="fill:none;stroke:#2ca02c;stroke-linecap:square;stroke-width:1.5;"/>
   </g>
   <g id="legend_1">
    <g id="patch_6">
     <path d="M 284.7575 86.594375 
L 323.12 86.594375 
Q 325.12 86.594375 325.12 84.594375 
L 325.12 41.56 
Q 325.12 39.56 323.12 39.56 
L 284.7575 39.56 
Q 282.7575 39.56 282.7575 41.56 
L 282.7575 84.594375 
Q 282.7575 86.594375 284.7575 86.594375 
z
" style="fill:#ffffff;opacity:0.8;stroke:#cccccc;stroke-linejoin:miter;"/>
    </g>
    <g id="line2d_22">
     <path d="M 286.7575 47.658438 
L 306.7575 47.658438 
" style="fill:none;stroke:#1f77b4;stroke-linecap:square;stroke-width:1.5;"/>
    </g>
    <g id="line2d_23"/>
    <g id="text_16">
     <!-- 0 -->
     <g transform="translate(314.7575 51.158438)scale(0.1 -0.1)">
      <use xlink:href="#DejaVuSans-48"/>
     </g>
    </g>
    <g id="line2d_24">
     <path d="M 286.7575 62.336563 
L 306.7575 62.336563 
" style="fill:none;stroke:#ff7f0e;stroke-linecap:square;stroke-width:1.5;"/>
    </g>
    <g id="line2d_25"/>
    <g id="text_17">
     <!-- 1 -->
     <g transform="translate(314.7575 65.836563)scale(0.1 -0.1)">
      <use xlink:href="#DejaVuSans-49"/>
     </g>
    </g>
    <g id="line2d_26">
     <path d="M 286.7575 77.014688 
L 306.7575 77.014688 
" style="fill:none;stroke:#2ca02c;stroke-linecap:square;stroke-width:1.5;"/>
    </g>
    <g id="line2d_27"/>
    <g id="text_18">
     <!-- 2 -->
     <g transform="translate(314.7575 80.514688)scale(0.1 -0.1)">
      <use xlink:href="#DejaVuSans-50"/>
     </g>
    </g>
   </g>
  </g>
 </g>
 <defs>
  <clipPath id="pb52edf97db">
   <rect height="217.44" width="217.44" x="112.68" y="34.56"/>
  </clipPath>
 </defs>
</svg>
