<?xml version="1.0" encoding="utf-8" standalone="no"?>
<!DOCTYPE svg PUBLIC "-//W3C//DTD SVG 1.1//EN"
  "http://www.w3.org/Graphics/SVG/1.1/DTD/svg11.dtd">
<!-- Created with matplotlib (https://matplotlib.org/) -->
<svg height="345.6pt" version="1.1" viewBox="0 0 460.8 345.6" width="460.8pt" xmlns="http://www.w3.org/2000/svg" xmlns:xlink="http://www.w3.org/1999/xlink">
 <metadata>
  <rdf:RDF xmlns:cc="http://creativecommons.org/ns#" xmlns:dc="http://purl.org/dc/elements/1.1/" xmlns:rdf="http://www.w3.org/1999/02/22-rdf-syntax-ns#">
   <cc:Work>
    <dc:type rdf:resource="http://purl.org/dc/dcmitype/StillImage"/>
    <dc:date>2021-09-20T17:09:24.652972</dc:date>
    <dc:format>image/svg+xml</dc:format>
    <dc:creator>
     <cc:Agent>
      <dc:title>Matplotlib v3.3.4, https://matplotlib.org/</dc:title>
     </cc:Agent>
    </dc:creator>
   </cc:Work>
  </rdf:RDF>
 </metadata>
 <defs>
  <style type="text/css">*{stroke-linecap:butt;stroke-linejoin:round;}</style>
 </defs>
 <g id="figure_1">
  <g id="patch_1">
   <path d="M 0 345.6 
L 460.8 345.6 
L 460.8 0 
L 0 0 
z
" style="fill:#ffffff;"/>
  </g>
  <g id="patch_2">
   <path d="M 103.104 307.584 
L 369.216 307.584 
L 369.216 41.472 
L 103.104 41.472 
z
" style="fill:#ffffff;"/>
  </g>
  <g id="pane3d_1">
   <g id="patch_3">
    <path d="M 176.85559 213.486153 
L 334.988989 219.771895 
L 336.410626 98.721064 
L 175.936409 94.895777 
" style="fill:#f2f2f2;opacity:0.5;stroke:#f2f2f2;stroke-linejoin:miter;"/>
   </g>
  </g>
  <g id="pane3d_2">
   <g id="patch_4">
    <path d="M 176.85559 213.486153 
L 135.339182 248.942034 
L 133.627661 116.504119 
L 175.936409 94.895777 
" style="fill:#e6e6e6;opacity:0.5;stroke:#e6e6e6;stroke-linejoin:miter;"/>
   </g>
  </g>
  <g id="pane3d_3">
   <g id="patch_5">
    <path d="M 176.85559 213.486153 
L 135.339182 248.942034 
L 311.864061 256.842805 
L 334.988989 219.771895 
" style="fill:#ececec;opacity:0.5;stroke:#ececec;stroke-linejoin:miter;"/>
   </g>
  </g>
  <g id="axis3d_1">
   <g id="line2d_1">
    <path d="M 334.988989 219.771895 
L 311.864061 256.842805 
" style="fill:none;stroke:#000000;stroke-linecap:square;stroke-width:0.8;"/>
   </g>
   <g id="Line3DCollection_1">
    <path d="M 333.849644 221.598347 
L 174.80516 215.237263 
L 173.850321 95.961204 
" style="fill:none;stroke:#b0b0b0;stroke-width:0.8;"/>
    <path d="M 331.192501 225.857937 
L 170.025215 219.319436 
L 168.985852 98.445634 
" style="fill:none;stroke:#b0b0b0;stroke-width:0.8;"/>
    <path d="M 328.459914 230.238469 
L 165.112468 223.515025 
L 163.98419 101.000132 
" style="fill:none;stroke:#b0b0b0;stroke-width:0.8;"/>
    <path d="M 325.648622 234.74517 
L 160.061306 227.828822 
L 158.839447 103.627706 
" style="fill:none;stroke:#b0b0b0;stroke-width:0.8;"/>
    <path d="M 322.755176 239.38357 
L 154.865797 232.265896 
L 153.545396 106.331536 
" style="fill:none;stroke:#b0b0b0;stroke-width:0.8;"/>
    <path d="M 319.775922 244.159528 
L 149.519663 236.831606 
L 148.095441 109.114991 
" style="fill:none;stroke:#b0b0b0;stroke-width:0.8;"/>
    <path d="M 316.706984 249.079254 
L 144.016258 241.53163 
L 142.482591 111.981641 
" style="fill:none;stroke:#b0b0b0;stroke-width:0.8;"/>
    <path d="M 313.544252 254.14934 
L 138.348538 246.371982 
L 136.699434 114.935272 
" style="fill:none;stroke:#b0b0b0;stroke-width:0.8;"/>
   </g>
   <g id="xtick_1">
    <g id="line2d_2">
     <path d="M 332.550345 221.546381 
L 336.449573 221.702333 
" style="fill:none;stroke:#000000;stroke-linecap:square;stroke-width:0.8;"/>
    </g>
    <g id="text_1">
     <!-- −2.0 -->
     <g transform="translate(335.078056 239.695241)scale(0.1 -0.1)">
      <defs>
       <path d="M 10.59375 35.5 
L 73.1875 35.5 
L 73.1875 27.203125 
L 10.59375 27.203125 
z
" id="DejaVuSans-8722"/>
       <path d="M 19.1875 8.296875 
L 53.609375 8.296875 
L 53.609375 0 
L 7.328125 0 
L 7.328125 8.296875 
Q 12.9375 14.109375 22.625 23.890625 
Q 32.328125 33.6875 34.8125 36.53125 
Q 39.546875 41.84375 41.421875 45.53125 
Q 43.3125 49.21875 43.3125 52.78125 
Q 43.3125 58.59375 39.234375 62.25 
Q 35.15625 65.921875 28.609375 65.921875 
Q 23.96875 65.921875 18.8125 64.3125 
Q 13.671875 62.703125 7.8125 59.421875 
L 7.8125 69.390625 
Q 13.765625 71.78125 18.9375 73 
Q 24.125 74.21875 28.421875 74.21875 
Q 39.75 74.21875 46.484375 68.546875 
Q 53.21875 62.890625 53.21875 53.421875 
Q 53.21875 48.921875 51.53125 44.890625 
Q 49.859375 40.875 45.40625 35.40625 
Q 44.1875 33.984375 37.640625 27.21875 
Q 31.109375 20.453125 19.1875 8.296875 
z
" id="DejaVuSans-50"/>
       <path d="M 10.6875 12.40625 
L 21 12.40625 
L 21 0 
L 10.6875 0 
z
" id="DejaVuSans-46"/>
       <path d="M 31.78125 66.40625 
Q 24.171875 66.40625 20.328125 58.90625 
Q 16.5 51.421875 16.5 36.375 
Q 16.5 21.390625 20.328125 13.890625 
Q 24.171875 6.390625 31.78125 6.390625 
Q 39.453125 6.390625 43.28125 13.890625 
Q 47.125 21.390625 47.125 36.375 
Q 47.125 51.421875 43.28125 58.90625 
Q 39.453125 66.40625 31.78125 66.40625 
z
M 31.78125 74.21875 
Q 44.046875 74.21875 50.515625 64.515625 
Q 56.984375 54.828125 56.984375 36.375 
Q 56.984375 17.96875 50.515625 8.265625 
Q 44.046875 -1.421875 31.78125 -1.421875 
Q 19.53125 -1.421875 13.0625 8.265625 
Q 6.59375 17.96875 6.59375 36.375 
Q 6.59375 54.828125 13.0625 64.515625 
Q 19.53125 74.21875 31.78125 74.21875 
z
" id="DejaVuSans-48"/>
      </defs>
      <use xlink:href="#DejaVuSans-8722"/>
      <use x="83.789062" xlink:href="#DejaVuSans-50"/>
      <use x="147.412109" xlink:href="#DejaVuSans-46"/>
      <use x="179.199219" xlink:href="#DejaVuSans-48"/>
     </g>
    </g>
   </g>
   <g id="xtick_2">
    <g id="line2d_3">
     <path d="M 329.875478 225.804505 
L 333.827916 225.964854 
" style="fill:none;stroke:#000000;stroke-linecap:square;stroke-width:0.8;"/>
    </g>
    <g id="text_2">
     <!-- −1.5 -->
     <g transform="translate(332.6067 244.104217)scale(0.1 -0.1)">
      <defs>
       <path d="M 12.40625 8.296875 
L 28.515625 8.296875 
L 28.515625 63.921875 
L 10.984375 60.40625 
L 10.984375 69.390625 
L 28.421875 72.90625 
L 38.28125 72.90625 
L 38.28125 8.296875 
L 54.390625 8.296875 
L 54.390625 0 
L 12.40625 0 
z
" id="DejaVuSans-49"/>
       <path d="M 10.796875 72.90625 
L 49.515625 72.90625 
L 49.515625 64.59375 
L 19.828125 64.59375 
L 19.828125 46.734375 
Q 21.96875 47.46875 24.109375 47.828125 
Q 26.265625 48.1875 28.421875 48.1875 
Q 40.625 48.1875 47.75 41.5 
Q 54.890625 34.8125 54.890625 23.390625 
Q 54.890625 11.625 47.5625 5.09375 
Q 40.234375 -1.421875 26.90625 -1.421875 
Q 22.3125 -1.421875 17.546875 -0.640625 
Q 12.796875 0.140625 7.71875 1.703125 
L 7.71875 11.625 
Q 12.109375 9.234375 16.796875 8.0625 
Q 21.484375 6.890625 26.703125 6.890625 
Q 35.15625 6.890625 40.078125 11.328125 
Q 45.015625 15.765625 45.015625 23.390625 
Q 45.015625 31 40.078125 35.4375 
Q 35.15625 39.890625 26.703125 39.890625 
Q 22.75 39.890625 18.8125 39.015625 
Q 14.890625 38.140625 10.796875 36.28125 
z
" id="DejaVuSans-53"/>
      </defs>
      <use xlink:href="#DejaVuSans-8722"/>
      <use x="83.789062" xlink:href="#DejaVuSans-49"/>
      <use x="147.412109" xlink:href="#DejaVuSans-46"/>
      <use x="179.199219" xlink:href="#DejaVuSans-53"/>
     </g>
    </g>
   </g>
   <g id="xtick_3">
    <g id="line2d_4">
     <path d="M 327.124677 230.18351 
L 331.131795 230.348445 
" style="fill:none;stroke:#000000;stroke-linecap:square;stroke-width:0.8;"/>
    </g>
    <g id="text_3">
     <!-- −1.0 -->
     <g transform="translate(330.065135 248.638448)scale(0.1 -0.1)">
      <use xlink:href="#DejaVuSans-8722"/>
      <use x="83.789062" xlink:href="#DejaVuSans-49"/>
      <use x="147.412109" xlink:href="#DejaVuSans-46"/>
      <use x="179.199219" xlink:href="#DejaVuSans-48"/>
     </g>
    </g>
   </g>
   <g id="xtick_4">
    <g id="line2d_5">
     <path d="M 324.29466 234.688617 
L 328.357993 234.858337 
" style="fill:none;stroke:#000000;stroke-linecap:square;stroke-width:0.8;"/>
    </g>
    <g id="text_4">
     <!-- −0.5 -->
     <g transform="translate(327.450326 253.303348)scale(0.1 -0.1)">
      <use xlink:href="#DejaVuSans-8722"/>
      <use x="83.789062" xlink:href="#DejaVuSans-48"/>
      <use x="147.412109" xlink:href="#DejaVuSans-46"/>
      <use x="179.199219" xlink:href="#DejaVuSans-53"/>
     </g>
    </g>
   </g>
   <g id="xtick_5">
    <g id="line2d_6">
     <path d="M 321.381958 239.325353 
L 325.503103 239.500069 
" style="fill:none;stroke:#000000;stroke-linecap:square;stroke-width:0.8;"/>
    </g>
    <g id="text_5">
     <!-- 0.0 -->
     <g transform="translate(328.948904 258.104649)scale(0.1 -0.1)">
      <use xlink:href="#DejaVuSans-48"/>
      <use x="63.623047" xlink:href="#DejaVuSans-46"/>
      <use x="95.410156" xlink:href="#DejaVuSans-48"/>
     </g>
    </g>
   </g>
   <g id="xtick_6">
    <g id="line2d_7">
     <path d="M 318.382892 244.099571 
L 322.563517 244.279507 
" style="fill:none;stroke:#000000;stroke-linecap:square;stroke-width:0.8;"/>
    </g>
    <g id="text_6">
     <!-- 0.5 -->
     <g transform="translate(326.177779 263.048422)scale(0.1 -0.1)">
      <use xlink:href="#DejaVuSans-48"/>
      <use x="63.623047" xlink:href="#DejaVuSans-46"/>
      <use x="95.410156" xlink:href="#DejaVuSans-53"/>
     </g>
    </g>
   </g>
   <g id="xtick_7">
    <g id="line2d_8">
     <path d="M 315.293562 249.017479 
L 319.535408 249.202873 
" style="fill:none;stroke:#000000;stroke-linecap:square;stroke-width:0.8;"/>
    </g>
    <g id="text_7">
     <!-- 1.0 -->
     <g transform="translate(323.323187 268.141103)scale(0.1 -0.1)">
      <use xlink:href="#DejaVuSans-49"/>
      <use x="63.623047" xlink:href="#DejaVuSans-46"/>
      <use x="95.410156" xlink:href="#DejaVuSans-48"/>
     </g>
    </g>
   </g>
   <g id="xtick_8">
    <g id="line2d_9">
     <path d="M 312.109833 254.085662 
L 316.414718 254.276766 
" style="fill:none;stroke:#000000;stroke-linecap:square;stroke-width:0.8;"/>
    </g>
    <g id="text_8">
     <!-- 1.5 -->
     <g transform="translate(320.381299 273.389523)scale(0.1 -0.1)">
      <use xlink:href="#DejaVuSans-49"/>
      <use x="63.623047" xlink:href="#DejaVuSans-46"/>
      <use x="95.410156" xlink:href="#DejaVuSans-53"/>
     </g>
    </g>
   </g>
  </g>
  <g id="axis3d_2">
   <g id="line2d_10">
    <path d="M 135.339182 248.942034 
L 311.864061 256.842805 
" style="fill:none;stroke:#000000;stroke-linecap:square;stroke-width:0.8;"/>
   </g>
   <g id="Line3DCollection_2">
    <path d="M 193.633277 95.317624 
L 194.299129 214.179527 
L 154.767444 249.81159 
" style="fill:none;stroke:#b0b0b0;stroke-width:0.8;"/>
    <path d="M 224.369935 96.050306 
L 224.592958 215.383695 
L 188.533996 251.322889 
" style="fill:none;stroke:#b0b0b0;stroke-width:0.8;"/>
    <path d="M 255.360643 96.789043 
L 255.133534 216.597671 
L 222.608889 252.847988 
" style="fill:none;stroke:#b0b0b0;stroke-width:0.8;"/>
    <path d="M 286.608565 97.533913 
L 285.923882 217.821576 
L 256.996368 254.387077 
" style="fill:none;stroke:#b0b0b0;stroke-width:0.8;"/>
    <path d="M 318.116914 98.284989 
L 316.967079 219.055531 
L 291.700753 255.940351 
" style="fill:none;stroke:#b0b0b0;stroke-width:0.8;"/>
   </g>
   <g id="xtick_9">
    <g id="line2d_11">
     <path d="M 155.121314 249.492627 
L 154.05766 250.451356 
" style="fill:none;stroke:#000000;stroke-linecap:square;stroke-width:0.8;"/>
    </g>
    <g id="text_9">
     <!-- −2 -->
     <g transform="translate(143.805713 271.683019)scale(0.1 -0.1)">
      <use xlink:href="#DejaVuSans-8722"/>
      <use x="83.789062" xlink:href="#DejaVuSans-50"/>
     </g>
    </g>
   </g>
   <g id="xtick_10">
    <g id="line2d_12">
     <path d="M 188.856936 251.001021 
L 187.886243 251.96849 
" style="fill:none;stroke:#000000;stroke-linecap:square;stroke-width:0.8;"/>
    </g>
    <g id="text_10">
     <!-- 0 -->
     <g transform="translate(182.04048 273.272952)scale(0.1 -0.1)">
      <use xlink:href="#DejaVuSans-48"/>
     </g>
    </g>
   </g>
   <g id="xtick_11">
    <g id="line2d_13">
     <path d="M 222.900318 252.523176 
L 222.024334 253.499503 
" style="fill:none;stroke:#000000;stroke-linecap:square;stroke-width:0.8;"/>
    </g>
    <g id="text_11">
     <!-- 2 -->
     <g transform="translate(216.399015 274.87753)scale(0.1 -0.1)">
      <use xlink:href="#DejaVuSans-50"/>
     </g>
    </g>
   </g>
   <g id="xtick_12">
    <g id="line2d_14">
     <path d="M 257.255693 254.059281 
L 256.476201 255.044589 
" style="fill:none;stroke:#000000;stroke-linecap:square;stroke-width:0.8;"/>
    </g>
    <g id="text_12">
     <!-- 4 -->
     <g transform="translate(251.075513 276.496958)scale(0.1 -0.1)">
      <defs>
       <path d="M 37.796875 64.3125 
L 12.890625 25.390625 
L 37.796875 25.390625 
z
M 35.203125 72.90625 
L 47.609375 72.90625 
L 47.609375 25.390625 
L 58.015625 25.390625 
L 58.015625 17.1875 
L 47.609375 17.1875 
L 47.609375 0 
L 37.796875 0 
L 37.796875 17.1875 
L 4.890625 17.1875 
L 4.890625 26.703125 
z
" id="DejaVuSans-52"/>
      </defs>
      <use xlink:href="#DejaVuSans-52"/>
     </g>
    </g>
   </g>
   <g id="xtick_13">
    <g id="line2d_15">
     <path d="M 291.927369 255.609528 
L 291.246189 256.603942 
" style="fill:none;stroke:#000000;stroke-linecap:square;stroke-width:0.8;"/>
    </g>
    <g id="text_13">
     <!-- 6 -->
     <g transform="translate(286.074411 278.131441)scale(0.1 -0.1)">
      <defs>
       <path d="M 33.015625 40.375 
Q 26.375 40.375 22.484375 35.828125 
Q 18.609375 31.296875 18.609375 23.390625 
Q 18.609375 15.53125 22.484375 10.953125 
Q 26.375 6.390625 33.015625 6.390625 
Q 39.65625 6.390625 43.53125 10.953125 
Q 47.40625 15.53125 47.40625 23.390625 
Q 47.40625 31.296875 43.53125 35.828125 
Q 39.65625 40.375 33.015625 40.375 
z
M 52.59375 71.296875 
L 52.59375 62.3125 
Q 48.875 64.0625 45.09375 64.984375 
Q 41.3125 65.921875 37.59375 65.921875 
Q 27.828125 65.921875 22.671875 59.328125 
Q 17.53125 52.734375 16.796875 39.40625 
Q 19.671875 43.65625 24.015625 45.921875 
Q 28.375 48.1875 33.59375 48.1875 
Q 44.578125 48.1875 50.953125 41.515625 
Q 57.328125 34.859375 57.328125 23.390625 
Q 57.328125 12.15625 50.6875 5.359375 
Q 44.046875 -1.421875 33.015625 -1.421875 
Q 20.359375 -1.421875 13.671875 8.265625 
Q 6.984375 17.96875 6.984375 36.375 
Q 6.984375 53.65625 15.1875 63.9375 
Q 23.390625 74.21875 37.203125 74.21875 
Q 40.921875 74.21875 44.703125 73.484375 
Q 48.484375 72.75 52.59375 71.296875 
z
" id="DejaVuSans-54"/>
      </defs>
      <use xlink:href="#DejaVuSans-54"/>
     </g>
    </g>
   </g>
  </g>
  <g id="axis3d_3">
   <g id="line2d_16">
    <path d="M 135.339182 248.942034 
L 133.627661 116.504119 
" style="fill:none;stroke:#000000;stroke-linecap:square;stroke-width:0.8;"/>
   </g>
   <g id="Line3DCollection_3">
    <path d="M 135.086387 229.38064 
L 176.719622 195.943919 
L 335.199226 201.870436 
" style="fill:none;stroke:#b0b0b0;stroke-width:0.8;"/>
    <path d="M 134.84856 210.977597 
L 176.59177 179.448756 
L 335.396932 185.03599 
" style="fill:none;stroke:#b0b0b0;stroke-width:0.8;"/>
    <path d="M 134.609651 192.490735 
L 176.463398 162.886544 
L 335.595459 168.131655 
" style="fill:none;stroke:#b0b0b0;stroke-width:0.8;"/>
    <path d="M 134.369651 173.919478 
L 176.334503 146.256875 
L 335.794812 151.156996 
" style="fill:none;stroke:#b0b0b0;stroke-width:0.8;"/>
    <path d="M 134.128553 155.263249 
L 176.205083 129.559336 
L 335.994995 134.111573 
" style="fill:none;stroke:#b0b0b0;stroke-width:0.8;"/>
    <path d="M 133.886349 136.521462 
L 176.075133 112.793509 
L 336.196015 116.994942 
" style="fill:none;stroke:#b0b0b0;stroke-width:0.8;"/>
   </g>
   <g id="xtick_14">
    <g id="line2d_17">
     <path d="M 135.459061 229.081336 
L 134.338886 229.980977 
" style="fill:none;stroke:#000000;stroke-linecap:square;stroke-width:0.8;"/>
    </g>
    <g id="text_14">
     <!-- −1.5 -->
     <g transform="translate(104.588747 239.502573)scale(0.1 -0.1)">
      <use xlink:href="#DejaVuSans-8722"/>
      <use x="83.789062" xlink:href="#DejaVuSans-49"/>
      <use x="147.412109" xlink:href="#DejaVuSans-46"/>
      <use x="179.199219" xlink:href="#DejaVuSans-53"/>
     </g>
    </g>
   </g>
   <g id="xtick_15">
    <g id="line2d_18">
     <path d="M 135.22231 210.695303 
L 134.0989 211.543819 
" style="fill:none;stroke:#000000;stroke-linecap:square;stroke-width:0.8;"/>
    </g>
    <g id="text_15">
     <!-- −1.0 -->
     <g transform="translate(104.306947 220.956164)scale(0.1 -0.1)">
      <use xlink:href="#DejaVuSans-8722"/>
      <use x="83.789062" xlink:href="#DejaVuSans-49"/>
      <use x="147.412109" xlink:href="#DejaVuSans-46"/>
      <use x="179.199219" xlink:href="#DejaVuSans-48"/>
     </g>
    </g>
   </g>
   <g id="xtick_16">
    <g id="line2d_19">
     <path d="M 134.984481 192.225608 
L 133.857818 193.022524 
" style="fill:none;stroke:#000000;stroke-linecap:square;stroke-width:0.8;"/>
    </g>
    <g id="text_16">
     <!-- −0.5 -->
     <g transform="translate(104.023854 202.324596)scale(0.1 -0.1)">
      <use xlink:href="#DejaVuSans-8722"/>
      <use x="83.789062" xlink:href="#DejaVuSans-48"/>
      <use x="147.412109" xlink:href="#DejaVuSans-46"/>
      <use x="179.199219" xlink:href="#DejaVuSans-53"/>
     </g>
    </g>
   </g>
   <g id="xtick_17">
    <g id="line2d_20">
     <path d="M 134.745567 173.67168 
L 133.615634 174.416515 
" style="fill:none;stroke:#000000;stroke-linecap:square;stroke-width:0.8;"/>
    </g>
    <g id="text_17">
     <!-- 0.0 -->
     <g transform="translate(107.929301 183.607281)scale(0.1 -0.1)">
      <use xlink:href="#DejaVuSans-48"/>
      <use x="63.623047" xlink:href="#DejaVuSans-46"/>
      <use x="95.410156" xlink:href="#DejaVuSans-48"/>
     </g>
    </g>
   </g>
   <g id="xtick_18">
    <g id="line2d_21">
     <path d="M 134.505562 155.03294 
L 133.37234 155.725208 
" style="fill:none;stroke:#000000;stroke-linecap:square;stroke-width:0.8;"/>
    </g>
    <g id="text_18">
     <!-- 0.5 -->
     <g transform="translate(107.643592 164.803626)scale(0.1 -0.1)">
      <use xlink:href="#DejaVuSans-48"/>
      <use x="63.623047" xlink:href="#DejaVuSans-46"/>
      <use x="95.410156" xlink:href="#DejaVuSans-53"/>
     </g>
    </g>
   </g>
   <g id="xtick_19">
    <g id="line2d_22">
     <path d="M 134.264457 136.308806 
L 133.127927 136.948016 
" style="fill:none;stroke:#000000;stroke-linecap:square;stroke-width:0.8;"/>
    </g>
    <g id="text_19">
     <!-- 1.0 -->
     <g transform="translate(107.356563 145.913032)scale(0.1 -0.1)">
      <use xlink:href="#DejaVuSans-49"/>
      <use x="63.623047" xlink:href="#DejaVuSans-46"/>
      <use x="95.410156" xlink:href="#DejaVuSans-48"/>
     </g>
    </g>
   </g>
  </g>
  <g id="axes_1">
   <g id="line2d_23">
    <path clip-path="url(#p26155f31d7)" d="M 199.384611 214.151181 
L 200.495488 213.586291 
L 202.612762 212.341166 
L 204.879455 211.116111 
L 206.355277 210.4912 
L 211.539239 209.456248 
L 216.291853 209.131849 
L 221.932011 208.774826 
L 231.324092 208.058697 
L 236.230007 207.350475 
L 240.138183 206.669454 
L 245.908607 206.029484 
L 248.828938 206.207785 
L 252.853502 206.594508 
L 256.090365 207.276035 
L 259.511844 208.001878 
L 262.56365 208.752964 
L 266.568831 209.731001 
L 270.614763 210.291389 
L 272.392274 210.244022 
L 274.874385 209.192117 
L 276.595726 208.518359 
L 279.615934 206.765606 
L 280.477756 205.909458 
L 281.486232 204.906763 
L 281.630425 204.263039 
L 281.07192 201.737645 
L 279.383044 197.760021 
L 278.745295 196.82822 
L 277.561307 195.682595 
L 269.489568 188.798483 
L 266.813993 186.851212 
L 266.015853 186.431497 
L 250.903586 178.995054 
L 246.394861 176.538824 
L 239.585539 172.439273 
L 230.005001 168.576255 
L 225.70621 166.200648 
L 223.225615 164.454975 
L 219.995442 162.083375 
L 217.71306 160.249072 
L 216.801265 159.249638 
L 215.189225 156.319246 
L 215.413735 155.169273 
L 215.903053 153.910587 
L 216.636076 152.781989 
L 221.411846 148.948856 
L 221.920782 148.154497 
L 222.093755 147.409299 
L 222.232934 146.205065 
L 221.957088 144.096255 
L 221.47306 142.184789 
L 220.796276 140.399965 
L 219.194289 136.750299 
L 218.348364 135.564793 
L 213.047232 131.023815 
L 208.864281 128.29476 
L 206.014897 126.814012 
L 204.932626 126.559059 
L 203.63907 126.232283 
L 201.972617 125.684653 
L 196.228916 123.412148 
L 193.486056 122.711858 
L 193.486056 122.711858 
" style="fill:none;stroke:#0000ff;stroke-linecap:square;stroke-width:1.5;"/>
   </g>
   <g id="line2d_24">
    <path clip-path="url(#p26155f31d7)" d="M 199.219124 180.891874 
L 198.749713 182.567118 
L 198.794567 183.041485 
L 198.98879 183.941381 
L 199.238694 184.494321 
L 199.719315 184.832671 
L 202.305265 185.888095 
L 204.067977 186.063389 
L 204.764174 185.779604 
L 206.337761 185.138212 
L 211.681202 183.701347 
L 217.671901 183.219739 
L 221.319461 183.161057 
L 228.087917 183.183918 
L 232.297309 182.921516 
L 235.640996 182.286337 
L 239.603076 180.658981 
L 239.885931 179.964961 
L 238.896522 178.426291 
L 237.709452 176.745267 
L 233.603533 173.347007 
L 230.735328 171.496874 
L 226.887882 169.35778 
L 220.737432 166.325984 
L 217.929535 165.32833 
L 213.65572 164.01189 
L 208.783053 162.704941 
L 205.771984 162.269164 
L 203.550399 162.123898 
L 201.685006 162.093208 
L 199.078006 161.818619 
L 196.104253 161.303348 
L 193.443833 160.610051 
L 190.708978 159.660418 
L 185.357012 157.353079 
L 183.564608 156.249278 
L 180.869427 154.065332 
L 180.022219 152.938082 
L 179.84232 152.418408 
L 179.070021 150.164411 
L 178.60061 149.531827 
L 178.071755 149.028227 
L 177.250482 148.022195 
L 177.154166 147.369722 
L 178.06465 146.519599 
L 179.367394 145.741611 
L 181.057023 144.878611 
L 181.616974 144.657013 
L 182.729455 144.18286 
L 186.898345 142.300267 
L 190.789318 140.707357 
L 195.961217 138.119456 
L 199.62334 135.909265 
L 201.269409 134.773973 
L 201.269409 134.773973 
" style="fill:none;stroke:#0000ff;stroke-linecap:square;stroke-width:1.5;"/>
   </g>
   <g id="line2d_25">
    <path clip-path="url(#p26155f31d7)" d="M 190.33247 222.437547 
L 191.651958 221.385669 
L 193.296675 219.521855 
L 195.600258 217.072261 
L 198.244869 213.629447 
L 202.295083 206.737847 
L 203.041879 204.403783 
L 202.963911 203.904638 
L 202.604828 203.23743 
L 201.75535 202.056947 
L 200.209037 200.574008 
L 198.201689 199.130985 
L 196.298321 197.820216 
L 193.839293 196.490037 
L 189.730327 194.142498 
L 186.588737 191.980894 
L 181.33749 187.861407 
L 179.393482 185.608532 
L 176.697812 181.550504 
L 175.636454 179.685451 
L 174.697462 177.388301 
L 174.407065 176.315938 
L 174.265829 175.213544 
L 174.314067 173.400923 
L 174.609509 171.778262 
L 174.961068 170.239426 
L 175.30405 168.839272 
L 176.430287 166.659077 
L 182.350316 158.162595 
L 193.188358 146.09322 
L 195.396037 143.554877 
L 197.768999 140.13997 
L 198.452136 138.179918 
L 198.711249 135.939914 
L 198.815346 132.504208 
L 198.895326 132.067595 
L 198.932735 131.469774 
L 198.761167 130.528065 
L 198.525044 129.931139 
L 197.977086 129.287371 
L 196.719718 128.066921 
L 195.459636 127.20502 
L 194.226514 126.551009 
L 192.515363 125.850093 
L 185.277136 122.776124 
L 182.989864 121.675591 
L 182.15519 121.362653 
L 182.15519 121.362653 
" style="fill:none;stroke:#0000ff;stroke-linecap:square;stroke-width:1.5;"/>
   </g>
   <g id="line2d_26">
    <path clip-path="url(#p26155f31d7)" d="M 190.12422 188.280835 
L 190.78097 186.461794 
L 192.0028 184.774337 
L 192.383744 183.68476 
L 192.200694 182.257782 
L 191.958735 181.63264 
L 190.978736 180.327887 
L 190.177084 179.550279 
L 187.825134 177.808446 
L 180.995399 174.644387 
L 174.728677 171.764835 
L 171.356373 169.980316 
L 169.362363 168.574649 
L 168.628007 167.748073 
L 167.486546 166.083027 
L 166.730862 164.883374 
L 166.224601 163.899018 
L 165.951226 163.035967 
L 166.132993 162.089314 
L 166.637105 160.861683 
L 167.349489 159.219981 
L 167.860759 158.160472 
L 168.47296 157.208631 
L 170.053941 155.290295 
L 170.991852 154.531076 
L 172.662637 153.238009 
L 175.433145 150.73688 
L 179.72617 147.774165 
L 183.399611 145.306178 
L 185.408188 144.27654 
L 186.940105 143.479023 
L 190.749321 141.270828 
L 195.273391 138.572626 
L 198.462436 136.260512 
L 199.601037 135.23559 
L 200.557498 133.779578 
L 201.132159 132.366 
L 201.521923 130.522878 
L 201.574745 129.41105 
L 201.68949 128.955257 
L 202.116706 127.542197 
L 202.349248 126.144305 
L 202.097739 125.756903 
L 200.804937 124.42481 
L 199.745529 123.901349 
L 197.695789 123.065573 
L 195.629075 122.459512 
L 190.754804 121.661848 
L 186.168403 120.945425 
L 180.51199 120.019765 
L 179.837493 120.209107 
L 178.983125 120.60659 
L 178.576237 120.561047 
L 177.875884 120.189699 
L 177.048655 119.521089 
L 176.687453 118.860221 
L 176.616948 118.68262 
L 176.616948 118.68262 
" style="fill:none;stroke:#0000ff;stroke-linecap:square;stroke-width:1.5;"/>
   </g>
   <g id="line2d_27">
    <path clip-path="url(#p26155f31d7)" d="M 214.634814 214.756934 
L 222.392782 213.940452 
L 226.313445 213.594418 
L 228.816831 213.07823 
L 231.013996 212.693879 
L 236.49755 212.003546 
L 246.705622 211.049221 
L 248.506406 211.149054 
L 255.301232 211.48671 
L 262.931199 212.337495 
L 267.172174 213.31446 
L 269.100389 213.962136 
L 271.117396 214.800641 
L 275.629216 216.68066 
L 279.310296 218.014559 
L 281.475983 218.474616 
L 286.252847 219.405568 
L 296.516435 220.112165 
L 301.184833 219.956621 
L 302.904124 219.920816 
L 304.365691 219.935468 
L 306.431102 219.871364 
L 310.195108 219.530942 
L 313.216022 218.652589 
L 314.479462 218.017527 
L 315.355174 217.367208 
L 315.48297 217.139158 
L 314.943836 215.503519 
L 314.377417 214.569528 
L 313.125428 212.962583 
L 311.903443 211.739919 
L 309.800266 210.150245 
L 307.243012 208.549864 
L 300.284609 204.554995 
L 277.18145 194.743541 
L 267.330053 190.057207 
L 258.896117 185.8107 
L 257.022369 184.715113 
L 247.255115 178.674655 
L 244.218539 176.398841 
L 240.603124 173.068864 
L 238.322742 171.004186 
L 234.771105 168.243927 
L 232.313769 166.042363 
L 229.674841 163.396028 
L 228.695348 162.04189 
L 227.820031 159.645276 
L 227.721145 158.656699 
L 227.87118 158.01094 
L 228.268317 156.883821 
L 228.39421 156.449288 
L 228.401737 155.624369 
L 227.957488 154.789501 
L 227.402231 154.122808 
L 225.793713 152.572185 
L 224.444373 151.685773 
L 223.343843 150.840553 
L 222.820654 150.208832 
L 221.956776 148.207138 
L 221.246381 146.242692 
L 220.86798 144.823299 
L 220.86798 144.823299 
" style="fill:none;stroke:#0000ff;stroke-linecap:square;stroke-width:1.5;"/>
   </g>
   <g id="line2d_28">
    <path clip-path="url(#p26155f31d7)" d="M 214.531575 181.431925 
L 221.817352 185.249462 
L 224.492313 185.365153 
L 228.081605 185.385388 
L 230.176568 185.440214 
L 233.830217 185.672168 
L 235.247753 185.57679 
L 242.75206 184.552132 
L 245.327069 183.975397 
L 246.274391 183.813624 
L 246.875193 183.677282 
L 249.756223 184.213 
L 249.743078 184.096391 
L 249.58167 183.647405 
L 249.054241 182.936595 
L 243.495886 178.088063 
L 240.030815 175.758965 
L 229.544751 169.247513 
L 227.507739 168.300542 
L 225.108119 167.164285 
L 223.767688 166.586838 
L 220.005528 165.18685 
L 215.338163 163.717721 
L 206.70645 161.22037 
L 200.961674 159.887532 
L 196.416935 158.636127 
L 191.531301 157.222799 
L 186.634242 155.257161 
L 185.329199 154.640718 
L 181.332867 152.491837 
L 180.337894 151.67903 
L 178.912179 150.172983 
L 178.868671 149.742155 
L 179.043825 149.116229 
L 179.377485 148.506169 
L 179.902137 147.951055 
L 181.332361 147.169601 
L 182.198524 146.783568 
L 185.326461 145.037096 
L 197.913715 139.009019 
L 199.984863 137.966084 
L 203.740344 135.623579 
L 204.576162 134.690811 
L 205.730166 133.080373 
L 206.047969 132.12055 
L 206.279088 131.720853 
L 207.514121 129.915875 
L 207.7297 129.125588 
L 207.830123 128.049951 
L 207.693002 126.657046 
L 207.254555 123.93422 
L 206.847817 123.135863 
L 206.000785 122.061592 
L 205.385442 121.568062 
L 204.296899 121.120819 
L 203.509897 121.007025 
L 198.040134 120.170708 
L 195.654278 119.77608 
L 190.022231 119.404344 
L 190.022231 119.404344 
" style="fill:none;stroke:#0000ff;stroke-linecap:square;stroke-width:1.5;"/>
   </g>
   <g id="line2d_29">
    <path clip-path="url(#p26155f31d7)" d="M 205.990171 223.077573 
L 207.298053 221.300772 
L 208.384725 219.586589 
L 208.788382 218.074436 
L 208.882921 215.624952 
L 209.451471 213.594874 
L 209.826955 212.084317 
L 211.182584 206.42637 
L 210.860595 204.615732 
L 209.626645 202.914558 
L 208.431209 201.501259 
L 207.74844 201.071471 
L 206.221376 200.067077 
L 200.767051 196.588757 
L 199.246755 195.479438 
L 197.508416 194.123452 
L 191.679697 189.446157 
L 190.358094 187.850777 
L 189.255817 186.641147 
L 187.094827 184.285233 
L 185.142265 181.664263 
L 183.236177 179.003178 
L 182.486289 177.274154 
L 181.810258 174.810445 
L 181.689125 173.722925 
L 181.603323 170.461512 
L 182.134298 168.339874 
L 182.710237 166.98326 
L 184.034427 163.945645 
L 186.544593 158.918596 
L 190.836952 153.542921 
L 192.898559 151.268904 
L 195.282512 148.770278 
L 197.012304 147.025957 
L 198.168087 145.963531 
L 200.482899 143.972505 
L 201.284512 143.063271 
L 201.91562 141.617707 
L 202.204848 139.528203 
L 202.198185 137.34148 
L 201.843453 132.109739 
L 201.232771 131.184572 
L 200.338319 130.326516 
L 197.78085 128.449952 
L 196.31504 127.544486 
L 194.108598 126.462143 
L 185.792935 123.059317 
L 183.229561 121.761735 
L 180.56633 120.82415 
L 178.767535 120.665396 
L 177.567119 119.968643 
L 176.987524 119.434561 
L 176.987524 119.434561 
" style="fill:none;stroke:#0000ff;stroke-linecap:square;stroke-width:1.5;"/>
   </g>
   <g id="line2d_30">
    <path clip-path="url(#p26155f31d7)" d="M 205.847597 188.851649 
L 205.943216 187.95695 
L 205.543538 186.737871 
L 205.145702 186.246937 
L 202.815808 185.162707 
L 202.128924 184.916056 
L 196.736355 182.860278 
L 193.301737 181.419341 
L 173.022641 173.005203 
L 171.215327 171.752708 
L 170.084684 170.68999 
L 169.245599 169.686484 
L 168.540697 168.910774 
L 167.782549 167.993435 
L 167.306503 166.277914 
L 167.378233 164.325399 
L 167.855556 162.920523 
L 168.347257 161.854637 
L 169.632122 159.162723 
L 171.748098 156.633092 
L 173.73229 154.792942 
L 176.359319 152.189135 
L 177.795445 151.064681 
L 185.682266 145.787381 
L 195.314012 140.2813 
L 197.443378 138.831131 
L 198.33804 138.342903 
L 199.247464 137.75525 
L 200.840913 136.353542 
L 201.736459 134.929202 
L 202.191233 133.670208 
L 202.607761 131.670096 
L 202.841274 130.931963 
L 203.197466 130.231688 
L 203.641812 128.2074 
L 203.434426 127.794672 
L 202.705481 127.017379 
L 201.370897 126.091832 
L 199.905771 125.446098 
L 196.494874 124.164049 
L 194.015647 123.648079 
L 191.531359 123.29736 
L 187.166535 122.562242 
L 181.770264 121.201063 
L 180.556079 120.823776 
L 178.844656 120.702401 
L 177.54968 119.956279 
L 176.973213 119.413291 
L 176.618907 118.687561 
L 176.616948 118.68262 
L 176.616948 118.68262 
" style="fill:none;stroke:#0000ff;stroke-linecap:square;stroke-width:1.5;"/>
   </g>
   <g id="line2d_31">
    <path clip-path="url(#p26155f31d7)" d="M 202.561433 201.715428 
L 202.700693 201.614085 
L 203.910249 200.277935 
L 205.236678 199.430761 
L 207.054419 198.542935 
L 211.144558 196.889555 
L 217.467713 194.568336 
L 225.970258 191.430633 
L 228.546631 190.212199 
L 230.319257 189.157881 
L 231.578505 188.174222 
L 232.669417 187.048774 
L 233.553825 185.822977 
L 234.081197 184.76311 
L 234.410463 183.580862 
L 234.442481 182.738168 
L 234.236255 182.101897 
L 233.788307 181.522106 
L 232.993857 180.9292 
L 231.846458 180.356857 
L 229.412153 179.447853 
L 224.636767 177.893275 
L 219.414201 176.466186 
L 216.553171 175.881764 
L 204.954109 173.882992 
L 201.310183 172.95682 
L 197.75542 171.846106 
L 195.064357 170.816315 
L 192.468451 169.581004 
L 190.234135 168.278045 
L 188.301466 166.91599 
L 186.228811 165.160932 
L 184.250916 163.21242 
L 181.888199 160.545497 
L 177.385109 155.038688 
L 174.520361 151.064591 
L 173.944415 149.943223 
L 173.843735 149.309935 
L 173.985418 148.689813 
L 174.392785 148.043727 
L 175.189561 147.26228 
L 176.585073 146.238389 
L 179.056481 144.731983 
L 181.760559 143.374251 
L 186.105802 141.458147 
L 191.816109 138.961856 
L 194.457868 137.502345 
L 196.273786 136.263634 
L 197.769215 134.96417 
L 199.119097 133.507943 
L 199.854584 132.402531 
L 200.356509 131.201833 
L 200.718335 129.680464 
L 200.941016 127.804639 
L 200.933344 126.083305 
L 200.721227 124.520375 
L 200.332984 123.402644 
L 199.734715 122.364117 
L 198.880094 121.396744 
L 197.751211 120.424042 
L 196.487528 119.629251 
L 195.177354 119.047845 
L 193.558032 118.612344 
L 191.772986 118.359384 
L 189.327577 118.263668 
L 176.091423 118.27872 
L 175.945627 118.317017 
L 175.945627 118.317017 
" style="fill:none;stroke:#008000;stroke-linecap:square;stroke-width:1.5;"/>
   </g>
   <g id="line2d_32">
    <path clip-path="url(#p26155f31d7)" d="M 209.617521 209.353466 
L 210.454703 209.281128 
L 211.761398 208.860554 
L 215.018962 207.740858 
L 218.648852 206.654869 
L 224.146408 205.114141 
L 229.910319 203.043532 
L 237.487794 200.195744 
L 239.523719 199.215622 
L 240.6805 198.436261 
L 241.657519 197.501303 
L 242.23676 196.676098 
L 242.556852 195.822748 
L 242.654057 194.95441 
L 242.543872 194.032562 
L 242.185424 192.958953 
L 241.433589 191.574289 
L 240.126166 189.639013 
L 238.930763 188.199251 
L 237.60747 187.002687 
L 236.058568 185.901351 
L 234.263172 184.925735 
L 232.226862 184.088741 
L 229.473087 183.253309 
L 225.204836 182.24637 
L 212.037056 179.406937 
L 208.66615 178.940284 
L 205.137582 178.672809 
L 196.812424 178.142916 
L 193.859416 177.672314 
L 191.340199 177.049367 
L 188.679423 176.175211 
L 186.531785 175.238032 
L 184.247106 173.991087 
L 181.637826 172.307534 
L 179.851958 170.897193 
L 178.487572 169.507694 
L 177.017075 167.671557 
L 175.914263 165.97588 
L 175.145396 164.385719 
L 174.614511 162.742638 
L 174.266797 160.820124 
L 174.168814 159.138487 
L 174.294039 157.521657 
L 174.633611 156.047296 
L 175.231442 154.551162 
L 176.154174 152.861304 
L 177.131574 151.592013 
L 178.355001 150.377042 
L 180.43622 148.670501 
L 182.530819 147.187125 
L 185.917156 145.194547 
L 190.462548 142.850334 
L 196.656617 139.820383 
L 199.93447 137.979252 
L 201.397268 136.944394 
L 203.382899 135.201367 
L 204.589465 133.815205 
L 205.534706 132.404188 
L 206.124734 131.12903 
L 206.411873 130.033286 
L 206.468009 128.812433 
L 206.307572 127.544697 
L 205.91061 126.233842 
L 205.448819 125.367643 
L 204.93179 124.861898 
L 204.000674 124.338743 
L 202.334811 123.677921 
L 194.24375 120.96096 
L 191.693006 120.459023 
L 179.421796 118.468175 
L 175.945627 118.317017 
L 175.945627 118.317017 
" style="fill:none;stroke:#008000;stroke-linecap:square;stroke-width:1.5;"/>
   </g>
   <g id="line2d_33">
    <path clip-path="url(#p26155f31d7)" d="M 209.460183 202.481435 
L 211.965941 202.468518 
L 216.365374 202.058817 
L 228.742604 200.832119 
L 237.262438 200.019728 
L 238.577096 199.637442 
L 239.049041 199.300712 
L 239.210206 198.942348 
L 239.163905 198.479768 
L 238.856091 197.827232 
L 238.241045 197.08596 
L 237.026575 195.987285 
L 234.724511 194.212786 
L 229.199559 190.161538 
L 227.765241 188.622897 
L 224.607161 185.102247 
L 223.211476 183.991853 
L 221.457031 182.912337 
L 219.56154 182.012164 
L 217.017267 181.06693 
L 212.175952 179.621504 
L 209.155416 178.973363 
L 206.376914 178.617601 
L 203.04972 178.416638 
L 197.417543 178.13041 
L 194.306019 177.726054 
L 191.151336 177.097801 
L 184.178909 175.274935 
L 182.380607 174.681919 
L 181.052553 174.022856 
L 180.034283 173.277087 
L 179.055377 172.30399 
L 178.38992 171.310815 
L 177.901558 170.136911 
L 177.519221 168.580667 
L 177.293517 166.69836 
L 177.320461 165.256032 
L 177.557018 163.787918 
L 178.047962 162.273802 
L 178.78342 160.753727 
L 179.69619 159.323726 
L 180.954181 157.82873 
L 183.185925 155.62405 
L 186.217243 152.943953 
L 189.008365 150.770849 
L 192.233411 148.543447 
L 194.451775 147.337918 
L 200.318303 144.304939 
L 201.960363 143.202444 
L 203.370974 141.967731 
L 205.121348 140.12693 
L 206.557147 138.34284 
L 209.421086 134.222645 
L 209.869204 133.093739 
L 210.127548 131.850657 
L 210.130924 130.696443 
L 209.867741 129.356208 
L 209.360381 127.952112 
L 208.749327 126.934658 
L 207.94828 126.070563 
L 206.532183 124.893598 
L 205.067478 123.985928 
L 203.734731 123.433353 
L 199.693164 122.103246 
L 196.849721 121.426402 
L 193.593239 120.827436 
L 190.671565 120.518865 
L 183.733327 119.929074 
L 180.852148 119.361129 
L 175.945627 118.317017 
L 175.945627 118.317017 
" style="fill:none;stroke:#008000;stroke-linecap:square;stroke-width:1.5;"/>
   </g>
   <g id="line2d_34">
    <path clip-path="url(#p26155f31d7)" d="M 211.94344 197.72865 
L 213.871112 197.907417 
L 225.236835 199.046359 
L 228.977899 199.07121 
L 231.957227 198.844674 
L 234.522789 198.448655 
L 237.949576 197.666183 
L 240.302738 196.915369 
L 241.779565 196.174973 
L 242.682706 195.546865 
L 243.207058 194.911417 
L 243.408423 194.341339 
L 243.441168 193.537396 
L 243.264288 192.573394 
L 242.665627 190.815267 
L 242.053648 189.502366 
L 241.144832 188.156189 
L 239.428431 186.129861 
L 237.808187 184.47187 
L 236.129347 183.105911 
L 232.342339 180.374286 
L 230.084904 178.881179 
L 227.593428 177.576651 
L 222.759812 175.455953 
L 219.83761 174.391386 
L 215.7055 173.157375 
L 207.964158 171.078786 
L 204.441548 170.429055 
L 199.268486 169.732867 
L 194.85432 169.36242 
L 188.452715 168.794775 
L 185.361294 168.295312 
L 183.508968 167.760412 
L 182.317754 167.191666 
L 181.459265 166.519194 
L 180.784529 165.716189 
L 180.394494 164.927219 
L 180.242894 164.07799 
L 180.32343 163.298146 
L 180.620029 162.450668 
L 181.216915 161.396915 
L 182.186444 160.158224 
L 183.580375 158.733971 
L 189.967145 153.034463 
L 192.589099 150.940898 
L 196.043545 148.337288 
L 198.196726 146.984265 
L 201.96809 145.056239 
L 205.105418 143.713728 
L 207.914683 142.742717 
L 210.359059 141.780499 
L 211.493971 141.13118 
L 212.180375 140.541149 
L 212.461018 139.994639 
L 212.556866 139.31537 
L 212.446867 138.600579 
L 212.082651 137.746738 
L 211.174257 136.455167 
L 210.366678 135.599441 
L 208.981101 134.496869 
L 206.911015 132.870954 
L 204.817676 131.352696 
L 200.203594 128.339378 
L 198.236945 127.470116 
L 192.719245 125.446641 
L 187.925331 123.708379 
L 180.538563 120.535725 
L 178.341111 119.745297 
L 176.668893 119.043416 
L 176.026953 118.561596 
L 175.945627 118.317017 
L 175.945627 118.317017 
" style="fill:none;stroke:#008000;stroke-linecap:square;stroke-width:1.5;"/>
   </g>
  </g>
 </g>
 <defs>
  <clipPath id="p26155f31d7">
   <rect height="266.112" width="266.112" x="103.104" y="41.472"/>
  </clipPath>
 </defs>
</svg>
