<?xml version="1.0" encoding="utf-8" standalone="no"?>
<!DOCTYPE svg PUBLIC "-//W3C//DTD SVG 1.1//EN"
  "http://www.w3.org/Graphics/SVG/1.1/DTD/svg11.dtd">
<!-- Created with matplotlib (https://matplotlib.org/) -->
<svg height="288pt" version="1.1" viewBox="0 0 432 288" width="432pt" xmlns="http://www.w3.org/2000/svg" xmlns:xlink="http://www.w3.org/1999/xlink">
 <metadata>
  <rdf:RDF xmlns:cc="http://creativecommons.org/ns#" xmlns:dc="http://purl.org/dc/elements/1.1/" xmlns:rdf="http://www.w3.org/1999/02/22-rdf-syntax-ns#">
   <cc:Work>
    <dc:type rdf:resource="http://purl.org/dc/dcmitype/StillImage"/>
    <dc:date>2021-11-10T19:09:14.637429</dc:date>
    <dc:format>image/svg+xml</dc:format>
    <dc:creator>
     <cc:Agent>
      <dc:title>Matplotlib v3.3.4, https://matplotlib.org/</dc:title>
     </cc:Agent>
    </dc:creator>
   </cc:Work>
  </rdf:RDF>
 </metadata>
 <defs>
  <style type="text/css">*{stroke-linecap:butt;stroke-linejoin:round;}</style>
 </defs>
 <g id="figure_1">
  <g id="patch_1">
   <path d="M 0 288 
L 432 288 
L 432 0 
L 0 0 
z
" style="fill:none;"/>
  </g>
  <g id="patch_2">
   <path d="M 112.68 252 
L 330.12 252 
L 330.12 34.56 
L 112.68 34.56 
z
" style="fill:#ffffff;"/>
  </g>
  <g id="pane3d_1">
   <g id="patch_3">
    <path d="M 129.09822 198.386264 
L 200.904009 138.197228 
L 199.90584 51.393878 
L 124.663773 106.302111 
" style="fill:#f2f2f2;opacity:0.5;stroke:#f2f2f2;stroke-linejoin:miter;"/>
   </g>
  </g>
  <g id="pane3d_2">
   <g id="patch_4">
    <path d="M 200.904009 138.197228 
L 316.12668 171.68791 
L 320.238571 81.894718 
L 199.90584 51.393878 
" style="fill:#e6e6e6;opacity:0.5;stroke:#e6e6e6;stroke-linejoin:miter;"/>
   </g>
  </g>
  <g id="pane3d_3">
   <g id="patch_5">
    <path d="M 129.09822 198.386264 
L 251.239879 238.27773 
L 316.12668 171.68791 
L 200.904009 138.197228 
" style="fill:#ececec;opacity:0.5;stroke:#ececec;stroke-linejoin:miter;"/>
   </g>
  </g>
  <g id="axis3d_1">
   <g id="line2d_1">
    <path d="M 129.09822 198.386264 
L 251.239879 238.27773 
" style="fill:none;stroke:#000000;stroke-linecap:square;stroke-width:0.8;"/>
   </g>
   <g id="Line3DCollection_1">
    <path d="M 144.943527 203.561342 
L 215.909251 142.558659 
L 215.547804 55.35866 
" style="fill:none;stroke:#b0b0b0;stroke-width:0.8;"/>
    <path d="M 162.690485 209.357498 
L 232.694896 147.437584 
L 233.055908 59.796454 
" style="fill:none;stroke:#b0b0b0;stroke-width:0.8;"/>
    <path d="M 180.71696 215.244945 
L 249.722864 152.386942 
L 250.827765 64.301102 
" style="fill:none;stroke:#b0b0b0;stroke-width:0.8;"/>
    <path d="M 199.029608 221.225856 
L 266.998438 157.408269 
L 268.869379 68.874125 
" style="fill:none;stroke:#b0b0b0;stroke-width:0.8;"/>
    <path d="M 217.635298 227.302474 
L 284.527059 162.503147 
L 287.18694 73.517093 
" style="fill:none;stroke:#b0b0b0;stroke-width:0.8;"/>
    <path d="M 236.541122 233.477116 
L 302.314329 167.673204 
L 305.786827 78.231622 
" style="fill:none;stroke:#b0b0b0;stroke-width:0.8;"/>
   </g>
   <g id="xtick_1">
    <g id="line2d_2">
     <path d="M 145.56168 203.029973 
L 143.704559 204.626369 
" style="fill:none;stroke:#000000;stroke-linecap:square;stroke-width:0.8;"/>
    </g>
    <g id="text_1">
     <!-- 1.50 -->
     <g transform="translate(126.285744 226.955152)scale(0.1 -0.1)">
      <defs>
       <path d="M 12.40625 8.296875 
L 28.515625 8.296875 
L 28.515625 63.921875 
L 10.984375 60.40625 
L 10.984375 69.390625 
L 28.421875 72.90625 
L 38.28125 72.90625 
L 38.28125 8.296875 
L 54.390625 8.296875 
L 54.390625 0 
L 12.40625 0 
z
" id="DejaVuSans-49"/>
       <path d="M 10.6875 12.40625 
L 21 12.40625 
L 21 0 
L 10.6875 0 
z
" id="DejaVuSans-46"/>
       <path d="M 10.796875 72.90625 
L 49.515625 72.90625 
L 49.515625 64.59375 
L 19.828125 64.59375 
L 19.828125 46.734375 
Q 21.96875 47.46875 24.109375 47.828125 
Q 26.265625 48.1875 28.421875 48.1875 
Q 40.625 48.1875 47.75 41.5 
Q 54.890625 34.8125 54.890625 23.390625 
Q 54.890625 11.625 47.5625 5.09375 
Q 40.234375 -1.421875 26.90625 -1.421875 
Q 22.3125 -1.421875 17.546875 -0.640625 
Q 12.796875 0.140625 7.71875 1.703125 
L 7.71875 11.625 
Q 12.109375 9.234375 16.796875 8.0625 
Q 21.484375 6.890625 26.703125 6.890625 
Q 35.15625 6.890625 40.078125 11.328125 
Q 45.015625 15.765625 45.015625 23.390625 
Q 45.015625 31 40.078125 35.4375 
Q 35.15625 39.890625 26.703125 39.890625 
Q 22.75 39.890625 18.8125 39.015625 
Q 14.890625 38.140625 10.796875 36.28125 
z
" id="DejaVuSans-53"/>
       <path d="M 31.78125 66.40625 
Q 24.171875 66.40625 20.328125 58.90625 
Q 16.5 51.421875 16.5 36.375 
Q 16.5 21.390625 20.328125 13.890625 
Q 24.171875 6.390625 31.78125 6.390625 
Q 39.453125 6.390625 43.28125 13.890625 
Q 47.125 21.390625 47.125 36.375 
Q 47.125 51.421875 43.28125 58.90625 
Q 39.453125 66.40625 31.78125 66.40625 
z
M 31.78125 74.21875 
Q 44.046875 74.21875 50.515625 64.515625 
Q 56.984375 54.828125 56.984375 36.375 
Q 56.984375 17.96875 50.515625 8.265625 
Q 44.046875 -1.421875 31.78125 -1.421875 
Q 19.53125 -1.421875 13.0625 8.265625 
Q 6.59375 17.96875 6.59375 36.375 
Q 6.59375 54.828125 13.0625 64.515625 
Q 19.53125 74.21875 31.78125 74.21875 
z
" id="DejaVuSans-48"/>
      </defs>
      <use xlink:href="#DejaVuSans-49"/>
      <use x="63.623047" xlink:href="#DejaVuSans-46"/>
      <use x="95.410156" xlink:href="#DejaVuSans-53"/>
      <use x="159.033203" xlink:href="#DejaVuSans-48"/>
     </g>
    </g>
   </g>
   <g id="xtick_2">
    <g id="line2d_3">
     <path d="M 163.300653 208.817796 
L 161.467501 210.439245 
" style="fill:none;stroke:#000000;stroke-linecap:square;stroke-width:0.8;"/>
    </g>
    <g id="text_2">
     <!-- 1.52 -->
     <g transform="translate(144.055378 232.901993)scale(0.1 -0.1)">
      <defs>
       <path d="M 19.1875 8.296875 
L 53.609375 8.296875 
L 53.609375 0 
L 7.328125 0 
L 7.328125 8.296875 
Q 12.9375 14.109375 22.625 23.890625 
Q 32.328125 33.6875 34.8125 36.53125 
Q 39.546875 41.84375 41.421875 45.53125 
Q 43.3125 49.21875 43.3125 52.78125 
Q 43.3125 58.59375 39.234375 62.25 
Q 35.15625 65.921875 28.609375 65.921875 
Q 23.96875 65.921875 18.8125 64.3125 
Q 13.671875 62.703125 7.8125 59.421875 
L 7.8125 69.390625 
Q 13.765625 71.78125 18.9375 73 
Q 24.125 74.21875 28.421875 74.21875 
Q 39.75 74.21875 46.484375 68.546875 
Q 53.21875 62.890625 53.21875 53.421875 
Q 53.21875 48.921875 51.53125 44.890625 
Q 49.859375 40.875 45.40625 35.40625 
Q 44.1875 33.984375 37.640625 27.21875 
Q 31.109375 20.453125 19.1875 8.296875 
z
" id="DejaVuSans-50"/>
      </defs>
      <use xlink:href="#DejaVuSans-49"/>
      <use x="63.623047" xlink:href="#DejaVuSans-46"/>
      <use x="95.410156" xlink:href="#DejaVuSans-53"/>
      <use x="159.033203" xlink:href="#DejaVuSans-50"/>
     </g>
    </g>
   </g>
   <g id="xtick_3">
    <g id="line2d_4">
     <path d="M 181.318813 214.696712 
L 179.510619 216.343809 
" style="fill:none;stroke:#000000;stroke-linecap:square;stroke-width:0.8;"/>
    </g>
    <g id="text_3">
     <!-- 1.54 -->
     <g transform="translate(162.106185 238.942931)scale(0.1 -0.1)">
      <defs>
       <path d="M 37.796875 64.3125 
L 12.890625 25.390625 
L 37.796875 25.390625 
z
M 35.203125 72.90625 
L 47.609375 72.90625 
L 47.609375 25.390625 
L 58.015625 25.390625 
L 58.015625 17.1875 
L 47.609375 17.1875 
L 47.609375 0 
L 37.796875 0 
L 37.796875 17.1875 
L 4.890625 17.1875 
L 4.890625 26.703125 
z
" id="DejaVuSans-52"/>
      </defs>
      <use xlink:href="#DejaVuSans-49"/>
      <use x="63.623047" xlink:href="#DejaVuSans-46"/>
      <use x="95.410156" xlink:href="#DejaVuSans-53"/>
      <use x="159.033203" xlink:href="#DejaVuSans-52"/>
     </g>
    </g>
   </g>
   <g id="xtick_4">
    <g id="line2d_5">
     <path d="M 199.622805 220.668888 
L 197.840597 222.342247 
" style="fill:none;stroke:#000000;stroke-linecap:square;stroke-width:0.8;"/>
    </g>
    <g id="text_4">
     <!-- 1.56 -->
     <g transform="translate(180.444893 245.080219)scale(0.1 -0.1)">
      <defs>
       <path d="M 33.015625 40.375 
Q 26.375 40.375 22.484375 35.828125 
Q 18.609375 31.296875 18.609375 23.390625 
Q 18.609375 15.53125 22.484375 10.953125 
Q 26.375 6.390625 33.015625 6.390625 
Q 39.65625 6.390625 43.53125 10.953125 
Q 47.40625 15.53125 47.40625 23.390625 
Q 47.40625 31.296875 43.53125 35.828125 
Q 39.65625 40.375 33.015625 40.375 
z
M 52.59375 71.296875 
L 52.59375 62.3125 
Q 48.875 64.0625 45.09375 64.984375 
Q 41.3125 65.921875 37.59375 65.921875 
Q 27.828125 65.921875 22.671875 59.328125 
Q 17.53125 52.734375 16.796875 39.40625 
Q 19.671875 43.65625 24.015625 45.921875 
Q 28.375 48.1875 33.59375 48.1875 
Q 44.578125 48.1875 50.953125 41.515625 
Q 57.328125 34.859375 57.328125 23.390625 
Q 57.328125 12.15625 50.6875 5.359375 
Q 44.046875 -1.421875 33.015625 -1.421875 
Q 20.359375 -1.421875 13.671875 8.265625 
Q 6.984375 17.96875 6.984375 36.375 
Q 6.984375 53.65625 15.1875 63.9375 
Q 23.390625 74.21875 37.203125 74.21875 
Q 40.921875 74.21875 44.703125 73.484375 
Q 48.484375 72.75 52.59375 71.296875 
z
" id="DejaVuSans-54"/>
      </defs>
      <use xlink:href="#DejaVuSans-49"/>
      <use x="63.623047" xlink:href="#DejaVuSans-46"/>
      <use x="95.410156" xlink:href="#DejaVuSans-53"/>
      <use x="159.033203" xlink:href="#DejaVuSans-54"/>
     </g>
    </g>
   </g>
   <g id="xtick_5">
    <g id="line2d_6">
     <path d="M 218.219485 226.736562 
L 216.464328 228.436815 
" style="fill:none;stroke:#000000;stroke-linecap:square;stroke-width:0.8;"/>
    </g>
    <g id="text_5">
     <!-- 1.58 -->
     <g transform="translate(199.078445 251.316181)scale(0.1 -0.1)">
      <defs>
       <path d="M 31.78125 34.625 
Q 24.75 34.625 20.71875 30.859375 
Q 16.703125 27.09375 16.703125 20.515625 
Q 16.703125 13.921875 20.71875 10.15625 
Q 24.75 6.390625 31.78125 6.390625 
Q 38.8125 6.390625 42.859375 10.171875 
Q 46.921875 13.96875 46.921875 20.515625 
Q 46.921875 27.09375 42.890625 30.859375 
Q 38.875 34.625 31.78125 34.625 
z
M 21.921875 38.8125 
Q 15.578125 40.375 12.03125 44.71875 
Q 8.5 49.078125 8.5 55.328125 
Q 8.5 64.0625 14.71875 69.140625 
Q 20.953125 74.21875 31.78125 74.21875 
Q 42.671875 74.21875 48.875 69.140625 
Q 55.078125 64.0625 55.078125 55.328125 
Q 55.078125 49.078125 51.53125 44.71875 
Q 48 40.375 41.703125 38.8125 
Q 48.828125 37.15625 52.796875 32.3125 
Q 56.78125 27.484375 56.78125 20.515625 
Q 56.78125 9.90625 50.3125 4.234375 
Q 43.84375 -1.421875 31.78125 -1.421875 
Q 19.734375 -1.421875 13.25 4.234375 
Q 6.78125 9.90625 6.78125 20.515625 
Q 6.78125 27.484375 10.78125 32.3125 
Q 14.796875 37.15625 21.921875 38.8125 
z
M 18.3125 54.390625 
Q 18.3125 48.734375 21.84375 45.5625 
Q 25.390625 42.390625 31.78125 42.390625 
Q 38.140625 42.390625 41.71875 45.5625 
Q 45.3125 48.734375 45.3125 54.390625 
Q 45.3125 60.0625 41.71875 63.234375 
Q 38.140625 66.40625 31.78125 66.40625 
Q 25.390625 66.40625 21.84375 63.234375 
Q 18.3125 60.0625 18.3125 54.390625 
z
" id="DejaVuSans-56"/>
      </defs>
      <use xlink:href="#DejaVuSans-49"/>
      <use x="63.623047" xlink:href="#DejaVuSans-46"/>
      <use x="95.410156" xlink:href="#DejaVuSans-53"/>
      <use x="159.033203" xlink:href="#DejaVuSans-56"/>
     </g>
    </g>
   </g>
   <g id="xtick_6">
    <g id="line2d_7">
     <path d="M 237.115928 232.902041 
L 235.388933 234.629843 
" style="fill:none;stroke:#000000;stroke-linecap:square;stroke-width:0.8;"/>
    </g>
    <g id="text_6">
     <!-- 1.60 -->
     <g transform="translate(218.014009 257.653215)scale(0.1 -0.1)">
      <use xlink:href="#DejaVuSans-49"/>
      <use x="63.623047" xlink:href="#DejaVuSans-46"/>
      <use x="95.410156" xlink:href="#DejaVuSans-54"/>
      <use x="159.033203" xlink:href="#DejaVuSans-48"/>
     </g>
    </g>
   </g>
  </g>
  <g id="axis3d_2">
   <g id="line2d_8">
    <path d="M 316.12668 171.68791 
L 251.239879 238.27773 
" style="fill:none;stroke:#000000;stroke-linecap:square;stroke-width:0.8;"/>
   </g>
   <g id="Line3DCollection_2">
    <path d="M 137.615456 96.850563 
L 141.419597 188.058241 
L 262.414787 226.809525 
" style="fill:none;stroke:#b0b0b0;stroke-width:0.8;"/>
    <path d="M 151.584163 86.656836 
L 154.726549 176.90409 
L 274.464536 214.443518 
" style="fill:none;stroke:#b0b0b0;stroke-width:0.8;"/>
    <path d="M 165.111542 76.785172 
L 167.630964 166.087354 
L 286.130949 202.470909 
" style="fill:none;stroke:#b0b0b0;stroke-width:0.8;"/>
    <path d="M 178.21818 67.220544 
L 180.150834 155.592951 
L 297.432031 190.873219 
" style="fill:none;stroke:#b0b0b0;stroke-width:0.8;"/>
    <path d="M 190.923408 57.948847 
L 192.303096 145.406684 
L 308.384679 179.633108 
" style="fill:none;stroke:#b0b0b0;stroke-width:0.8;"/>
   </g>
   <g id="xtick_7">
    <g id="line2d_9">
     <path d="M 261.395616 226.483114 
L 264.455742 227.463184 
" style="fill:none;stroke:#000000;stroke-linecap:square;stroke-width:0.8;"/>
    </g>
    <g id="text_7">
     <!-- −0.2 -->
     <g transform="translate(263.046018 247.708664)scale(0.1 -0.1)">
      <defs>
       <path d="M 10.59375 35.5 
L 73.1875 35.5 
L 73.1875 27.203125 
L 10.59375 27.203125 
z
" id="DejaVuSans-8722"/>
      </defs>
      <use xlink:href="#DejaVuSans-8722"/>
      <use x="83.789062" xlink:href="#DejaVuSans-48"/>
      <use x="147.412109" xlink:href="#DejaVuSans-46"/>
      <use x="179.199219" xlink:href="#DejaVuSans-50"/>
     </g>
    </g>
   </g>
   <g id="xtick_8">
    <g id="line2d_10">
     <path d="M 273.456774 214.127572 
L 276.482602 215.076209 
" style="fill:none;stroke:#000000;stroke-linecap:square;stroke-width:0.8;"/>
    </g>
    <g id="text_8">
     <!-- −0.1 -->
     <g transform="translate(274.89778 235.11868)scale(0.1 -0.1)">
      <use xlink:href="#DejaVuSans-8722"/>
      <use x="83.789062" xlink:href="#DejaVuSans-48"/>
      <use x="147.412109" xlink:href="#DejaVuSans-46"/>
      <use x="179.199219" xlink:href="#DejaVuSans-49"/>
     </g>
    </g>
   </g>
   <g id="xtick_9">
    <g id="line2d_11">
     <path d="M 285.13439 202.164932 
L 288.126539 203.083624 
" style="fill:none;stroke:#000000;stroke-linecap:square;stroke-width:0.8;"/>
    </g>
    <g id="text_9">
     <!-- 0.0 -->
     <g transform="translate(290.562082 222.929502)scale(0.1 -0.1)">
      <use xlink:href="#DejaVuSans-48"/>
      <use x="63.623047" xlink:href="#DejaVuSans-46"/>
      <use x="95.410156" xlink:href="#DejaVuSans-48"/>
     </g>
    </g>
   </g>
   <g id="xtick_10">
    <g id="line2d_12">
     <path d="M 296.446474 190.576746 
L 299.405551 191.466889 
" style="fill:none;stroke:#000000;stroke-linecap:square;stroke-width:0.8;"/>
    </g>
    <g id="text_10">
     <!-- 0.1 -->
     <g transform="translate(301.676973 211.122287)scale(0.1 -0.1)">
      <use xlink:href="#DejaVuSans-48"/>
      <use x="63.623047" xlink:href="#DejaVuSans-46"/>
      <use x="95.410156" xlink:href="#DejaVuSans-49"/>
     </g>
    </g>
   </g>
   <g id="xtick_11">
    <g id="line2d_13">
     <path d="M 307.409924 179.345703 
L 310.336532 180.208607 
" style="fill:none;stroke:#000000;stroke-linecap:square;stroke-width:0.8;"/>
    </g>
    <g id="text_11">
     <!-- 0.2 -->
     <g transform="translate(312.448937 199.679361)scale(0.1 -0.1)">
      <use xlink:href="#DejaVuSans-48"/>
      <use x="63.623047" xlink:href="#DejaVuSans-46"/>
      <use x="95.410156" xlink:href="#DejaVuSans-50"/>
     </g>
    </g>
   </g>
  </g>
  <g id="axis3d_3">
   <g id="line2d_14">
    <path d="M 316.12668 171.68791 
L 320.238571 81.894718 
" style="fill:none;stroke:#000000;stroke-linecap:square;stroke-width:0.8;"/>
   </g>
   <g id="Line3DCollection_3">
    <path d="M 316.27022 168.553362 
L 200.869093 135.160872 
L 128.943671 195.176969 
" style="fill:none;stroke:#b0b0b0;stroke-width:0.8;"/>
    <path d="M 317.337668 145.243033 
L 200.609601 112.594796 
L 127.793789 171.298928 
" style="fill:none;stroke:#b0b0b0;stroke-width:0.8;"/>
    <path d="M 318.430196 121.385019 
L 200.344307 89.52413 
L 126.615848 146.838215 
" style="fill:none;stroke:#b0b0b0;stroke-width:0.8;"/>
    <path d="M 319.548698 96.959788 
L 200.073014 65.931758 
L 125.408808 121.773238 
" style="fill:none;stroke:#b0b0b0;stroke-width:0.8;"/>
   </g>
   <g id="xtick_12">
    <g id="line2d_15">
     <path d="M 315.301616 168.273087 
L 318.209736 169.114581 
" style="fill:none;stroke:#000000;stroke-linecap:square;stroke-width:0.8;"/>
    </g>
    <g id="text_12">
     <!-- 0.0 -->
     <g transform="translate(326.582945 173.556005)scale(0.1 -0.1)">
      <use xlink:href="#DejaVuSans-48"/>
      <use x="63.623047" xlink:href="#DejaVuSans-46"/>
      <use x="95.410156" xlink:href="#DejaVuSans-48"/>
     </g>
    </g>
   </g>
   <g id="xtick_13">
    <g id="line2d_16">
     <path d="M 316.357393 144.968855 
L 319.300579 145.792049 
" style="fill:none;stroke:#000000;stroke-linecap:square;stroke-width:0.8;"/>
    </g>
    <g id="text_13">
     <!-- 0.2 -->
     <g transform="translate(327.857711 150.302248)scale(0.1 -0.1)">
      <use xlink:href="#DejaVuSans-48"/>
      <use x="63.623047" xlink:href="#DejaVuSans-46"/>
      <use x="95.410156" xlink:href="#DejaVuSans-50"/>
     </g>
    </g>
   </g>
   <g id="xtick_14">
    <g id="line2d_17">
     <path d="M 317.437966 121.117304 
L 320.417073 121.921101 
" style="fill:none;stroke:#000000;stroke-linecap:square;stroke-width:0.8;"/>
    </g>
    <g id="text_14">
     <!-- 0.4 -->
     <g transform="translate(329.162315 126.504187)scale(0.1 -0.1)">
      <use xlink:href="#DejaVuSans-48"/>
      <use x="63.623047" xlink:href="#DejaVuSans-46"/>
      <use x="95.410156" xlink:href="#DejaVuSans-52"/>
     </g>
    </g>
   </g>
   <g id="xtick_15">
    <g id="line2d_18">
     <path d="M 318.544219 96.698923 
L 321.560134 97.482161 
" style="fill:none;stroke:#000000;stroke-linecap:square;stroke-width:0.8;"/>
    </g>
    <g id="text_15">
     <!-- 0.6 -->
     <g transform="translate(330.497819 102.142487)scale(0.1 -0.1)">
      <use xlink:href="#DejaVuSans-48"/>
      <use x="63.623047" xlink:href="#DejaVuSans-46"/>
      <use x="95.410156" xlink:href="#DejaVuSans-54"/>
     </g>
    </g>
   </g>
  </g>
  <g id="axes_1">
   <g id="line2d_19">
    <path clip-path="url(#pd13c632edc)" d="M 168.175914 167.261456 
L 168.647908 168.29313 
L 168.857218 169.55611 
L 169.083842 169.940138 
L 169.51812 170.246767 
L 170.207806 170.426999 
L 170.988476 170.517967 
L 171.895912 170.34885 
L 172.618206 170.080432 
L 173.95472 169.291366 
L 175.441232 168.226943 
L 178.665086 165.459643 
L 182.101837 163.220487 
L 183.174726 162.711591 
L 186.416809 161.700564 
L 190.044453 160.885372 
L 192.471099 160.562586 
L 194.111446 160.526611 
L 198.384634 160.787268 
L 202.994936 161.485404 
L 206.000483 162.283722 
L 208.278736 162.849605 
L 210.465175 163.42432 
L 216.104733 164.981836 
L 219.694728 165.730125 
L 222.001195 165.990819 
L 224.329296 166.098853 
L 226.010209 165.974486 
L 228.64997 165.413179 
L 229.71248 164.964097 
L 231.686165 163.967001 
L 232.377081 163.296466 
L 233.62139 161.782207 
L 234.597765 159.996298 
L 235.68994 158.813192 
L 236.669377 158.170964 
L 236.716965 157.709211 
L 236.802986 157.352418 
L 236.996094 157.341405 
L 238.039117 157.537147 
L 238.573249 157.944603 
L 240.050738 159.124999 
L 241.876554 160.330174 
L 244.175949 161.537979 
L 245.948621 162.244741 
L 248.103919 162.849261 
L 251.570359 163.806355 
L 258.660782 165.068197 
L 260.769762 166.235521 
L 261.623779 166.860272 
L 261.300705 166.709491 
L 260.868909 166.352763 
L 260.487897 165.710172 
L 260.382292 164.84423 
L 260.535062 164.735171 
L 260.568248 164.765328 
L 261.215755 165.64931 
L 261.586746 166.254842 
L 262.057778 166.748853 
L 265.262205 169.035973 
L 266.734008 169.944483 
L 266.299287 169.780781 
L 266.158004 169.875407 
L 265.755588 170.166902 
L 265.292019 170.130581 
L 265.294844 170.178671 
L 265.351407 170.46622 
L 265.368986 170.671342 
L 265.244833 170.604284 
L 264.93635 170.620272 
L 265.235198 170.493382 
L 265.24586 170.324183 
L 264.986506 170.276543 
L 264.986828 170.276886 
L 265.01635 170.387336 
L 264.964204 170.510345 
L 264.938865 170.525625 
L 264.863829 170.469376 
L 264.795646 170.20403 
L 264.727428 170.116908 
L 264.538296 169.863333 
L 264.621643 169.67603 
L 265.05347 169.143311 
L 265.108341 169.186452 
L 266.734529 170.685558 
L 267.053794 170.778807 
L 267.309552 170.30679 
L 267.353967 170.400965 
L 267.598391 170.866387 
L 267.557072 170.855307 
" style="fill:none;stroke:#1f77b4;stroke-linecap:square;stroke-width:1.5;"/>
   </g>
   <g id="line2d_20">
    <path clip-path="url(#pd13c632edc)" d="M 179.911756 157.47395 
L 178.267643 158.383323 
L 176.540837 159.680972 
L 175.697456 160.548878 
L 175.125099 161.434827 
L 174.751637 162.447676 
L 174.373145 164.338304 
L 174.215417 166.212388 
L 174.372236 167.820127 
L 174.764254 168.598994 
L 175.027488 168.78688 
L 175.342401 168.813749 
L 176.414559 168.603866 
L 177.327666 168.108496 
L 180.054215 166.51111 
L 182.705559 164.668948 
L 183.50297 163.966462 
L 184.93975 162.308893 
L 185.00286 161.751043 
L 184.846423 161.591759 
L 184.404478 161.596291 
L 184.040006 161.841343 
L 183.984214 161.88279 
L 184.12023 161.912255 
L 184.410901 161.888621 
L 184.868167 161.705021 
L 187.766185 160.63413 
L 189.151304 159.853499 
L 190.643591 158.874271 
L 192.854269 157.138137 
L 193.831591 155.922355 
L 194.946195 153.532591 
L 195.690447 151.175084 
L 196.086245 149.89404 
L 196.560555 148.147074 
L 196.751231 147.156926 
L 197.211802 145.108714 
L 197.471115 144.575188 
L 197.696134 143.597412 
L 198.008492 139.62187 
L 197.727445 138.219795 
L 196.322476 135.121467 
L 196.304745 134.271228 
L 196.65857 133.429717 
L 197.21546 133.000955 
L 198.038091 132.687091 
L 198.746174 132.609941 
L 199.556036 132.697699 
L 204.745034 133.613058 
L 208.118578 134.529869 
L 210.931779 135.452959 
L 219.628477 138.553821 
L 223.007353 139.355415 
L 224.878906 139.576905 
L 226.51203 139.552232 
L 227.892644 139.405055 
L 228.567408 139.542505 
L 231.077486 140.470513 
L 232.580753 141.14138 
L 235.383703 142.742097 
L 237.298767 144.017434 
L 239.29823 145.228031 
L 241.70912 146.337573 
L 243.321511 146.61591 
L 244.258928 146.887698 
L 247.222518 148.157161 
L 248.555519 149.1297 
L 250.108602 150.362056 
L 250.881501 151.006571 
L 250.9127 151.272688 
L 251.018063 151.451301 
L 251.023472 151.451 
L 251.786701 151.616755 
L 252.17506 151.877587 
L 252.69025 152.226353 
L 255.479127 153.952812 
L 256.760907 155.203856 
L 258.676274 156.433719 
L 261.111489 157.770932 
L 261.110218 157.740242 
L 260.940486 157.586224 
L 260.196979 157.331403 
L 260.050341 157.480917 
L 260.103338 157.736568 
L 261.007161 158.30625 
L 261.717444 158.855216 
L 261.852857 159.014598 
L 261.709417 158.991303 
L 261.056543 158.720587 
L 261.002682 158.669223 
L 261.939026 159.36404 
L 262.954515 159.948104 
L 263.507187 160.320031 
L 263.553788 160.331027 
L 263.560143 160.222617 
L 263.668976 159.933915 
L 263.733037 159.957072 
L 264.176442 160.339861 
L 264.962429 161.322287 
L 264.962429 161.322287 
" style="fill:none;stroke:#ff7f0e;stroke-linecap:square;stroke-width:1.5;"/>
   </g>
   <g id="line2d_21">
    <path clip-path="url(#pd13c632edc)" d="M 160.150195 94.196722 
L 163.963231 96.761871 
L 171.734302 102.504138 
L 174.952359 105.110333 
L 176.001646 106.100009 
L 177.249635 107.491725 
L 178.664743 109.588083 
L 179.268062 111.545355 
L 178.927134 113.752883 
L 178.816086 114.501265 
L 178.484749 115.547833 
L 178.481362 117.120707 
L 178.609694 117.727286 
L 178.66778 118.157011 
L 179.046904 118.884683 
L 179.282238 119.505541 
L 179.544833 119.985055 
L 180.637261 121.977106 
L 180.946282 122.969964 
L 181.023417 123.589685 
L 180.864855 123.957603 
L 180.810234 124.627949 
L 180.183827 125.229256 
L 180.019927 125.454878 
L 179.831783 125.725066 
L 179.94919 127.207725 
L 180.170059 127.94515 
L 180.463343 129.643294 
L 181.180479 130.918782 
L 182.053044 132.011554 
L 183.188662 132.936015 
L 184.707188 133.787625 
L 188.6296 135.601315 
L 190.139407 135.979732 
L 191.942377 136.285306 
L 213.668741 138.227208 
L 216.875972 138.728915 
L 219.911827 139.385351 
L 222.317447 140.1777 
L 224.084012 140.886811 
L 240.222531 147.630076 
L 243.496402 148.741658 
L 253.335394 151.204479 
L 259.648335 152.56468 
L 262.019804 153.459982 
L 267.022509 155.474708 
L 268.408715 155.691265 
L 271.495833 155.988736 
L 273.02192 156.059834 
L 275.34935 156.344479 
L 279.066336 156.739081 
L 281.43224 157.252274 
L 284.553788 158.201668 
L 285.143432 158.192636 
L 286.710209 157.958723 
L 287.332029 157.808856 
L 289.938754 157.481098 
L 290.59201 157.754543 
L 292.090677 158.473785 
L 295.064428 159.861476 
L 296.01765 160.575629 
L 297.864454 162.224212 
L 300.16483 164.436785 
L 300.308556 164.863999 
L 300.292412 165.295623 
L 300.391894 165.777296 
L 300.870554 166.68759 
L 301.157031 167.173233 
L 301.497989 167.754574 
L 301.254938 167.571934 
L 299.857234 166.826728 
L 299.252289 166.597942 
L 296.947992 165.710164 
L 296.960907 165.744803 
L 297.614675 166.379875 
L 298.024097 166.83347 
L 297.993191 166.846572 
L 297.563964 166.746422 
L 294.376874 165.575884 
L 292.407884 165.125539 
L 290.984505 165.19523 
L 290.411663 165.371788 
L 289.50506 165.778174 
L 286.902178 167.197487 
L 286.026345 167.354609 
L 285.054526 167.344821 
L 283.869914 167.08685 
L 282.630235 166.581249 
L 279.664092 165.039041 
L 275.178293 162.556035 
L 273.496589 161.686102 
L 272.254356 161.041984 
L 271.519173 160.848675 
L 270.672816 160.962099 
L 270.503475 161.061011 
L 270.234755 160.981325 
L 270.195711 160.948741 
L 270.294236 161.148582 
L 270.17701 161.113 
L 269.900473 160.995019 
L 269.900473 160.995019 
" style="fill:none;stroke:#2ca02c;stroke-linecap:square;stroke-width:1.5;"/>
   </g>
   <g id="legend_1">
    <g id="patch_6">
     <path d="M 284.7575 86.594375 
L 323.12 86.594375 
Q 325.12 86.594375 325.12 84.594375 
L 325.12 41.56 
Q 325.12 39.56 323.12 39.56 
L 284.7575 39.56 
Q 282.7575 39.56 282.7575 41.56 
L 282.7575 84.594375 
Q 282.7575 86.594375 284.7575 86.594375 
z
" style="fill:#ffffff;opacity:0.8;stroke:#cccccc;stroke-linejoin:miter;"/>
    </g>
    <g id="line2d_22">
     <path d="M 286.7575 47.658438 
L 306.7575 47.658438 
" style="fill:none;stroke:#1f77b4;stroke-linecap:square;stroke-width:1.5;"/>
    </g>
    <g id="line2d_23"/>
    <g id="text_16">
     <!-- 0 -->
     <g transform="translate(314.7575 51.158438)scale(0.1 -0.1)">
      <use xlink:href="#DejaVuSans-48"/>
     </g>
    </g>
    <g id="line2d_24">
     <path d="M 286.7575 62.336563 
L 306.7575 62.336563 
" style="fill:none;stroke:#ff7f0e;stroke-linecap:square;stroke-width:1.5;"/>
    </g>
    <g id="line2d_25"/>
    <g id="text_17">
     <!-- 1 -->
     <g transform="translate(314.7575 65.836563)scale(0.1 -0.1)">
      <use xlink:href="#DejaVuSans-49"/>
     </g>
    </g>
    <g id="line2d_26">
     <path d="M 286.7575 77.014688 
L 306.7575 77.014688 
" style="fill:none;stroke:#2ca02c;stroke-linecap:square;stroke-width:1.5;"/>
    </g>
    <g id="line2d_27"/>
    <g id="text_18">
     <!-- 2 -->
     <g transform="translate(314.7575 80.514688)scale(0.1 -0.1)">
      <use xlink:href="#DejaVuSans-50"/>
     </g>
    </g>
   </g>
  </g>
 </g>
 <defs>
  <clipPath id="pd13c632edc">
   <rect height="217.44" width="217.44" x="112.68" y="34.56"/>
  </clipPath>
 </defs>
</svg>
