<?xml version="1.0" encoding="utf-8" standalone="no"?>
<!DOCTYPE svg PUBLIC "-//W3C//DTD SVG 1.1//EN"
  "http://www.w3.org/Graphics/SVG/1.1/DTD/svg11.dtd">
<!-- Created with matplotlib (https://matplotlib.org/) -->
<svg height="288pt" version="1.1" viewBox="0 0 432 288" width="432pt" xmlns="http://www.w3.org/2000/svg" xmlns:xlink="http://www.w3.org/1999/xlink">
 <metadata>
  <rdf:RDF xmlns:cc="http://creativecommons.org/ns#" xmlns:dc="http://purl.org/dc/elements/1.1/" xmlns:rdf="http://www.w3.org/1999/02/22-rdf-syntax-ns#">
   <cc:Work>
    <dc:type rdf:resource="http://purl.org/dc/dcmitype/StillImage"/>
    <dc:date>2021-11-10T17:42:11.540905</dc:date>
    <dc:format>image/svg+xml</dc:format>
    <dc:creator>
     <cc:Agent>
      <dc:title>Matplotlib v3.3.4, https://matplotlib.org/</dc:title>
     </cc:Agent>
    </dc:creator>
   </cc:Work>
  </rdf:RDF>
 </metadata>
 <defs>
  <style type="text/css">*{stroke-linecap:butt;stroke-linejoin:round;}</style>
 </defs>
 <g id="figure_1">
  <g id="patch_1">
   <path d="M 0 288 
L 432 288 
L 432 0 
L 0 0 
z
" style="fill:none;"/>
  </g>
  <g id="patch_2">
   <path d="M 112.68 252 
L 330.12 252 
L 330.12 34.56 
L 112.68 34.56 
z
" style="fill:#ffffff;"/>
  </g>
  <g id="pane3d_1">
   <g id="patch_3">
    <path d="M 129.09822 198.386264 
L 200.904009 138.197228 
L 199.90584 51.393878 
L 124.663773 106.302111 
" style="fill:#f2f2f2;opacity:0.5;stroke:#f2f2f2;stroke-linejoin:miter;"/>
   </g>
  </g>
  <g id="pane3d_2">
   <g id="patch_4">
    <path d="M 200.904009 138.197228 
L 316.12668 171.68791 
L 320.238571 81.894718 
L 199.90584 51.393878 
" style="fill:#e6e6e6;opacity:0.5;stroke:#e6e6e6;stroke-linejoin:miter;"/>
   </g>
  </g>
  <g id="pane3d_3">
   <g id="patch_5">
    <path d="M 129.09822 198.386264 
L 251.239879 238.27773 
L 316.12668 171.68791 
L 200.904009 138.197228 
" style="fill:#ececec;opacity:0.5;stroke:#ececec;stroke-linejoin:miter;"/>
   </g>
  </g>
  <g id="axis3d_1">
   <g id="line2d_1">
    <path d="M 129.09822 198.386264 
L 251.239879 238.27773 
" style="fill:none;stroke:#000000;stroke-linecap:square;stroke-width:0.8;"/>
   </g>
   <g id="Line3DCollection_1">
    <path d="M 143.160477 202.978998 
L 214.221591 142.068123 
L 213.788103 54.912627 
" style="fill:none;stroke:#b0b0b0;stroke-width:0.8;"/>
    <path d="M 160.646283 208.689862 
L 230.762523 146.875919 
L 231.039817 59.285434 
" style="fill:none;stroke:#b0b0b0;stroke-width:0.8;"/>
    <path d="M 178.403625 214.48941 
L 247.538909 151.752152 
L 248.547781 63.723192 
" style="fill:none;stroke:#b0b0b0;stroke-width:0.8;"/>
    <path d="M 196.438876 220.379723 
L 264.555812 156.698294 
L 266.317748 68.227361 
" style="fill:none;stroke:#b0b0b0;stroke-width:0.8;"/>
    <path d="M 214.758611 226.362948 
L 281.818441 161.715859 
L 284.355642 72.799441 
" style="fill:none;stroke:#b0b0b0;stroke-width:0.8;"/>
    <path d="M 233.369616 232.441302 
L 299.332159 166.806405 
L 302.667569 77.440981 
" style="fill:none;stroke:#b0b0b0;stroke-width:0.8;"/>
   </g>
   <g id="xtick_1">
    <g id="line2d_2">
     <path d="M 143.779421 202.448462 
L 141.919924 204.042352 
" style="fill:none;stroke:#000000;stroke-linecap:square;stroke-width:0.8;"/>
    </g>
    <g id="text_1">
     <!-- 1.500 -->
     <g transform="translate(121.319235 226.357692)scale(0.1 -0.1)">
      <defs>
       <path d="M 12.40625 8.296875 
L 28.515625 8.296875 
L 28.515625 63.921875 
L 10.984375 60.40625 
L 10.984375 69.390625 
L 28.421875 72.90625 
L 38.28125 72.90625 
L 38.28125 8.296875 
L 54.390625 8.296875 
L 54.390625 0 
L 12.40625 0 
z
" id="DejaVuSans-49"/>
       <path d="M 10.6875 12.40625 
L 21 12.40625 
L 21 0 
L 10.6875 0 
z
" id="DejaVuSans-46"/>
       <path d="M 10.796875 72.90625 
L 49.515625 72.90625 
L 49.515625 64.59375 
L 19.828125 64.59375 
L 19.828125 46.734375 
Q 21.96875 47.46875 24.109375 47.828125 
Q 26.265625 48.1875 28.421875 48.1875 
Q 40.625 48.1875 47.75 41.5 
Q 54.890625 34.8125 54.890625 23.390625 
Q 54.890625 11.625 47.5625 5.09375 
Q 40.234375 -1.421875 26.90625 -1.421875 
Q 22.3125 -1.421875 17.546875 -0.640625 
Q 12.796875 0.140625 7.71875 1.703125 
L 7.71875 11.625 
Q 12.109375 9.234375 16.796875 8.0625 
Q 21.484375 6.890625 26.703125 6.890625 
Q 35.15625 6.890625 40.078125 11.328125 
Q 45.015625 15.765625 45.015625 23.390625 
Q 45.015625 31 40.078125 35.4375 
Q 35.15625 39.890625 26.703125 39.890625 
Q 22.75 39.890625 18.8125 39.015625 
Q 14.890625 38.140625 10.796875 36.28125 
z
" id="DejaVuSans-53"/>
       <path d="M 31.78125 66.40625 
Q 24.171875 66.40625 20.328125 58.90625 
Q 16.5 51.421875 16.5 36.375 
Q 16.5 21.390625 20.328125 13.890625 
Q 24.171875 6.390625 31.78125 6.390625 
Q 39.453125 6.390625 43.28125 13.890625 
Q 47.125 21.390625 47.125 36.375 
Q 47.125 51.421875 43.28125 58.90625 
Q 39.453125 66.40625 31.78125 66.40625 
z
M 31.78125 74.21875 
Q 44.046875 74.21875 50.515625 64.515625 
Q 56.984375 54.828125 56.984375 36.375 
Q 56.984375 17.96875 50.515625 8.265625 
Q 44.046875 -1.421875 31.78125 -1.421875 
Q 19.53125 -1.421875 13.0625 8.265625 
Q 6.59375 17.96875 6.59375 36.375 
Q 6.59375 54.828125 13.0625 64.515625 
Q 19.53125 74.21875 31.78125 74.21875 
z
" id="DejaVuSans-48"/>
      </defs>
      <use xlink:href="#DejaVuSans-49"/>
      <use x="63.623047" xlink:href="#DejaVuSans-46"/>
      <use x="95.410156" xlink:href="#DejaVuSans-53"/>
      <use x="159.033203" xlink:href="#DejaVuSans-48"/>
      <use x="222.65625" xlink:href="#DejaVuSans-48"/>
     </g>
    </g>
   </g>
   <g id="xtick_2">
    <g id="line2d_3">
     <path d="M 161.257381 208.151123 
L 159.421438 209.769677 
" style="fill:none;stroke:#000000;stroke-linecap:square;stroke-width:0.8;"/>
    </g>
    <g id="text_2">
     <!-- 1.525 -->
     <g transform="translate(138.82725 232.216978)scale(0.1 -0.1)">
      <defs>
       <path d="M 19.1875 8.296875 
L 53.609375 8.296875 
L 53.609375 0 
L 7.328125 0 
L 7.328125 8.296875 
Q 12.9375 14.109375 22.625 23.890625 
Q 32.328125 33.6875 34.8125 36.53125 
Q 39.546875 41.84375 41.421875 45.53125 
Q 43.3125 49.21875 43.3125 52.78125 
Q 43.3125 58.59375 39.234375 62.25 
Q 35.15625 65.921875 28.609375 65.921875 
Q 23.96875 65.921875 18.8125 64.3125 
Q 13.671875 62.703125 7.8125 59.421875 
L 7.8125 69.390625 
Q 13.765625 71.78125 18.9375 73 
Q 24.125 74.21875 28.421875 74.21875 
Q 39.75 74.21875 46.484375 68.546875 
Q 53.21875 62.890625 53.21875 53.421875 
Q 53.21875 48.921875 51.53125 44.890625 
Q 49.859375 40.875 45.40625 35.40625 
Q 44.1875 33.984375 37.640625 27.21875 
Q 31.109375 20.453125 19.1875 8.296875 
z
" id="DejaVuSans-50"/>
      </defs>
      <use xlink:href="#DejaVuSans-49"/>
      <use x="63.623047" xlink:href="#DejaVuSans-46"/>
      <use x="95.410156" xlink:href="#DejaVuSans-53"/>
      <use x="159.033203" xlink:href="#DejaVuSans-50"/>
      <use x="222.65625" xlink:href="#DejaVuSans-53"/>
     </g>
    </g>
   </g>
   <g id="xtick_3">
    <g id="line2d_4">
     <path d="M 179.006557 213.942275 
L 177.195126 215.58607 
" style="fill:none;stroke:#000000;stroke-linecap:square;stroke-width:0.8;"/>
    </g>
    <g id="text_3">
     <!-- 1.550 -->
     <g transform="translate(156.608405 238.167674)scale(0.1 -0.1)">
      <use xlink:href="#DejaVuSans-49"/>
      <use x="63.623047" xlink:href="#DejaVuSans-46"/>
      <use x="95.410156" xlink:href="#DejaVuSans-53"/>
      <use x="159.033203" xlink:href="#DejaVuSans-53"/>
      <use x="222.65625" xlink:href="#DejaVuSans-48"/>
     </g>
    </g>
   </g>
   <g id="xtick_4">
    <g id="line2d_5">
     <path d="M 197.033311 219.823995 
L 195.247388 221.493626 
" style="fill:none;stroke:#000000;stroke-linecap:square;stroke-width:0.8;"/>
    </g>
    <g id="text_4">
     <!-- 1.575 -->
     <g transform="translate(174.669143 244.211936)scale(0.1 -0.1)">
      <defs>
       <path d="M 8.203125 72.90625 
L 55.078125 72.90625 
L 55.078125 68.703125 
L 28.609375 0 
L 18.3125 0 
L 43.21875 64.59375 
L 8.203125 64.59375 
z
" id="DejaVuSans-55"/>
      </defs>
      <use xlink:href="#DejaVuSans-49"/>
      <use x="63.623047" xlink:href="#DejaVuSans-46"/>
      <use x="95.410156" xlink:href="#DejaVuSans-53"/>
      <use x="159.033203" xlink:href="#DejaVuSans-55"/>
      <use x="222.65625" xlink:href="#DejaVuSans-53"/>
     </g>
    </g>
   </g>
   <g id="xtick_5">
    <g id="line2d_6">
     <path d="M 215.344205 225.798423 
L 213.584824 227.494504 
" style="fill:none;stroke:#000000;stroke-linecap:square;stroke-width:0.8;"/>
    </g>
    <g id="text_5">
     <!-- 1.600 -->
     <g transform="translate(193.016109 250.351988)scale(0.1 -0.1)">
      <defs>
       <path d="M 33.015625 40.375 
Q 26.375 40.375 22.484375 35.828125 
Q 18.609375 31.296875 18.609375 23.390625 
Q 18.609375 15.53125 22.484375 10.953125 
Q 26.375 6.390625 33.015625 6.390625 
Q 39.65625 6.390625 43.53125 10.953125 
Q 47.40625 15.53125 47.40625 23.390625 
Q 47.40625 31.296875 43.53125 35.828125 
Q 39.65625 40.375 33.015625 40.375 
z
M 52.59375 71.296875 
L 52.59375 62.3125 
Q 48.875 64.0625 45.09375 64.984375 
Q 41.3125 65.921875 37.59375 65.921875 
Q 27.828125 65.921875 22.671875 59.328125 
Q 17.53125 52.734375 16.796875 39.40625 
Q 19.671875 43.65625 24.015625 45.921875 
Q 28.375 48.1875 33.59375 48.1875 
Q 44.578125 48.1875 50.953125 41.515625 
Q 57.328125 34.859375 57.328125 23.390625 
Q 57.328125 12.15625 50.6875 5.359375 
Q 44.046875 -1.421875 33.015625 -1.421875 
Q 20.359375 -1.421875 13.671875 8.265625 
Q 6.984375 17.96875 6.984375 36.375 
Q 6.984375 53.65625 15.1875 63.9375 
Q 23.390625 74.21875 37.203125 74.21875 
Q 40.921875 74.21875 44.703125 73.484375 
Q 48.484375 72.75 52.59375 71.296875 
z
" id="DejaVuSans-54"/>
      </defs>
      <use xlink:href="#DejaVuSans-49"/>
      <use x="63.623047" xlink:href="#DejaVuSans-46"/>
      <use x="95.410156" xlink:href="#DejaVuSans-54"/>
      <use x="159.033203" xlink:href="#DejaVuSans-48"/>
      <use x="222.65625" xlink:href="#DejaVuSans-48"/>
     </g>
    </g>
   </g>
   <g id="xtick_6">
    <g id="line2d_7">
     <path d="M 233.946012 231.86777 
L 232.214245 233.590934 
" style="fill:none;stroke:#000000;stroke-linecap:square;stroke-width:0.8;"/>
    </g>
    <g id="text_6">
     <!-- 1.625 -->
     <g transform="translate(211.656164 256.590126)scale(0.1 -0.1)">
      <use xlink:href="#DejaVuSans-49"/>
      <use x="63.623047" xlink:href="#DejaVuSans-46"/>
      <use x="95.410156" xlink:href="#DejaVuSans-54"/>
      <use x="159.033203" xlink:href="#DejaVuSans-50"/>
      <use x="222.65625" xlink:href="#DejaVuSans-53"/>
     </g>
    </g>
   </g>
  </g>
  <g id="axis3d_2">
   <g id="line2d_8">
    <path d="M 316.12668 171.68791 
L 251.239879 238.27773 
" style="fill:none;stroke:#000000;stroke-linecap:square;stroke-width:0.8;"/>
   </g>
   <g id="Line3DCollection_2">
    <path d="M 130.850389 101.787401 
L 134.981752 193.454571 
L 256.578082 232.799421 
" style="fill:none;stroke:#b0b0b0;stroke-width:0.8;"/>
    <path d="M 150.895152 87.159645 
L 154.06974 177.454641 
L 273.870243 215.053409 
" style="fill:none;stroke:#b0b0b0;stroke-width:0.8;"/>
    <path d="M 170.044158 73.185573 
L 172.340808 162.139469 
L 290.384338 198.105885 
" style="fill:none;stroke:#b0b0b0;stroke-width:0.8;"/>
    <path d="M 188.356137 59.822325 
L 189.846301 147.466018 
L 306.171725 181.904142 
" style="fill:none;stroke:#b0b0b0;stroke-width:0.8;"/>
   </g>
   <g id="xtick_7">
    <g id="line2d_9">
     <path d="M 255.553444 232.46788 
L 258.630003 233.46336 
" style="fill:none;stroke:#000000;stroke-linecap:square;stroke-width:0.8;"/>
    </g>
    <g id="text_7">
     <!-- −0.4 -->
     <g transform="translate(257.305114 253.807157)scale(0.1 -0.1)">
      <defs>
       <path d="M 10.59375 35.5 
L 73.1875 35.5 
L 73.1875 27.203125 
L 10.59375 27.203125 
z
" id="DejaVuSans-8722"/>
       <path d="M 37.796875 64.3125 
L 12.890625 25.390625 
L 37.796875 25.390625 
z
M 35.203125 72.90625 
L 47.609375 72.90625 
L 47.609375 25.390625 
L 58.015625 25.390625 
L 58.015625 17.1875 
L 47.609375 17.1875 
L 47.609375 0 
L 37.796875 0 
L 37.796875 17.1875 
L 4.890625 17.1875 
L 4.890625 26.703125 
z
" id="DejaVuSans-52"/>
      </defs>
      <use xlink:href="#DejaVuSans-8722"/>
      <use x="83.789062" xlink:href="#DejaVuSans-48"/>
      <use x="147.412109" xlink:href="#DejaVuSans-46"/>
      <use x="179.199219" xlink:href="#DejaVuSans-52"/>
     </g>
    </g>
   </g>
   <g id="xtick_8">
    <g id="line2d_10">
     <path d="M 272.861914 214.73695 
L 275.889446 215.687125 
" style="fill:none;stroke:#000000;stroke-linecap:square;stroke-width:0.8;"/>
    </g>
    <g id="text_8">
     <!-- −0.2 -->
     <g transform="translate(274.313258 235.739611)scale(0.1 -0.1)">
      <use xlink:href="#DejaVuSans-8722"/>
      <use x="83.789062" xlink:href="#DejaVuSans-48"/>
      <use x="147.412109" xlink:href="#DejaVuSans-46"/>
      <use x="179.199219" xlink:href="#DejaVuSans-50"/>
     </g>
    </g>
   </g>
   <g id="xtick_9">
    <g id="line2d_11">
     <path d="M 289.391903 197.803502 
L 292.371656 198.711397 
" style="fill:none;stroke:#000000;stroke-linecap:square;stroke-width:0.8;"/>
    </g>
    <g id="text_9">
     <!-- 0.0 -->
     <g transform="translate(294.745424 218.485588)scale(0.1 -0.1)">
      <use xlink:href="#DejaVuSans-48"/>
      <use x="63.623047" xlink:href="#DejaVuSans-46"/>
      <use x="95.410156" xlink:href="#DejaVuSans-48"/>
     </g>
    </g>
   </g>
   <g id="xtick_10">
    <g id="line2d_12">
     <path d="M 305.194777 181.614917 
L 308.127978 182.483291 
" style="fill:none;stroke:#000000;stroke-linecap:square;stroke-width:0.8;"/>
    </g>
    <g id="text_10">
     <!-- 0.2 -->
     <g transform="translate(310.272508 201.991354)scale(0.1 -0.1)">
      <use xlink:href="#DejaVuSans-48"/>
      <use x="63.623047" xlink:href="#DejaVuSans-46"/>
      <use x="95.410156" xlink:href="#DejaVuSans-50"/>
     </g>
    </g>
   </g>
  </g>
  <g id="axis3d_3">
   <g id="line2d_13">
    <path d="M 316.12668 171.68791 
L 320.238571 81.894718 
" style="fill:none;stroke:#000000;stroke-linecap:square;stroke-width:0.8;"/>
   </g>
   <g id="Line3DCollection_3">
    <path d="M 316.292231 168.072692 
L 200.863739 134.695299 
L 128.91997 194.684804 
" style="fill:none;stroke:#b0b0b0;stroke-width:0.8;"/>
    <path d="M 317.353812 144.890494 
L 200.605679 112.253702 
L 127.776391 170.937643 
" style="fill:none;stroke:#b0b0b0;stroke-width:0.8;"/>
    <path d="M 318.440189 121.166781 
L 200.341882 89.313214 
L 126.605068 146.614363 
" style="fill:none;stroke:#b0b0b0;stroke-width:0.8;"/>
    <path d="M 319.552244 96.882355 
L 200.072154 65.857009 
L 125.404979 121.693741 
" style="fill:none;stroke:#b0b0b0;stroke-width:0.8;"/>
   </g>
   <g id="xtick_11">
    <g id="line2d_14">
     <path d="M 315.323387 167.79254 
L 318.232229 168.633664 
" style="fill:none;stroke:#000000;stroke-linecap:square;stroke-width:0.8;"/>
    </g>
    <g id="text_11">
     <!-- 0.0 -->
     <g transform="translate(326.609232 173.076482)scale(0.1 -0.1)">
      <use xlink:href="#DejaVuSans-48"/>
      <use x="63.623047" xlink:href="#DejaVuSans-46"/>
      <use x="95.410156" xlink:href="#DejaVuSans-48"/>
     </g>
    </g>
   </g>
   <g id="xtick_12">
    <g id="line2d_15">
     <path d="M 316.37336 144.61641 
L 319.317077 145.439323 
" style="fill:none;stroke:#000000;stroke-linecap:square;stroke-width:0.8;"/>
    </g>
    <g id="text_12">
     <!-- 0.2 -->
     <g transform="translate(327.876989 149.950579)scale(0.1 -0.1)">
      <use xlink:href="#DejaVuSans-48"/>
      <use x="63.623047" xlink:href="#DejaVuSans-46"/>
      <use x="95.410156" xlink:href="#DejaVuSans-50"/>
     </g>
    </g>
   </g>
   <g id="xtick_13">
    <g id="line2d_16">
     <path d="M 317.447851 120.899127 
L 320.427286 121.702743 
" style="fill:none;stroke:#000000;stroke-linecap:square;stroke-width:0.8;"/>
    </g>
    <g id="text_13">
     <!-- 0.4 -->
     <g transform="translate(329.174248 126.286507)scale(0.1 -0.1)">
      <use xlink:href="#DejaVuSans-48"/>
      <use x="63.623047" xlink:href="#DejaVuSans-46"/>
      <use x="95.410156" xlink:href="#DejaVuSans-52"/>
     </g>
    </g>
   </g>
   <g id="xtick_14">
    <g id="line2d_17">
     <path d="M 318.547726 96.621513 
L 321.563757 97.404684 
" style="fill:none;stroke:#000000;stroke-linecap:square;stroke-width:0.8;"/>
    </g>
    <g id="text_14">
     <!-- 0.6 -->
     <g transform="translate(330.502052 102.065259)scale(0.1 -0.1)">
      <use xlink:href="#DejaVuSans-48"/>
      <use x="63.623047" xlink:href="#DejaVuSans-46"/>
      <use x="95.410156" xlink:href="#DejaVuSans-54"/>
     </g>
    </g>
   </g>
  </g>
  <g id="axes_1">
   <g id="line2d_18">
    <path clip-path="url(#pc5433d9cd6)" d="M 175.596358 158.230807 
L 175.966437 159.41792 
L 176.151176 160.600911 
L 176.406952 161.049018 
L 176.870704 161.410616 
L 177.759471 161.750319 
L 178.485665 161.705722 
L 178.944442 161.54429 
L 179.990212 160.940069 
L 180.775624 160.341109 
L 184.540321 157.038983 
L 186.640028 155.737198 
L 189.315841 154.941545 
L 192.495501 154.422484 
L 194.290122 154.390281 
L 196.843343 154.645642 
L 199.526203 155.171635 
L 202.180084 155.826755 
L 213.117012 159.441753 
L 215.335706 159.88711 
L 217.624181 160.147133 
L 219.366825 160.083616 
L 221.21845 159.744741 
L 223.098297 158.962146 
L 223.610997 158.544765 
L 224.820983 157.032996 
L 225.764174 155.483753 
L 226.180141 155.10944 
L 226.80459 154.81128 
L 226.871256 154.628019 
L 226.87107 154.333587 
L 226.966508 154.383249 
L 227.279205 154.526824 
L 227.920951 154.932086 
L 230.244063 156.820431 
L 231.530322 157.595315 
L 233.660664 158.691161 
L 235.295578 159.266295 
L 238.854023 160.370548 
L 241.572624 160.845148 
L 243.958681 161.379014 
L 245.608322 162.157914 
L 246.235463 162.560215 
L 245.425175 161.925279 
L 245.186411 161.330575 
L 245.248495 160.996071 
L 245.250221 160.996405 
L 245.352856 161.088981 
L 245.842873 161.881884 
L 246.697014 162.952672 
L 249.464694 164.887473 
L 250.223033 165.319801 
L 249.817754 165.221129 
L 249.619234 165.532154 
L 249.298632 165.491978 
L 249.129015 165.45953 
L 249.119597 165.479562 
L 249.170575 165.816952 
L 249.18902 165.968633 
L 249.091843 165.897263 
L 248.862938 165.86041 
L 249.077097 165.779502 
L 249.091627 165.619953 
L 248.888922 165.573443 
L 248.88682 165.59045 
L 248.860484 165.829192 
L 248.774362 165.757167 
L 248.53933 165.288424 
L 248.875971 165.001699 
L 248.918812 165.047617 
L 250.181214 166.501949 
L 250.387141 166.622044 
L 250.391867 166.617506 
L 250.531734 166.437377 
L 250.567502 166.317051 
L 250.640518 166.490581 
L 250.800659 166.842643 
L 250.765371 166.832201 
" style="fill:none;stroke:#1f77b4;stroke-linecap:square;stroke-width:1.5;"/>
   </g>
   <g id="line2d_19">
    <path clip-path="url(#pc5433d9cd6)" d="M 185.540726 144.670014 
L 184.217632 145.465996 
L 182.685445 146.840859 
L 182.191706 147.614554 
L 181.939958 148.33634 
L 181.735561 149.525861 
L 181.657844 151.613791 
L 181.889947 153.023743 
L 182.343845 153.704625 
L 182.722365 153.759966 
L 183.481402 153.641942 
L 185.343516 152.668302 
L 188.590809 150.340105 
L 189.386561 149.357869 
L 189.372693 149.049367 
L 189.225217 148.983887 
L 189.215285 148.989608 
L 188.530234 149.543062 
L 188.821914 149.779955 
L 190.784179 149.778817 
L 191.625228 149.522083 
L 193.023289 148.975789 
L 194.320969 148.281602 
L 194.960791 147.685929 
L 195.388686 146.846789 
L 196.006575 144.764864 
L 196.22084 143.848567 
L 196.356038 142.969398 
L 196.614602 141.26976 
L 196.672318 140.679543 
L 196.50975 138.206414 
L 196.216495 137.491698 
L 194.775024 135.289773 
L 194.745814 134.767153 
L 194.893956 134.431502 
L 195.268645 134.185363 
L 195.843821 134.05478 
L 196.567149 134.084733 
L 199.477936 134.739262 
L 202.256639 135.525668 
L 205.998851 136.796583 
L 212.716642 139.346639 
L 216.682905 140.367225 
L 218.205998 140.468345 
L 218.78771 140.450595 
L 219.447739 140.565893 
L 221.769209 141.471855 
L 223.417816 142.343662 
L 230.026156 146.42536 
L 230.921121 146.701811 
L 231.802571 146.943635 
L 234.002415 147.913856 
L 234.66808 148.358151 
L 237.113953 150.366103 
L 237.287677 150.778744 
L 237.295381 150.962213 
L 237.467164 151.050293 
L 237.921015 151.344407 
L 240.337687 152.971999 
L 240.804929 153.360107 
L 241.632991 154.293628 
L 242.581789 154.975037 
L 244.179831 155.922515 
L 245.306245 156.504337 
L 245.330265 156.455454 
L 245.292471 156.394231 
L 244.723424 156.017409 
L 244.547029 156.088323 
L 244.562936 156.368341 
L 245.339686 156.884961 
L 245.829445 157.304711 
L 245.947923 157.462411 
L 245.820104 157.447929 
L 245.442607 157.32621 
L 245.279573 157.182977 
L 246.460899 157.979788 
L 247.312394 158.484553 
L 247.296196 158.322698 
L 247.31637 158.230752 
L 247.390089 158.252538 
L 248.008215 159.11641 
L 248.250698 159.352689 
L 248.404745 159.461824 
L 248.404745 159.461824 
" style="fill:none;stroke:#ff7f0e;stroke-linecap:square;stroke-width:1.5;"/>
   </g>
   <g id="line2d_20">
    <path clip-path="url(#pc5433d9cd6)" d="M 249.346939 152.306553 
L 249.476853 153.476093 
L 249.470891 154.587798 
L 249.553562 155.859168 
L 249.627586 159.042418 
L 249.398958 159.783979 
L 248.954132 160.350638 
L 247.614283 161.516406 
L 246.491103 162.271618 
L 245.529395 162.621242 
L 244.249678 162.827398 
L 242.125195 162.874686 
L 240.653484 162.544569 
L 238.943957 161.92146 
L 237.916928 161.365693 
L 235.344667 159.55729 
L 234.324621 158.617866 
L 233.268954 157.398429 
L 232.028267 155.684391 
L 230.455625 153.110467 
L 229.234061 150.405527 
L 228.398993 148.024159 
L 227.887136 146.450704 
L 227.474137 145.61469 
L 227.067355 144.958953 
L 226.420141 144.486203 
L 225.933177 144.42946 
L 225.520707 144.495028 
L 224.75009 145.164106 
L 224.386901 145.992912 
L 224.175818 146.362515 
L 223.596499 146.753374 
L 222.486694 147.141008 
L 221.879732 147.162453 
L 220.405132 146.833721 
L 219.854173 146.55841 
L 219.494588 146.051746 
L 219.199192 145.363466 
L 219.157177 144.562144 
L 219.393869 144.240513 
L 220.198138 143.735715 
L 221.098158 143.531972 
L 226.350545 142.337504 
L 229.525141 141.51257 
L 230.641161 141.354119 
L 232.133333 141.43933 
L 233.635341 141.982539 
L 234.597113 142.598853 
L 235.15861 143.174279 
L 236.020378 144.374339 
L 236.234381 145.101722 
L 236.204227 145.370706 
L 235.411215 146.117419 
L 233.664372 147.185755 
L 232.87695 147.292908 
L 231.849285 147.21274 
L 230.460074 146.856277 
L 228.119624 145.908401 
L 226.498652 144.969312 
L 224.620617 143.627896 
L 221.965933 141.374702 
L 219.349872 139.114179 
L 218.689087 138.791566 
L 218.454875 138.90733 
L 218.257497 139.218368 
L 218.080586 139.755742 
L 217.764815 140.008418 
L 217.608624 140.212647 
L 217.376489 140.604648 
L 216.921524 140.502373 
L 215.720149 140.022991 
L 215.750012 140.11484 
L 216.165955 140.43646 
L 217.096882 140.940277 
L 220.687331 142.733435 
L 224.50158 144.263464 
L 227.977065 145.3669 
L 228.61647 145.234389 
L 228.854467 145.242004 
L 230.918829 146.444405 
L 235.532007 149.577465 
L 235.800284 149.742417 
L 237.159793 150.42632 
L 239.085867 151.507928 
L 240.071411 152.207377 
L 240.498452 152.593284 
L 240.28388 152.594437 
L 240.330478 152.67767 
L 240.360839 152.687913 
L 241.77211 153.369906 
L 243.757157 154.585604 
L 245.789652 155.713728 
L 247.394619 156.295903 
L 252.353493 159.606364 
L 252.561156 159.982813 
L 252.561156 159.982813 
" style="fill:none;stroke:#2ca02c;stroke-linecap:square;stroke-width:1.5;"/>
   </g>
   <g id="line2d_21">
    <path clip-path="url(#pc5433d9cd6)" d="M 169.170279 86.576439 
L 172.428282 88.958904 
L 177.635837 93.089216 
L 180.959478 95.946991 
L 182.949375 98.196055 
L 183.792436 99.419502 
L 184.356011 100.922079 
L 184.423771 101.525973 
L 184.035816 104.621784 
L 183.950423 105.082869 
L 184.083588 106.712452 
L 184.700314 108.52795 
L 185.199174 109.349662 
L 185.540326 110.037164 
L 185.965495 111.198502 
L 186.10407 112.147721 
L 185.729484 113.309517 
L 185.510178 113.637373 
L 185.34805 113.89189 
L 185.234352 114.192129 
L 185.278272 115.264152 
L 185.533544 116.099165 
L 185.70912 117.654558 
L 186.624564 119.796144 
L 187.978221 121.473922 
L 188.905078 122.283323 
L 192.289633 124.71174 
L 194.059304 125.487439 
L 196.610962 126.318528 
L 200.660636 127.355177 
L 206.860544 128.720893 
L 209.80021 129.480301 
L 213.055026 130.453742 
L 215.262098 131.263674 
L 217.601536 132.395054 
L 222.850404 135.289061 
L 227.35785 137.8035 
L 232.887597 140.638376 
L 240.129815 143.583098 
L 243.932914 144.997635 
L 245.533443 145.656887 
L 251.283703 148.688022 
L 258.928992 150.809421 
L 261.865412 151.966543 
L 264.638164 153.171823 
L 265.499118 153.248103 
L 266.081694 153.258403 
L 267.272168 153.314067 
L 267.670691 153.359041 
L 268.397864 153.756426 
L 269.780368 154.648672 
L 271.919305 156.05208 
L 273.321353 157.412451 
L 273.891642 158.032553 
L 275.931225 160.38271 
L 275.985119 160.705869 
L 275.986661 161.109123 
L 276.412674 162.189161 
L 276.941774 163.205214 
L 276.884384 163.152681 
L 276.390282 162.747932 
L 275.879641 162.377838 
L 275.98921 162.526534 
L 275.65452 162.423274 
L 274.230341 161.977981 
L 273.37819 161.760959 
L 273.367577 161.805078 
L 273.404918 161.866192 
L 273.915173 162.468589 
L 274.191941 162.876154 
L 274.146497 162.891304 
L 273.809419 162.819211 
L 270.140987 161.665595 
L 268.42821 161.735885 
L 267.361464 162.212224 
L 266.52521 162.713631 
L 265.895661 163.066761 
L 264.981398 163.263422 
L 264.115797 163.256129 
L 263.060118 162.994217 
L 261.755437 162.407556 
L 259.469546 161.240995 
L 257.447331 160.096614 
L 253.378668 158.450631 
L 252.935289 158.494296 
L 252.782857 158.619961 
L 252.51891 158.560208 
L 252.603709 158.724342 
L 252.596174 158.76634 
L 252.488085 158.726942 
L 252.292687 158.634273 
L 252.292687 158.634273 
" style="fill:none;stroke:#d62728;stroke-linecap:square;stroke-width:1.5;"/>
   </g>
   <g id="legend_1">
    <g id="patch_6">
     <path d="M 284.7575 101.2725 
L 323.12 101.2725 
Q 325.12 101.2725 325.12 99.2725 
L 325.12 41.56 
Q 325.12 39.56 323.12 39.56 
L 284.7575 39.56 
Q 282.7575 39.56 282.7575 41.56 
L 282.7575 99.2725 
Q 282.7575 101.2725 284.7575 101.2725 
z
" style="fill:#ffffff;opacity:0.8;stroke:#cccccc;stroke-linejoin:miter;"/>
    </g>
    <g id="line2d_22">
     <path d="M 286.7575 47.658437 
L 306.7575 47.658437 
" style="fill:none;stroke:#1f77b4;stroke-linecap:square;stroke-width:1.5;"/>
    </g>
    <g id="line2d_23"/>
    <g id="text_15">
     <!-- 0 -->
     <g transform="translate(314.7575 51.158437)scale(0.1 -0.1)">
      <use xlink:href="#DejaVuSans-48"/>
     </g>
    </g>
    <g id="line2d_24">
     <path d="M 286.7575 62.336562 
L 306.7575 62.336562 
" style="fill:none;stroke:#ff7f0e;stroke-linecap:square;stroke-width:1.5;"/>
    </g>
    <g id="line2d_25"/>
    <g id="text_16">
     <!-- 1 -->
     <g transform="translate(314.7575 65.836562)scale(0.1 -0.1)">
      <use xlink:href="#DejaVuSans-49"/>
     </g>
    </g>
    <g id="line2d_26">
     <path d="M 286.7575 77.014687 
L 306.7575 77.014687 
" style="fill:none;stroke:#2ca02c;stroke-linecap:square;stroke-width:1.5;"/>
    </g>
    <g id="line2d_27"/>
    <g id="text_17">
     <!-- 2 -->
     <g transform="translate(314.7575 80.514687)scale(0.1 -0.1)">
      <use xlink:href="#DejaVuSans-50"/>
     </g>
    </g>
    <g id="line2d_28">
     <path d="M 286.7575 91.692813 
L 306.7575 91.692813 
" style="fill:none;stroke:#d62728;stroke-linecap:square;stroke-width:1.5;"/>
    </g>
    <g id="line2d_29"/>
    <g id="text_18">
     <!-- 3 -->
     <g transform="translate(314.7575 95.192813)scale(0.1 -0.1)">
      <defs>
       <path d="M 40.578125 39.3125 
Q 47.65625 37.796875 51.625 33 
Q 55.609375 28.21875 55.609375 21.1875 
Q 55.609375 10.40625 48.1875 4.484375 
Q 40.765625 -1.421875 27.09375 -1.421875 
Q 22.515625 -1.421875 17.65625 -0.515625 
Q 12.796875 0.390625 7.625 2.203125 
L 7.625 11.71875 
Q 11.71875 9.328125 16.59375 8.109375 
Q 21.484375 6.890625 26.8125 6.890625 
Q 36.078125 6.890625 40.9375 10.546875 
Q 45.796875 14.203125 45.796875 21.1875 
Q 45.796875 27.640625 41.28125 31.265625 
Q 36.765625 34.90625 28.71875 34.90625 
L 20.21875 34.90625 
L 20.21875 43.015625 
L 29.109375 43.015625 
Q 36.375 43.015625 40.234375 45.921875 
Q 44.09375 48.828125 44.09375 54.296875 
Q 44.09375 59.90625 40.109375 62.90625 
Q 36.140625 65.921875 28.71875 65.921875 
Q 24.65625 65.921875 20.015625 65.03125 
Q 15.375 64.15625 9.8125 62.3125 
L 9.8125 71.09375 
Q 15.4375 72.65625 20.34375 73.4375 
Q 25.25 74.21875 29.59375 74.21875 
Q 40.828125 74.21875 47.359375 69.109375 
Q 53.90625 64.015625 53.90625 55.328125 
Q 53.90625 49.265625 50.4375 45.09375 
Q 46.96875 40.921875 40.578125 39.3125 
z
" id="DejaVuSans-51"/>
      </defs>
      <use xlink:href="#DejaVuSans-51"/>
     </g>
    </g>
   </g>
  </g>
 </g>
 <defs>
  <clipPath id="pc5433d9cd6">
   <rect height="217.44" width="217.44" x="112.68" y="34.56"/>
  </clipPath>
 </defs>
</svg>
