<?xml version="1.0" encoding="utf-8" standalone="no"?>
<!DOCTYPE svg PUBLIC "-//W3C//DTD SVG 1.1//EN"
  "http://www.w3.org/Graphics/SVG/1.1/DTD/svg11.dtd">
<!-- Created with matplotlib (https://matplotlib.org/) -->
<svg height="288pt" version="1.1" viewBox="0 0 432 288" width="432pt" xmlns="http://www.w3.org/2000/svg" xmlns:xlink="http://www.w3.org/1999/xlink">
 <metadata>
  <rdf:RDF xmlns:cc="http://creativecommons.org/ns#" xmlns:dc="http://purl.org/dc/elements/1.1/" xmlns:rdf="http://www.w3.org/1999/02/22-rdf-syntax-ns#">
   <cc:Work>
    <dc:type rdf:resource="http://purl.org/dc/dcmitype/StillImage"/>
    <dc:date>2021-11-11T08:55:21.837963</dc:date>
    <dc:format>image/svg+xml</dc:format>
    <dc:creator>
     <cc:Agent>
      <dc:title>Matplotlib v3.3.4, https://matplotlib.org/</dc:title>
     </cc:Agent>
    </dc:creator>
   </cc:Work>
  </rdf:RDF>
 </metadata>
 <defs>
  <style type="text/css">*{stroke-linecap:butt;stroke-linejoin:round;}</style>
 </defs>
 <g id="figure_1">
  <g id="patch_1">
   <path d="M 0 288 
L 432 288 
L 432 0 
L 0 0 
z
" style="fill:none;"/>
  </g>
  <g id="patch_2">
   <path d="M 112.68 252 
L 330.12 252 
L 330.12 34.56 
L 112.68 34.56 
z
" style="fill:#ffffff;"/>
  </g>
  <g id="pane3d_1">
   <g id="patch_3">
    <path d="M 129.09822 198.386264 
L 200.904009 138.197228 
L 199.90584 51.393878 
L 124.663773 106.302111 
" style="fill:#f2f2f2;opacity:0.5;stroke:#f2f2f2;stroke-linejoin:miter;"/>
   </g>
  </g>
  <g id="pane3d_2">
   <g id="patch_4">
    <path d="M 200.904009 138.197228 
L 316.12668 171.68791 
L 320.238571 81.894718 
L 199.90584 51.393878 
" style="fill:#e6e6e6;opacity:0.5;stroke:#e6e6e6;stroke-linejoin:miter;"/>
   </g>
  </g>
  <g id="pane3d_3">
   <g id="patch_5">
    <path d="M 129.09822 198.386264 
L 251.239879 238.27773 
L 316.12668 171.68791 
L 200.904009 138.197228 
" style="fill:#ececec;opacity:0.5;stroke:#ececec;stroke-linejoin:miter;"/>
   </g>
  </g>
  <g id="axis3d_1">
   <g id="line2d_1">
    <path d="M 129.09822 198.386264 
L 251.239879 238.27773 
" style="fill:none;stroke:#000000;stroke-linecap:square;stroke-width:0.8;"/>
   </g>
   <g id="Line3DCollection_1">
    <path d="M 139.977535 201.939449 
L 211.208391 141.192305 
L 210.646547 54.116334 
" style="fill:none;stroke:#b0b0b0;stroke-width:0.8;"/>
    <path d="M 157.57169 207.6857 
L 227.855587 146.030988 
L 228.00721 58.516756 
" style="fill:none;stroke:#b0b0b0;stroke-width:0.8;"/>
    <path d="M 175.441158 213.521868 
L 244.741593 150.939083 
L 245.627733 62.983045 
" style="fill:none;stroke:#b0b0b0;stroke-width:0.8;"/>
    <path d="M 193.592451 219.45008 
L 261.871583 155.918095 
L 263.513995 67.516691 
" style="fill:none;stroke:#b0b0b0;stroke-width:0.8;"/>
    <path d="M 212.032291 225.472532 
L 279.250884 160.969572 
L 281.672053 72.11923 
" style="fill:none;stroke:#b0b0b0;stroke-width:0.8;"/>
    <path d="M 230.767611 231.591488 
L 296.88498 166.095107 
L 300.10815 76.792243 
" style="fill:none;stroke:#b0b0b0;stroke-width:0.8;"/>
   </g>
   <g id="xtick_1">
    <g id="line2d_2">
     <path d="M 140.597886 201.4104 
L 138.734165 202.99982 
" style="fill:none;stroke:#000000;stroke-linecap:square;stroke-width:0.8;"/>
    </g>
    <g id="text_1">
     <!-- 1.0 -->
     <g transform="translate(124.494883 225.291171)scale(0.1 -0.1)">
      <defs>
       <path d="M 12.40625 8.296875 
L 28.515625 8.296875 
L 28.515625 63.921875 
L 10.984375 60.40625 
L 10.984375 69.390625 
L 28.421875 72.90625 
L 38.28125 72.90625 
L 38.28125 8.296875 
L 54.390625 8.296875 
L 54.390625 0 
L 12.40625 0 
z
" id="DejaVuSans-49"/>
       <path d="M 10.6875 12.40625 
L 21 12.40625 
L 21 0 
L 10.6875 0 
z
" id="DejaVuSans-46"/>
       <path d="M 31.78125 66.40625 
Q 24.171875 66.40625 20.328125 58.90625 
Q 16.5 51.421875 16.5 36.375 
Q 16.5 21.390625 20.328125 13.890625 
Q 24.171875 6.390625 31.78125 6.390625 
Q 39.453125 6.390625 43.28125 13.890625 
Q 47.125 21.390625 47.125 36.375 
Q 47.125 51.421875 43.28125 58.90625 
Q 39.453125 66.40625 31.78125 66.40625 
z
M 31.78125 74.21875 
Q 44.046875 74.21875 50.515625 64.515625 
Q 56.984375 54.828125 56.984375 36.375 
Q 56.984375 17.96875 50.515625 8.265625 
Q 44.046875 -1.421875 31.78125 -1.421875 
Q 19.53125 -1.421875 13.0625 8.265625 
Q 6.59375 17.96875 6.59375 36.375 
Q 6.59375 54.828125 13.0625 64.515625 
Q 19.53125 74.21875 31.78125 74.21875 
z
" id="DejaVuSans-48"/>
      </defs>
      <use xlink:href="#DejaVuSans-49"/>
      <use x="63.623047" xlink:href="#DejaVuSans-46"/>
      <use x="95.410156" xlink:href="#DejaVuSans-48"/>
     </g>
    </g>
   </g>
   <g id="xtick_2">
    <g id="line2d_3">
     <path d="M 158.184181 207.148408 
L 156.344054 208.762611 
" style="fill:none;stroke:#000000;stroke-linecap:square;stroke-width:0.8;"/>
    </g>
    <g id="text_2">
     <!-- 1.1 -->
     <g transform="translate(142.111162 231.186688)scale(0.1 -0.1)">
      <use xlink:href="#DejaVuSans-49"/>
      <use x="63.623047" xlink:href="#DejaVuSans-46"/>
      <use x="95.410156" xlink:href="#DejaVuSans-49"/>
     </g>
    </g>
   </g>
   <g id="xtick_3">
    <g id="line2d_4">
     <path d="M 176.045466 212.976139 
L 174.229904 214.615709 
" style="fill:none;stroke:#000000;stroke-linecap:square;stroke-width:0.8;"/>
    </g>
    <g id="text_3">
     <!-- 1.2 -->
     <g transform="translate(160.004376 237.174886)scale(0.1 -0.1)">
      <defs>
       <path d="M 19.1875 8.296875 
L 53.609375 8.296875 
L 53.609375 0 
L 7.328125 0 
L 7.328125 8.296875 
Q 12.9375 14.109375 22.625 23.890625 
Q 32.328125 33.6875 34.8125 36.53125 
Q 39.546875 41.84375 41.421875 45.53125 
Q 43.3125 49.21875 43.3125 52.78125 
Q 43.3125 58.59375 39.234375 62.25 
Q 35.15625 65.921875 28.609375 65.921875 
Q 23.96875 65.921875 18.8125 64.3125 
Q 13.671875 62.703125 7.8125 59.421875 
L 7.8125 69.390625 
Q 13.765625 71.78125 18.9375 73 
Q 24.125 74.21875 28.421875 74.21875 
Q 39.75 74.21875 46.484375 68.546875 
Q 53.21875 62.890625 53.21875 53.421875 
Q 53.21875 48.921875 51.53125 44.890625 
Q 49.859375 40.875 45.40625 35.40625 
Q 44.1875 33.984375 37.640625 27.21875 
Q 31.109375 20.453125 19.1875 8.296875 
z
" id="DejaVuSans-50"/>
      </defs>
      <use xlink:href="#DejaVuSans-49"/>
      <use x="63.623047" xlink:href="#DejaVuSans-46"/>
      <use x="95.410156" xlink:href="#DejaVuSans-50"/>
     </g>
    </g>
   </g>
   <g id="xtick_4">
    <g id="line2d_5">
     <path d="M 194.188241 218.895713 
L 192.398251 220.561253 
" style="fill:none;stroke:#000000;stroke-linecap:square;stroke-width:0.8;"/>
    </g>
    <g id="text_4">
     <!-- 1.3 -->
     <g transform="translate(178.181108 243.257967)scale(0.1 -0.1)">
      <defs>
       <path d="M 40.578125 39.3125 
Q 47.65625 37.796875 51.625 33 
Q 55.609375 28.21875 55.609375 21.1875 
Q 55.609375 10.40625 48.1875 4.484375 
Q 40.765625 -1.421875 27.09375 -1.421875 
Q 22.515625 -1.421875 17.65625 -0.515625 
Q 12.796875 0.390625 7.625 2.203125 
L 7.625 11.71875 
Q 11.71875 9.328125 16.59375 8.109375 
Q 21.484375 6.890625 26.8125 6.890625 
Q 36.078125 6.890625 40.9375 10.546875 
Q 45.796875 14.203125 45.796875 21.1875 
Q 45.796875 27.640625 41.28125 31.265625 
Q 36.765625 34.90625 28.71875 34.90625 
L 20.21875 34.90625 
L 20.21875 43.015625 
L 29.109375 43.015625 
Q 36.375 43.015625 40.234375 45.921875 
Q 44.09375 48.828125 44.09375 54.296875 
Q 44.09375 59.90625 40.109375 62.90625 
Q 36.140625 65.921875 28.71875 65.921875 
Q 24.65625 65.921875 20.015625 65.03125 
Q 15.375 64.15625 9.8125 62.3125 
L 9.8125 71.09375 
Q 15.4375 72.65625 20.34375 73.4375 
Q 25.25 74.21875 29.59375 74.21875 
Q 40.828125 74.21875 47.359375 69.109375 
Q 53.90625 64.015625 53.90625 55.328125 
Q 53.90625 49.265625 50.4375 45.09375 
Q 46.96875 40.921875 40.578125 39.3125 
z
" id="DejaVuSans-51"/>
      </defs>
      <use xlink:href="#DejaVuSans-49"/>
      <use x="63.623047" xlink:href="#DejaVuSans-46"/>
      <use x="95.410156" xlink:href="#DejaVuSans-51"/>
     </g>
    </g>
   </g>
   <g id="xtick_5">
    <g id="line2d_6">
     <path d="M 212.619214 224.90932 
L 210.855842 226.601452 
" style="fill:none;stroke:#000000;stroke-linecap:square;stroke-width:0.8;"/>
    </g>
    <g id="text_5">
     <!-- 1.4 -->
     <g transform="translate(196.64815 249.438204)scale(0.1 -0.1)">
      <defs>
       <path d="M 37.796875 64.3125 
L 12.890625 25.390625 
L 37.796875 25.390625 
z
M 35.203125 72.90625 
L 47.609375 72.90625 
L 47.609375 25.390625 
L 58.015625 25.390625 
L 58.015625 17.1875 
L 47.609375 17.1875 
L 47.609375 0 
L 37.796875 0 
L 37.796875 17.1875 
L 4.890625 17.1875 
L 4.890625 26.703125 
z
" id="DejaVuSans-52"/>
      </defs>
      <use xlink:href="#DejaVuSans-49"/>
      <use x="63.623047" xlink:href="#DejaVuSans-46"/>
      <use x="95.410156" xlink:href="#DejaVuSans-52"/>
     </g>
    </g>
   </g>
   <g id="xtick_6">
    <g id="line2d_7">
     <path d="M 231.345306 231.019218 
L 229.609639 232.738584 
" style="fill:none;stroke:#000000;stroke-linecap:square;stroke-width:0.8;"/>
    </g>
    <g id="text_6">
     <!-- 1.5 -->
     <g transform="translate(215.412513 255.717943)scale(0.1 -0.1)">
      <defs>
       <path d="M 10.796875 72.90625 
L 49.515625 72.90625 
L 49.515625 64.59375 
L 19.828125 64.59375 
L 19.828125 46.734375 
Q 21.96875 47.46875 24.109375 47.828125 
Q 26.265625 48.1875 28.421875 48.1875 
Q 40.625 48.1875 47.75 41.5 
Q 54.890625 34.8125 54.890625 23.390625 
Q 54.890625 11.625 47.5625 5.09375 
Q 40.234375 -1.421875 26.90625 -1.421875 
Q 22.3125 -1.421875 17.546875 -0.640625 
Q 12.796875 0.140625 7.71875 1.703125 
L 7.71875 11.625 
Q 12.109375 9.234375 16.796875 8.0625 
Q 21.484375 6.890625 26.703125 6.890625 
Q 35.15625 6.890625 40.078125 11.328125 
Q 45.015625 15.765625 45.015625 23.390625 
Q 45.015625 31 40.078125 35.4375 
Q 35.15625 39.890625 26.703125 39.890625 
Q 22.75 39.890625 18.8125 39.015625 
Q 14.890625 38.140625 10.796875 36.28125 
z
" id="DejaVuSans-53"/>
      </defs>
      <use xlink:href="#DejaVuSans-49"/>
      <use x="63.623047" xlink:href="#DejaVuSans-46"/>
      <use x="95.410156" xlink:href="#DejaVuSans-53"/>
     </g>
    </g>
   </g>
  </g>
  <g id="axis3d_2">
   <g id="line2d_8">
    <path d="M 316.12668 171.68791 
L 251.239879 238.27773 
" style="fill:none;stroke:#000000;stroke-linecap:square;stroke-width:0.8;"/>
   </g>
   <g id="Line3DCollection_2">
    <path d="M 141.365378 94.11404 
L 144.99003 185.065434 
L 265.649834 223.489571 
" style="fill:none;stroke:#b0b0b0;stroke-width:0.8;"/>
    <path d="M 162.475968 78.708493 
L 165.115382 168.195965 
L 283.858155 204.803355 
" style="fill:none;stroke:#b0b0b0;stroke-width:0.8;"/>
    <path d="M 182.582431 64.035712 
L 184.323382 152.095438 
L 301.194527 187.011972 
" style="fill:none;stroke:#b0b0b0;stroke-width:0.8;"/>
   </g>
   <g id="xtick_7">
    <g id="line2d_9">
     <path d="M 264.633709 223.165986 
L 267.684676 224.137567 
" style="fill:none;stroke:#000000;stroke-linecap:square;stroke-width:0.8;"/>
    </g>
    <g id="text_7">
     <!-- −0.5 -->
     <g transform="translate(266.227937 244.328549)scale(0.1 -0.1)">
      <defs>
       <path d="M 10.59375 35.5 
L 73.1875 35.5 
L 73.1875 27.203125 
L 10.59375 27.203125 
z
" id="DejaVuSans-8722"/>
      </defs>
      <use xlink:href="#DejaVuSans-8722"/>
      <use x="83.789062" xlink:href="#DejaVuSans-48"/>
      <use x="147.412109" xlink:href="#DejaVuSans-46"/>
      <use x="179.199219" xlink:href="#DejaVuSans-53"/>
     </g>
    </g>
   </g>
   <g id="xtick_8">
    <g id="line2d_10">
     <path d="M 282.859402 204.495447 
L 285.858148 205.419936 
" style="fill:none;stroke:#000000;stroke-linecap:square;stroke-width:0.8;"/>
    </g>
    <g id="text_8">
     <!-- 0.0 -->
     <g transform="translate(288.326705 225.304116)scale(0.1 -0.1)">
      <use xlink:href="#DejaVuSans-48"/>
      <use x="63.623047" xlink:href="#DejaVuSans-46"/>
      <use x="95.410156" xlink:href="#DejaVuSans-48"/>
     </g>
    </g>
   </g>
   <g id="xtick_9">
    <g id="line2d_11">
     <path d="M 300.212666 186.71863 
L 303.160635 187.599368 
" style="fill:none;stroke:#000000;stroke-linecap:square;stroke-width:0.8;"/>
    </g>
    <g id="text_9">
     <!-- 0.5 -->
     <g transform="translate(305.377426 207.191341)scale(0.1 -0.1)">
      <use xlink:href="#DejaVuSans-48"/>
      <use x="63.623047" xlink:href="#DejaVuSans-46"/>
      <use x="95.410156" xlink:href="#DejaVuSans-53"/>
     </g>
    </g>
   </g>
  </g>
  <g id="axis3d_3">
   <g id="line2d_12">
    <path d="M 316.12668 171.68791 
L 320.238571 81.894718 
" style="fill:none;stroke:#000000;stroke-linecap:square;stroke-width:0.8;"/>
   </g>
   <g id="Line3DCollection_3">
    <path d="M 316.227585 169.484401 
L 200.879463 136.062699 
L 128.989578 196.13025 
" style="fill:none;stroke:#b0b0b0;stroke-width:0.8;"/>
    <path d="M 317.220856 147.793903 
L 200.637984 115.063015 
L 127.919671 173.912941 
" style="fill:none;stroke:#b0b0b0;stroke-width:0.8;"/>
    <path d="M 318.235835 125.629356 
L 200.391481 93.626505 
L 126.825481 151.191375 
" style="fill:none;stroke:#b0b0b0;stroke-width:0.8;"/>
    <path d="M 319.273242 102.975048 
L 200.139797 71.739395 
L 125.706171 127.948185 
" style="fill:none;stroke:#b0b0b0;stroke-width:0.8;"/>
   </g>
   <g id="xtick_10">
    <g id="line2d_13">
     <path d="M 315.259447 169.203887 
L 318.166167 170.046099 
" style="fill:none;stroke:#000000;stroke-linecap:square;stroke-width:0.8;"/>
    </g>
    <g id="text_10">
     <!-- 0.0 -->
     <g transform="translate(326.532027 174.484826)scale(0.1 -0.1)">
      <use xlink:href="#DejaVuSans-48"/>
      <use x="63.623047" xlink:href="#DejaVuSans-46"/>
      <use x="95.410156" xlink:href="#DejaVuSans-48"/>
     </g>
    </g>
   </g>
   <g id="xtick_11">
    <g id="line2d_14">
     <path d="M 316.241859 147.519047 
L 319.181206 148.344275 
" style="fill:none;stroke:#000000;stroke-linecap:square;stroke-width:0.8;"/>
    </g>
    <g id="text_11">
     <!-- 0.2 -->
     <g transform="translate(327.718217 152.84683)scale(0.1 -0.1)">
      <use xlink:href="#DejaVuSans-48"/>
      <use x="63.623047" xlink:href="#DejaVuSans-46"/>
      <use x="95.410156" xlink:href="#DejaVuSans-50"/>
     </g>
    </g>
   </g>
   <g id="xtick_12">
    <g id="line2d_15">
     <path d="M 317.245733 125.360475 
L 320.218448 126.167771 
" style="fill:none;stroke:#000000;stroke-linecap:square;stroke-width:0.8;"/>
    </g>
    <g id="text_12">
     <!-- 0.4 -->
     <g transform="translate(328.930235 130.737706)scale(0.1 -0.1)">
      <use xlink:href="#DejaVuSans-48"/>
      <use x="63.623047" xlink:href="#DejaVuSans-46"/>
      <use x="95.410156" xlink:href="#DejaVuSans-52"/>
     </g>
    </g>
   </g>
   <g id="xtick_13">
    <g id="line2d_16">
     <path d="M 318.27178 102.712474 
L 321.278627 103.500841 
" style="fill:none;stroke:#000000;stroke-linecap:square;stroke-width:0.8;"/>
    </g>
    <g id="text_13">
     <!-- 0.6 -->
     <g transform="translate(330.168932 108.141899)scale(0.1 -0.1)">
      <defs>
       <path d="M 33.015625 40.375 
Q 26.375 40.375 22.484375 35.828125 
Q 18.609375 31.296875 18.609375 23.390625 
Q 18.609375 15.53125 22.484375 10.953125 
Q 26.375 6.390625 33.015625 6.390625 
Q 39.65625 6.390625 43.53125 10.953125 
Q 47.40625 15.53125 47.40625 23.390625 
Q 47.40625 31.296875 43.53125 35.828125 
Q 39.65625 40.375 33.015625 40.375 
z
M 52.59375 71.296875 
L 52.59375 62.3125 
Q 48.875 64.0625 45.09375 64.984375 
Q 41.3125 65.921875 37.59375 65.921875 
Q 27.828125 65.921875 22.671875 59.328125 
Q 17.53125 52.734375 16.796875 39.40625 
Q 19.671875 43.65625 24.015625 45.921875 
Q 28.375 48.1875 33.59375 48.1875 
Q 44.578125 48.1875 50.953125 41.515625 
Q 57.328125 34.859375 57.328125 23.390625 
Q 57.328125 12.15625 50.6875 5.359375 
Q 44.046875 -1.421875 33.015625 -1.421875 
Q 20.359375 -1.421875 13.671875 8.265625 
Q 6.984375 17.96875 6.984375 36.375 
Q 6.984375 53.65625 15.1875 63.9375 
Q 23.390625 74.21875 37.203125 74.21875 
Q 40.921875 74.21875 44.703125 73.484375 
Q 48.484375 72.75 52.59375 71.296875 
z
" id="DejaVuSans-54"/>
      </defs>
      <use xlink:href="#DejaVuSans-48"/>
      <use x="63.623047" xlink:href="#DejaVuSans-46"/>
      <use x="95.410156" xlink:href="#DejaVuSans-54"/>
     </g>
    </g>
   </g>
  </g>
  <g id="axes_1">
   <g id="line2d_17">
    <path clip-path="url(#p44961bf0bb)" d="M 216.095576 89.384579 
L 218.577066 90.363708 
L 221.966744 91.971534 
L 227.384121 94.946749 
L 231.214163 97.308582 
L 234.676282 99.65245 
L 238.903125 102.804113 
L 242.80887 106.034943 
L 245.600047 108.573513 
L 248.544323 111.556056 
L 251.572311 114.8793 
L 255.05492 119.114827 
L 257.107764 121.95086 
L 258.866444 124.766074 
L 261.722629 129.878673 
L 263.226156 133.137131 
L 265.27009 137.365181 
L 266.934261 140.161921 
L 268.780116 142.770872 
L 270.875646 145.001378 
L 274.653117 147.898317 
L 276.844685 149.408893 
L 278.764695 151.025853 
L 279.692803 152.235317 
L 280.347698 153.464185 
L 280.883446 155.030664 
L 281.527858 157.857082 
L 281.846168 160.167307 
L 282.003526 162.825113 
L 281.956106 165.080769 
L 281.865514 169.550906 
L 281.949805 173.070187 
L 282.438076 174.807643 
L 283.219595 177.099961 
L 283.834895 179.041456 
L 284.23823 181.083692 
L 284.071756 181.522502 
L 281.252704 185.341523 
L 281.451555 185.754959 
L 281.339859 185.746993 
L 281.164379 185.756688 
L 280.936162 185.952201 
L 280.595292 186.450378 
L 280.122206 187.066757 
L 279.567558 187.756023 
L 279.631911 187.952329 
L 280.092267 187.966399 
L 280.284708 187.987107 
L 280.181896 187.854655 
L 279.767933 187.418325 
L 279.385099 187.356617 
L 279.102404 187.46789 
L 278.916437 187.763556 
L 278.783001 188.352074 
L 278.756199 187.933867 
L 278.505115 187.826423 
L 278.058381 187.845511 
L 278.056639 187.820044 
L 278.11742 187.972862 
L 277.939235 187.705017 
L 277.776054 187.542241 
L 277.687989 187.661466 
L 277.520806 187.698152 
L 277.338751 187.617296 
L 277.338751 187.617296 
" style="fill:none;stroke:#1f77b4;stroke-linecap:square;stroke-width:1.5;"/>
   </g>
   <g id="line2d_18">
    <path clip-path="url(#p44961bf0bb)" d="M 270.991181 192.939677 
L 270.470118 194.175781 
L 270.284395 194.184955 
L 269.861347 193.88221 
L 268.217082 192.32385 
L 267.602687 191.979417 
L 267.003778 191.672881 
L 267.278754 191.702165 
L 268.001545 191.093878 
L 268.096825 190.6838 
L 267.989529 190.290288 
L 267.738326 190.012366 
L 266.568787 189.444121 
L 266.454509 188.66025 
L 266.403729 187.442138 
L 266.756387 186.057037 
L 267.016218 185.760697 
L 267.507313 185.570495 
L 268.717885 185.283382 
L 268.924141 184.812018 
L 269.370003 183.460714 
L 269.023953 184.102355 
L 268.643915 184.148689 
L 268.353297 183.838703 
L 266.34029 181.917657 
L 266.276116 181.700571 
L 266.34719 181.716001 
L 266.654983 181.792097 
L 267.108205 181.904033 
L 267.491606 181.889737 
L 268.549652 181.452945 
L 268.748102 181.668388 
L 269.22816 182.41462 
L 269.513737 183.22131 
L 269.7819 184.949714 
L 269.80238 184.944544 
L 270.057796 184.946946 
L 270.431976 185.188199 
L 271.164905 185.652792 
L 271.893167 186.377149 
L 273.228273 187.505918 
L 276.885743 189.449556 
L 276.916677 189.656127 
L 276.887113 189.681632 
L 276.817012 189.613705 
L 276.41972 189.09696 
L 276.316281 188.886148 
L 276.550669 189.104013 
L 277.036305 189.367753 
L 277.773964 189.684356 
L 278.335701 190.191094 
L 278.189342 189.890119 
L 277.925725 189.630827 
L 277.911206 189.643143 
L 277.629927 190.235697 
L 277.737975 190.372889 
L 278.160977 190.483354 
L 278.176611 190.352242 
L 277.984024 189.852931 
L 277.740332 189.343814 
L 277.947216 190.00836 
L 277.7479 190.059318 
L 277.572614 189.961738 
L 276.8411 189.337032 
L 277.216459 189.472719 
L 277.463063 189.566218 
L 277.229349 189.595133 
L 277.035233 189.687672 
L 276.946546 189.646863 
L 276.946546 189.646863 
" style="fill:none;stroke:#ff7f0e;stroke-linecap:square;stroke-width:1.5;"/>
   </g>
   <g id="line2d_19">
    <path clip-path="url(#p44961bf0bb)" d="M 223.295029 93.32047 
L 224.619083 93.345448 
L 227.597781 93.682167 
L 232.438406 94.560829 
L 241.847664 96.506525 
L 244.781468 97.425994 
L 249.514167 99.236156 
L 253.902689 101.21077 
L 257.27937 102.971893 
L 262.113559 105.76958 
L 266.033773 108.305487 
L 267.639753 109.524383 
L 269.602874 111.306871 
L 270.873703 112.742188 
L 272.822769 115.432733 
L 274.534364 118.180381 
L 279.528202 126.604732 
L 280.624719 129.464319 
L 280.984418 131.145958 
L 281.545015 134.631333 
L 282.063726 138.518835 
L 282.642228 140.510082 
L 283.488215 143.106823 
L 284.043687 145.197212 
L 284.48839 147.651156 
L 284.717613 151.03428 
L 285.429816 156.15264 
L 286.266012 158.786508 
L 286.759773 160.407661 
L 286.906373 161.537718 
L 287.018233 163.240996 
L 286.765901 165.382564 
L 286.3107 167.632683 
L 285.97227 170.175155 
L 286.113528 173.487266 
L 286.096166 176.018187 
L 285.807962 178.919487 
L 285.606705 181.162379 
L 285.790882 183.59582 
L 286.101693 184.690443 
L 286.459611 186.040155 
L 285.958681 184.60617 
L 285.642536 184.377336 
L 284.596098 184.334817 
L 284.417598 184.621827 
L 283.778673 186.15725 
L 283.508071 186.235815 
L 283.063066 186.164612 
L 282.968222 186.359139 
L 282.848362 187.291991 
L 282.702588 188.274136 
L 282.507841 188.935839 
L 282.363444 189.002589 
L 282.357996 189.000088 
L 282.072842 188.683882 
L 281.576399 188.09911 
L 281.555459 188.122735 
L 281.314806 188.323011 
L 280.912869 188.269957 
L 280.687157 188.018155 
L 280.308334 187.707408 
L 280.147773 187.834378 
L 279.956296 188.051372 
L 279.899087 187.955832 
L 279.763724 187.906841 
L 279.760189 187.908384 
L 279.437087 187.864638 
L 279.202935 187.92051 
L 279.007299 188.257787 
L 278.954498 189.506109 
L 278.801517 189.221195 
L 278.759234 189.027621 
L 278.850564 189.028962 
L 278.844171 188.883123 
L 278.733667 189.002299 
L 278.730163 188.999057 
L 277.612746 188.760846 
L 277.119441 188.72221 
L 277.136845 188.842011 
L 277.145956 189.011195 
L 277.148313 189.001461 
" style="fill:none;stroke:#2ca02c;stroke-linecap:square;stroke-width:1.5;"/>
   </g>
   <g id="line2d_20">
    <path clip-path="url(#p44961bf0bb)" d="M 191.694237 69.561596 
L 194.076978 71.024537 
L 196.304143 72.613351 
L 210.344438 83.161342 
L 214.152157 86.145361 
L 222.437568 92.366114 
L 223.424843 93.391639 
L 227.42477 97.909614 
L 230.411742 101.06195 
L 236.277382 106.067598 
L 242.318369 111.628073 
L 244.997003 114.445046 
L 253.782829 124.523846 
L 257.399291 129.47817 
L 258.97002 132.038974 
L 260.386762 134.807432 
L 263.206948 140.287351 
L 265.417116 144.036792 
L 266.545035 146.546921 
L 268.650573 151.627365 
L 269.570366 154.09359 
L 272.075364 162.519145 
L 272.600146 164.825933 
L 272.738595 166.447598 
L 273.639074 175.832212 
L 273.926916 176.445629 
L 274.468691 177.492577 
L 274.495721 177.938008 
L 274.317827 178.373418 
L 274.20724 178.527221 
L 274.341037 178.702832 
L 275.725555 179.853947 
L 275.494932 180.515243 
L 275.41071 180.658212 
L 275.443686 181.006563 
L 275.405452 181.329605 
L 275.317581 181.62483 
L 275.489472 181.540262 
L 275.620381 181.643939 
L 275.587746 181.685776 
L 275.509928 181.9538 
L 275.485462 182.114709 
L 275.169887 182.4195 
L 275.129862 182.29778 
L 275.13814 182.239137 
L 275.251492 182.395401 
L 275.267857 182.423621 
L 275.211122 182.46541 
L 275.216327 182.501869 
L 275.18988 182.778497 
L 275.037528 183.285539 
L 275.037528 183.285539 
" style="fill:none;stroke:#d62728;stroke-linecap:square;stroke-width:1.5;"/>
   </g>
   <g id="line2d_21">
    <path clip-path="url(#p44961bf0bb)" d="M 178.015824 117.741015 
L 178.931638 120.014783 
L 180.097495 122.220459 
L 181.52756 124.699187 
L 182.736983 126.344317 
L 185.52693 129.762556 
L 187.323495 131.63028 
L 189.549432 133.949841 
L 190.745554 135.516147 
L 191.213408 136.617351 
L 192.039602 139.467026 
L 194.193574 146.026547 
L 195.218999 148.127846 
L 196.126221 149.375945 
L 198.000766 151.283921 
L 199.656839 152.978967 
L 200.811772 154.424136 
L 204.385546 159.197557 
L 206.500569 161.306168 
L 207.610595 162.13699 
L 214.22018 166.772322 
L 217.496188 168.906537 
L 219.800863 170.078705 
L 224.197646 172.023102 
L 229.805411 174.86155 
L 232.155547 176.528393 
L 234.291082 178.129366 
L 240.387133 183.068872 
L 241.85057 184.458637 
L 242.965511 185.12738 
L 243.604528 185.289837 
L 245.307297 185.422928 
L 246.876849 185.199981 
L 249.551101 184.649766 
L 253.883634 184.368443 
L 258.274301 184.459198 
L 260.089495 184.581015 
L 266.122467 185.177955 
L 268.479911 185.123561 
L 269.588782 184.893292 
L 270.108898 184.542389 
L 270.42633 184.035207 
L 270.583904 183.481326 
L 270.547659 182.516266 
L 270.194191 181.49524 
L 269.568004 180.37085 
L 268.23594 178.881533 
L 267.63376 178.42999 
L 268.540706 178.955714 
L 269.919128 179.550006 
L 272.945652 180.002908 
L 274.417461 180.11412 
L 275.068225 180.449032 
L 276.332877 181.883448 
L 276.365119 182.137294 
L 276.292507 182.108514 
L 276.236586 182.095695 
L 276.306079 182.226914 
L 277.12582 183.46141 
L 277.495793 184.084326 
L 277.628034 184.286904 
L 277.746184 184.415694 
L 277.779448 184.382869 
L 277.981951 184.339081 
L 278.17829 184.504834 
L 278.408597 184.758943 
L 278.197969 186.497783 
L 277.94533 187.130195 
L 277.82908 188.081554 
L 277.477555 188.203238 
L 277.415757 188.211764 
L 277.439569 188.30927 
L 277.520968 189.362937 
L 277.763884 189.567692 
L 277.786273 189.573724 
L 277.786273 189.573724 
" style="fill:none;stroke:#9467bd;stroke-linecap:square;stroke-width:1.5;"/>
   </g>
   <g id="legend_1">
    <g id="patch_6">
     <path d="M 284.7575 115.950625 
L 323.12 115.950625 
Q 325.12 115.950625 325.12 113.950625 
L 325.12 41.56 
Q 325.12 39.56 323.12 39.56 
L 284.7575 39.56 
Q 282.7575 39.56 282.7575 41.56 
L 282.7575 113.950625 
Q 282.7575 115.950625 284.7575 115.950625 
z
" style="fill:#ffffff;opacity:0.8;stroke:#cccccc;stroke-linejoin:miter;"/>
    </g>
    <g id="line2d_22">
     <path d="M 286.7575 47.658437 
L 306.7575 47.658437 
" style="fill:none;stroke:#1f77b4;stroke-linecap:square;stroke-width:1.5;"/>
    </g>
    <g id="line2d_23"/>
    <g id="text_14">
     <!-- 0 -->
     <g transform="translate(314.7575 51.158437)scale(0.1 -0.1)">
      <use xlink:href="#DejaVuSans-48"/>
     </g>
    </g>
    <g id="line2d_24">
     <path d="M 286.7575 62.336562 
L 306.7575 62.336562 
" style="fill:none;stroke:#ff7f0e;stroke-linecap:square;stroke-width:1.5;"/>
    </g>
    <g id="line2d_25"/>
    <g id="text_15">
     <!-- 1 -->
     <g transform="translate(314.7575 65.836562)scale(0.1 -0.1)">
      <use xlink:href="#DejaVuSans-49"/>
     </g>
    </g>
    <g id="line2d_26">
     <path d="M 286.7575 77.014687 
L 306.7575 77.014687 
" style="fill:none;stroke:#2ca02c;stroke-linecap:square;stroke-width:1.5;"/>
    </g>
    <g id="line2d_27"/>
    <g id="text_16">
     <!-- 2 -->
     <g transform="translate(314.7575 80.514687)scale(0.1 -0.1)">
      <use xlink:href="#DejaVuSans-50"/>
     </g>
    </g>
    <g id="line2d_28">
     <path d="M 286.7575 91.692813 
L 306.7575 91.692813 
" style="fill:none;stroke:#d62728;stroke-linecap:square;stroke-width:1.5;"/>
    </g>
    <g id="line2d_29"/>
    <g id="text_17">
     <!-- 3 -->
     <g transform="translate(314.7575 95.192813)scale(0.1 -0.1)">
      <use xlink:href="#DejaVuSans-51"/>
     </g>
    </g>
    <g id="line2d_30">
     <path d="M 286.7575 106.370937 
L 306.7575 106.370937 
" style="fill:none;stroke:#9467bd;stroke-linecap:square;stroke-width:1.5;"/>
    </g>
    <g id="line2d_31"/>
    <g id="text_18">
     <!-- 4 -->
     <g transform="translate(314.7575 109.870937)scale(0.1 -0.1)">
      <use xlink:href="#DejaVuSans-52"/>
     </g>
    </g>
   </g>
  </g>
 </g>
 <defs>
  <clipPath id="p44961bf0bb">
   <rect height="217.44" width="217.44" x="112.68" y="34.56"/>
  </clipPath>
 </defs>
</svg>
