<?xml version="1.0" encoding="utf-8" standalone="no"?>
<!DOCTYPE svg PUBLIC "-//W3C//DTD SVG 1.1//EN"
  "http://www.w3.org/Graphics/SVG/1.1/DTD/svg11.dtd">
<!-- Created with matplotlib (https://matplotlib.org/) -->
<svg height="288pt" version="1.1" viewBox="0 0 432 288" width="432pt" xmlns="http://www.w3.org/2000/svg" xmlns:xlink="http://www.w3.org/1999/xlink">
 <metadata>
  <rdf:RDF xmlns:cc="http://creativecommons.org/ns#" xmlns:dc="http://purl.org/dc/elements/1.1/" xmlns:rdf="http://www.w3.org/1999/02/22-rdf-syntax-ns#">
   <cc:Work>
    <dc:type rdf:resource="http://purl.org/dc/dcmitype/StillImage"/>
    <dc:date>2021-11-10T17:41:41.217272</dc:date>
    <dc:format>image/svg+xml</dc:format>
    <dc:creator>
     <cc:Agent>
      <dc:title>Matplotlib v3.3.4, https://matplotlib.org/</dc:title>
     </cc:Agent>
    </dc:creator>
   </cc:Work>
  </rdf:RDF>
 </metadata>
 <defs>
  <style type="text/css">*{stroke-linecap:butt;stroke-linejoin:round;}</style>
 </defs>
 <g id="figure_1">
  <g id="patch_1">
   <path d="M 0 288 
L 432 288 
L 432 0 
L 0 0 
z
" style="fill:none;"/>
  </g>
  <g id="patch_2">
   <path d="M 112.68 252 
L 330.12 252 
L 330.12 34.56 
L 112.68 34.56 
z
" style="fill:#ffffff;"/>
  </g>
  <g id="pane3d_1">
   <g id="patch_3">
    <path d="M 129.09822 198.386264 
L 200.904009 138.197228 
L 199.90584 51.393878 
L 124.663773 106.302111 
" style="fill:#f2f2f2;opacity:0.5;stroke:#f2f2f2;stroke-linejoin:miter;"/>
   </g>
  </g>
  <g id="pane3d_2">
   <g id="patch_4">
    <path d="M 200.904009 138.197228 
L 316.12668 171.68791 
L 320.238571 81.894718 
L 199.90584 51.393878 
" style="fill:#e6e6e6;opacity:0.5;stroke:#e6e6e6;stroke-linejoin:miter;"/>
   </g>
  </g>
  <g id="pane3d_3">
   <g id="patch_5">
    <path d="M 129.09822 198.386264 
L 251.239879 238.27773 
L 316.12668 171.68791 
L 200.904009 138.197228 
" style="fill:#ececec;opacity:0.5;stroke:#ececec;stroke-linejoin:miter;"/>
   </g>
  </g>
  <g id="axis3d_1">
   <g id="line2d_1">
    <path d="M 129.09822 198.386264 
L 251.239879 238.27773 
" style="fill:none;stroke:#000000;stroke-linecap:square;stroke-width:0.8;"/>
   </g>
   <g id="Line3DCollection_1">
    <path d="M 143.966651 203.242294 
L 214.984663 142.289918 
L 214.583735 55.114296 
" style="fill:none;stroke:#b0b0b0;stroke-width:0.8;"/>
    <path d="M 166.878765 210.72539 
L 236.653163 148.588096 
L 237.186109 60.843339 
" style="fill:none;stroke:#b0b0b0;stroke-width:0.8;"/>
    <path d="M 190.258051 218.361065 
L 258.726481 155.003938 
L 260.229199 66.684091 
" style="fill:none;stroke:#b0b0b0;stroke-width:0.8;"/>
    <path d="M 214.118943 226.154033 
L 281.216069 161.540773 
L 283.726024 72.639851 
" style="fill:none;stroke:#b0b0b0;stroke-width:0.8;"/>
    <path d="M 238.476479 234.109204 
L 304.133812 168.202056 
L 307.690118 78.714051 
" style="fill:none;stroke:#b0b0b0;stroke-width:0.8;"/>
   </g>
   <g id="xtick_1">
    <g id="line2d_2">
     <path d="M 144.585237 202.711382 
L 142.726814 204.306404 
" style="fill:none;stroke:#000000;stroke-linecap:square;stroke-width:0.8;"/>
    </g>
    <g id="text_1">
     <!-- 1.2 -->
     <g transform="translate(128.488906 226.627823)scale(0.1 -0.1)">
      <defs>
       <path d="M 12.40625 8.296875 
L 28.515625 8.296875 
L 28.515625 63.921875 
L 10.984375 60.40625 
L 10.984375 69.390625 
L 28.421875 72.90625 
L 38.28125 72.90625 
L 38.28125 8.296875 
L 54.390625 8.296875 
L 54.390625 0 
L 12.40625 0 
z
" id="DejaVuSans-49"/>
       <path d="M 10.6875 12.40625 
L 21 12.40625 
L 21 0 
L 10.6875 0 
z
" id="DejaVuSans-46"/>
       <path d="M 19.1875 8.296875 
L 53.609375 8.296875 
L 53.609375 0 
L 7.328125 0 
L 7.328125 8.296875 
Q 12.9375 14.109375 22.625 23.890625 
Q 32.328125 33.6875 34.8125 36.53125 
Q 39.546875 41.84375 41.421875 45.53125 
Q 43.3125 49.21875 43.3125 52.78125 
Q 43.3125 58.59375 39.234375 62.25 
Q 35.15625 65.921875 28.609375 65.921875 
Q 23.96875 65.921875 18.8125 64.3125 
Q 13.671875 62.703125 7.8125 59.421875 
L 7.8125 69.390625 
Q 13.765625 71.78125 18.9375 73 
Q 24.125 74.21875 28.421875 74.21875 
Q 39.75 74.21875 46.484375 68.546875 
Q 53.21875 62.890625 53.21875 53.421875 
Q 53.21875 48.921875 51.53125 44.890625 
Q 49.859375 40.875 45.40625 35.40625 
Q 44.1875 33.984375 37.640625 27.21875 
Q 31.109375 20.453125 19.1875 8.296875 
z
" id="DejaVuSans-50"/>
      </defs>
      <use xlink:href="#DejaVuSans-49"/>
      <use x="63.623047" xlink:href="#DejaVuSans-46"/>
      <use x="95.410156" xlink:href="#DejaVuSans-50"/>
     </g>
    </g>
   </g>
   <g id="xtick_2">
    <g id="line2d_3">
     <path d="M 167.487019 210.183712 
L 165.659611 211.811103 
" style="fill:none;stroke:#000000;stroke-linecap:square;stroke-width:0.8;"/>
    </g>
    <g id="text_2">
     <!-- 1.3 -->
     <g transform="translate(151.430444 234.305508)scale(0.1 -0.1)">
      <defs>
       <path d="M 40.578125 39.3125 
Q 47.65625 37.796875 51.625 33 
Q 55.609375 28.21875 55.609375 21.1875 
Q 55.609375 10.40625 48.1875 4.484375 
Q 40.765625 -1.421875 27.09375 -1.421875 
Q 22.515625 -1.421875 17.65625 -0.515625 
Q 12.796875 0.390625 7.625 2.203125 
L 7.625 11.71875 
Q 11.71875 9.328125 16.59375 8.109375 
Q 21.484375 6.890625 26.8125 6.890625 
Q 36.078125 6.890625 40.9375 10.546875 
Q 45.796875 14.203125 45.796875 21.1875 
Q 45.796875 27.640625 41.28125 31.265625 
Q 36.765625 34.90625 28.71875 34.90625 
L 20.21875 34.90625 
L 20.21875 43.015625 
L 29.109375 43.015625 
Q 36.375 43.015625 40.234375 45.921875 
Q 44.09375 48.828125 44.09375 54.296875 
Q 44.09375 59.90625 40.109375 62.90625 
Q 36.140625 65.921875 28.71875 65.921875 
Q 24.65625 65.921875 20.015625 65.03125 
Q 15.375 64.15625 9.8125 62.3125 
L 9.8125 71.09375 
Q 15.4375 72.65625 20.34375 73.4375 
Q 25.25 74.21875 29.59375 74.21875 
Q 40.828125 74.21875 47.359375 69.109375 
Q 53.90625 64.015625 53.90625 55.328125 
Q 53.90625 49.265625 50.4375 45.09375 
Q 46.96875 40.921875 40.578125 39.3125 
z
" id="DejaVuSans-51"/>
      </defs>
      <use xlink:href="#DejaVuSans-49"/>
      <use x="63.623047" xlink:href="#DejaVuSans-46"/>
      <use x="95.410156" xlink:href="#DejaVuSans-51"/>
     </g>
    </g>
   </g>
   <g id="xtick_3">
    <g id="line2d_4">
     <path d="M 190.855421 217.80829 
L 189.060686 219.469044 
" style="fill:none;stroke:#000000;stroke-linecap:square;stroke-width:0.8;"/>
    </g>
    <g id="text_3">
     <!-- 1.4 -->
     <g transform="translate(174.841935 242.140469)scale(0.1 -0.1)">
      <defs>
       <path d="M 37.796875 64.3125 
L 12.890625 25.390625 
L 37.796875 25.390625 
z
M 35.203125 72.90625 
L 47.609375 72.90625 
L 47.609375 25.390625 
L 58.015625 25.390625 
L 58.015625 17.1875 
L 47.609375 17.1875 
L 47.609375 0 
L 37.796875 0 
L 37.796875 17.1875 
L 4.890625 17.1875 
L 4.890625 26.703125 
z
" id="DejaVuSans-52"/>
      </defs>
      <use xlink:href="#DejaVuSans-49"/>
      <use x="63.623047" xlink:href="#DejaVuSans-46"/>
      <use x="95.410156" xlink:href="#DejaVuSans-52"/>
     </g>
    </g>
   </g>
   <g id="xtick_4">
    <g id="line2d_5">
     <path d="M 214.704849 225.589816 
L 212.94453 227.28497 
" style="fill:none;stroke:#000000;stroke-linecap:square;stroke-width:0.8;"/>
    </g>
    <g id="text_4">
     <!-- 1.5 -->
     <g transform="translate(198.737967 250.137589)scale(0.1 -0.1)">
      <defs>
       <path d="M 10.796875 72.90625 
L 49.515625 72.90625 
L 49.515625 64.59375 
L 19.828125 64.59375 
L 19.828125 46.734375 
Q 21.96875 47.46875 24.109375 47.828125 
Q 26.265625 48.1875 28.421875 48.1875 
Q 40.625 48.1875 47.75 41.5 
Q 54.890625 34.8125 54.890625 23.390625 
Q 54.890625 11.625 47.5625 5.09375 
Q 40.234375 -1.421875 26.90625 -1.421875 
Q 22.3125 -1.421875 17.546875 -0.640625 
Q 12.796875 0.140625 7.71875 1.703125 
L 7.71875 11.625 
Q 12.109375 9.234375 16.796875 8.0625 
Q 21.484375 6.890625 26.703125 6.890625 
Q 35.15625 6.890625 40.078125 11.328125 
Q 45.015625 15.765625 45.015625 23.390625 
Q 45.015625 31 40.078125 35.4375 
Q 35.15625 39.890625 26.703125 39.890625 
Q 22.75 39.890625 18.8125 39.015625 
Q 14.890625 38.140625 10.796875 36.28125 
z
" id="DejaVuSans-53"/>
      </defs>
      <use xlink:href="#DejaVuSans-49"/>
      <use x="63.623047" xlink:href="#DejaVuSans-46"/>
      <use x="95.410156" xlink:href="#DejaVuSans-53"/>
     </g>
    </g>
   </g>
   <g id="xtick_5">
    <g id="line2d_6">
     <path d="M 239.050312 233.533187 
L 237.326238 235.263821 
" style="fill:none;stroke:#000000;stroke-linecap:square;stroke-width:0.8;"/>
    </g>
    <g id="text_5">
     <!-- 1.6 -->
     <g transform="translate(223.133742 258.301953)scale(0.1 -0.1)">
      <defs>
       <path d="M 33.015625 40.375 
Q 26.375 40.375 22.484375 35.828125 
Q 18.609375 31.296875 18.609375 23.390625 
Q 18.609375 15.53125 22.484375 10.953125 
Q 26.375 6.390625 33.015625 6.390625 
Q 39.65625 6.390625 43.53125 10.953125 
Q 47.40625 15.53125 47.40625 23.390625 
Q 47.40625 31.296875 43.53125 35.828125 
Q 39.65625 40.375 33.015625 40.375 
z
M 52.59375 71.296875 
L 52.59375 62.3125 
Q 48.875 64.0625 45.09375 64.984375 
Q 41.3125 65.921875 37.59375 65.921875 
Q 27.828125 65.921875 22.671875 59.328125 
Q 17.53125 52.734375 16.796875 39.40625 
Q 19.671875 43.65625 24.015625 45.921875 
Q 28.375 48.1875 33.59375 48.1875 
Q 44.578125 48.1875 50.953125 41.515625 
Q 57.328125 34.859375 57.328125 23.390625 
Q 57.328125 12.15625 50.6875 5.359375 
Q 44.046875 -1.421875 33.015625 -1.421875 
Q 20.359375 -1.421875 13.671875 8.265625 
Q 6.984375 17.96875 6.984375 36.375 
Q 6.984375 53.65625 15.1875 63.9375 
Q 23.390625 74.21875 37.203125 74.21875 
Q 40.921875 74.21875 44.703125 73.484375 
Q 48.484375 72.75 52.59375 71.296875 
z
" id="DejaVuSans-54"/>
      </defs>
      <use xlink:href="#DejaVuSans-49"/>
      <use x="63.623047" xlink:href="#DejaVuSans-46"/>
      <use x="95.410156" xlink:href="#DejaVuSans-54"/>
     </g>
    </g>
   </g>
  </g>
  <g id="axis3d_2">
   <g id="line2d_7">
    <path d="M 316.12668 171.68791 
L 251.239879 238.27773 
" style="fill:none;stroke:#000000;stroke-linecap:square;stroke-width:0.8;"/>
   </g>
   <g id="Line3DCollection_2">
    <path d="M 137.380492 97.022029 
L 141.195925 188.245728 
L 262.212078 227.017554 
" style="fill:none;stroke:#b0b0b0;stroke-width:0.8;"/>
    <path d="M 153.37207 85.352103 
L 156.431109 175.475294 
L 276.006629 212.860952 
" style="fill:none;stroke:#b0b0b0;stroke-width:0.8;"/>
    <path d="M 168.786715 74.103198 
L 171.139933 163.146067 
L 289.300079 199.218602 
" style="fill:none;stroke:#b0b0b0;stroke-width:0.8;"/>
    <path d="M 183.655094 63.252932 
L 185.349209 151.235569 
L 302.119248 186.062981 
" style="fill:none;stroke:#b0b0b0;stroke-width:0.8;"/>
    <path d="M 198.005741 52.780483 
L 199.083964 139.722826 
L 314.489071 173.368499 
" style="fill:none;stroke:#b0b0b0;stroke-width:0.8;"/>
   </g>
   <g id="xtick_6">
    <g id="line2d_8">
     <path d="M 261.192717 226.690965 
L 264.253415 227.671569 
" style="fill:none;stroke:#000000;stroke-linecap:square;stroke-width:0.8;"/>
    </g>
    <g id="text_6">
     <!-- −0.2 -->
     <g transform="translate(262.846637 247.920463)scale(0.1 -0.1)">
      <defs>
       <path d="M 10.59375 35.5 
L 73.1875 35.5 
L 73.1875 27.203125 
L 10.59375 27.203125 
z
" id="DejaVuSans-8722"/>
       <path d="M 31.78125 66.40625 
Q 24.171875 66.40625 20.328125 58.90625 
Q 16.5 51.421875 16.5 36.375 
Q 16.5 21.390625 20.328125 13.890625 
Q 24.171875 6.390625 31.78125 6.390625 
Q 39.453125 6.390625 43.28125 13.890625 
Q 47.125 21.390625 47.125 36.375 
Q 47.125 51.421875 43.28125 58.90625 
Q 39.453125 66.40625 31.78125 66.40625 
z
M 31.78125 74.21875 
Q 44.046875 74.21875 50.515625 64.515625 
Q 56.984375 54.828125 56.984375 36.375 
Q 56.984375 17.96875 50.515625 8.265625 
Q 44.046875 -1.421875 31.78125 -1.421875 
Q 19.53125 -1.421875 13.0625 8.265625 
Q 6.59375 17.96875 6.59375 36.375 
Q 6.59375 54.828125 13.0625 64.515625 
Q 19.53125 74.21875 31.78125 74.21875 
z
" id="DejaVuSans-48"/>
      </defs>
      <use xlink:href="#DejaVuSans-8722"/>
      <use x="83.789062" xlink:href="#DejaVuSans-48"/>
      <use x="147.412109" xlink:href="#DejaVuSans-46"/>
      <use x="179.199219" xlink:href="#DejaVuSans-50"/>
     </g>
    </g>
   </g>
   <g id="xtick_7">
    <g id="line2d_9">
     <path d="M 275.000338 212.546332 
L 278.021742 213.490984 
" style="fill:none;stroke:#000000;stroke-linecap:square;stroke-width:0.8;"/>
    </g>
    <g id="text_7">
     <!-- 0.0 -->
     <g transform="translate(280.604358 233.507472)scale(0.1 -0.1)">
      <use xlink:href="#DejaVuSans-48"/>
      <use x="63.623047" xlink:href="#DejaVuSans-46"/>
      <use x="95.410156" xlink:href="#DejaVuSans-48"/>
     </g>
    </g>
   </g>
   <g id="xtick_8">
    <g id="line2d_10">
     <path d="M 288.306591 198.915304 
L 291.28951 199.825945 
" style="fill:none;stroke:#000000;stroke-linecap:square;stroke-width:0.8;"/>
    </g>
    <g id="text_8">
     <!-- 0.2 -->
     <g transform="translate(293.679025 219.618412)scale(0.1 -0.1)">
      <use xlink:href="#DejaVuSans-48"/>
      <use x="63.623047" xlink:href="#DejaVuSans-46"/>
      <use x="95.410156" xlink:href="#DejaVuSans-50"/>
     </g>
    </g>
   </g>
   <g id="xtick_9">
    <g id="line2d_11">
     <path d="M 301.138297 185.770406 
L 304.083529 186.648841 
" style="fill:none;stroke:#000000;stroke-linecap:square;stroke-width:0.8;"/>
    </g>
    <g id="text_9">
     <!-- 0.4 -->
     <g transform="translate(306.286894 206.225224)scale(0.1 -0.1)">
      <use xlink:href="#DejaVuSans-48"/>
      <use x="63.623047" xlink:href="#DejaVuSans-46"/>
      <use x="95.410156" xlink:href="#DejaVuSans-52"/>
     </g>
    </g>
   </g>
   <g id="xtick_10">
    <g id="line2d_12">
     <path d="M 313.520397 173.086088 
L 316.428729 173.933995 
" style="fill:none;stroke:#000000;stroke-linecap:square;stroke-width:0.8;"/>
    </g>
    <g id="text_10">
     <!-- 0.6 -->
     <g transform="translate(318.452526 193.30182)scale(0.1 -0.1)">
      <use xlink:href="#DejaVuSans-48"/>
      <use x="63.623047" xlink:href="#DejaVuSans-46"/>
      <use x="95.410156" xlink:href="#DejaVuSans-54"/>
     </g>
    </g>
   </g>
  </g>
  <g id="axis3d_3">
   <g id="line2d_13">
    <path d="M 316.12668 171.68791 
L 320.238571 81.894718 
" style="fill:none;stroke:#000000;stroke-linecap:square;stroke-width:0.8;"/>
   </g>
   <g id="Line3DCollection_3">
    <path d="M 317.171597 148.869592 
L 200.649954 116.10394 
L 127.972751 175.015183 
" style="fill:none;stroke:#b0b0b0;stroke-width:0.8;"/>
    <path d="M 318.172304 127.016711 
L 200.406903 94.967634 
L 126.893997 152.61415 
" style="fill:none;stroke:#b0b0b0;stroke-width:0.8;"/>
    <path d="M 319.19482 104.687564 
L 200.158813 73.393101 
L 125.790817 129.705908 
" style="fill:none;stroke:#b0b0b0;stroke-width:0.8;"/>
   </g>
   <g id="xtick_11">
    <g id="line2d_14">
     <path d="M 316.193139 148.594451 
L 319.130867 149.420535 
" style="fill:none;stroke:#000000;stroke-linecap:square;stroke-width:0.8;"/>
    </g>
    <g id="text_11">
     <!-- 0.2 -->
     <g transform="translate(327.659393 153.919875)scale(0.1 -0.1)">
      <use xlink:href="#DejaVuSans-48"/>
      <use x="63.623047" xlink:href="#DejaVuSans-46"/>
      <use x="95.410156" xlink:href="#DejaVuSans-50"/>
     </g>
    </g>
   </g>
   <g id="xtick_12">
    <g id="line2d_15">
     <path d="M 317.182898 126.74745 
L 320.153523 127.555886 
" style="fill:none;stroke:#000000;stroke-linecap:square;stroke-width:0.8;"/>
    </g>
    <g id="text_12">
     <!-- 0.4 -->
     <g transform="translate(328.854373 132.121539)scale(0.1 -0.1)">
      <use xlink:href="#DejaVuSans-48"/>
      <use x="63.623047" xlink:href="#DejaVuSans-46"/>
      <use x="95.410156" xlink:href="#DejaVuSans-52"/>
     </g>
    </g>
   </g>
   <g id="xtick_13">
    <g id="line2d_16">
     <path d="M 318.194218 104.424506 
L 321.198484 105.214325 
" style="fill:none;stroke:#000000;stroke-linecap:square;stroke-width:0.8;"/>
    </g>
    <g id="text_13">
     <!-- 0.6 -->
     <g transform="translate(330.075298 109.849927)scale(0.1 -0.1)">
      <use xlink:href="#DejaVuSans-48"/>
      <use x="63.623047" xlink:href="#DejaVuSans-46"/>
      <use x="95.410156" xlink:href="#DejaVuSans-54"/>
     </g>
    </g>
   </g>
  </g>
  <g id="axes_1">
   <g id="line2d_17">
    <path clip-path="url(#pa3a3c3e56d)" d="M 230.392118 98.979202 
L 232.404981 100.726381 
L 235.66433 103.263615 
L 239.745794 106.480508 
L 241.609147 108.190656 
L 243.38584 110.144156 
L 249.838719 118.005484 
L 252.107729 121.11405 
L 254.438746 124.797526 
L 257.050817 129.640303 
L 258.486925 132.707711 
L 259.99543 136.978217 
L 262.329337 144.316829 
L 262.75112 146.79289 
L 263.138837 151.41819 
L 263.300768 156.105092 
L 263.346577 158.757448 
L 263.897295 164.807799 
L 264.236868 169.473577 
L 264.188238 171.801261 
L 263.936375 173.114202 
L 263.505998 174.192097 
L 262.937976 175.104617 
L 261.867817 176.447455 
L 260.791394 178.671108 
L 259.635643 183.129527 
L 259.396013 183.108074 
L 259.019023 182.658742 
L 258.523501 182.058614 
L 258.525852 182.22798 
L 258.619905 182.712855 
L 259.915994 184.602019 
L 259.210613 183.755865 
L 258.784028 183.239672 
L 259.047852 183.739653 
L 258.911184 184.501395 
L 258.844539 184.127802 
L 258.491111 183.311311 
L 258.438261 183.368158 
L 258.320815 183.376414 
L 258.302213 183.353152 
L 258.24857 183.229847 
L 258.187447 183.382403 
L 258.096558 183.423581 
L 258.059133 183.396382 
L 257.941228 183.173706 
L 257.831433 182.811508 
L 257.75506 182.881155 
L 257.477698 183.137964 
L 257.477698 183.137964 
" style="fill:none;stroke:#1f77b4;stroke-linecap:square;stroke-width:1.5;"/>
   </g>
   <g id="line2d_18">
    <path clip-path="url(#pa3a3c3e56d)" d="M 274.992535 119.137603 
L 275.177401 120.334808 
L 275.525843 121.60599 
L 276.624864 125.435017 
L 277.89558 131.574538 
L 278.153881 134.184003 
L 278.136915 136.900456 
L 277.864038 139.803965 
L 277.165291 143.24856 
L 276.548752 145.570682 
L 275.763795 147.580184 
L 274.558717 149.981635 
L 272.964689 152.98686 
L 270.706717 158.412714 
L 268.917674 162.647783 
L 267.226645 165.700974 
L 263.139014 172.756902 
L 262.97739 173.536864 
L 263.143279 174.358853 
L 263.604472 175.321298 
L 264.713913 176.810373 
L 264.868116 177.190079 
L 264.661649 177.930209 
L 264.038563 179.280997 
L 262.924836 180.679948 
L 262.093902 181.336345 
L 261.614779 181.852588 
L 261.632097 181.999136 
L 261.659737 182.00913 
L 262.177834 182.015336 
L 262.931396 181.842755 
L 264.146055 181.499044 
L 264.994662 181.407119 
L 266.118837 181.431654 
L 266.291042 181.695615 
L 266.221854 182.10678 
L 265.955199 182.480282 
L 262.720295 186.073456 
L 262.776364 186.072987 
L 262.985674 186.053155 
L 262.941147 185.980726 
L 262.651701 185.605585 
L 261.208048 185.566296 
L 260.776887 185.583964 
L 260.833869 185.625482 
L 261.356873 186.025497 
L 261.097859 186.560379 
L 260.678975 187.08688 
L 260.732287 186.827666 
L 260.805783 186.652136 
L 260.820024 186.460025 
L 260.43064 186.264842 
L 260.382404 186.412835 
L 260.385903 186.418056 
L 260.423044 186.545306 
L 260.365584 186.560617 
L 260.092712 186.513729 
L 259.880635 186.517669 
L 259.747819 186.636404 
L 259.707371 186.551696 
L 259.673685 186.32071 
L 259.674916 186.131826 
L 259.636806 185.842959 
L 259.604787 185.876484 
L 259.326642 185.87516 
L 259.298302 185.834632 
L 259.298302 185.834632 
" style="fill:none;stroke:#ff7f0e;stroke-linecap:square;stroke-width:1.5;"/>
   </g>
   <g id="line2d_19">
    <path clip-path="url(#pa3a3c3e56d)" d="M 265.251062 188.84679 
L 265.307715 189.879355 
L 265.663187 191.781511 
L 266.398687 194.159365 
L 266.669268 194.449876 
L 266.69045 194.363404 
L 266.610182 193.948297 
L 266.267767 193.036586 
L 265.945109 192.710069 
L 265.605562 192.675261 
L 265.063809 192.810781 
L 264.832406 193.077684 
L 264.344575 194.144283 
L 264.28147 194.88297 
L 264.414795 195.674803 
L 264.806962 198.01417 
L 264.729852 197.984542 
L 264.351282 197.523412 
L 263.687588 196.298002 
L 263.32158 195.759622 
L 262.796591 195.027577 
L 261.968839 193.899956 
L 261.226738 192.942555 
L 260.526026 191.690129 
L 260.315524 190.895578 
L 260.523765 189.80742 
L 261.04185 188.562653 
L 262.569379 185.957224 
L 263.594668 183.845543 
L 264.526786 181.446654 
L 264.88905 179.974128 
L 264.913393 178.984658 
L 264.7485 178.199918 
L 264.147182 176.638004 
L 263.445102 175.401917 
L 262.966215 174.911397 
L 262.855746 175.048238 
L 262.814101 175.514527 
L 262.828387 177.987736 
L 262.646546 178.457496 
L 262.310087 178.905609 
L 261.829534 179.273044 
L 262.221982 180.080422 
L 262.767511 181.459444 
L 262.362953 181.738392 
L 262.363822 181.73881 
L 262.485105 182.04343 
L 262.879198 182.188907 
L 263.015558 182.241133 
L 263.264915 182.511424 
L 264.076422 183.931684 
L 263.892696 184.624613 
L 263.962911 184.942249 
L 264.146895 185.390355 
L 264.240459 185.673955 
L 264.3363 185.610456 
L 264.501631 185.71047 
L 264.582325 186.169359 
L 264.567244 186.171552 
" style="fill:none;stroke:#2ca02c;stroke-linecap:square;stroke-width:1.5;"/>
   </g>
   <g id="line2d_20">
    <path clip-path="url(#pa3a3c3e56d)" d="M 223.370599 102.551576 
L 229.501942 107.872023 
L 232.874549 111.082164 
L 238.202347 116.448752 
L 241.975437 120.564843 
L 244.474261 123.645193 
L 247.80153 128.285804 
L 251.978452 134.935093 
L 253.963252 138.325162 
L 256.928754 143.945935 
L 258.418351 147.192008 
L 259.839025 150.824674 
L 261.343543 155.393286 
L 262.119801 158.347552 
L 262.56541 161.151686 
L 262.541167 162.324583 
L 262.228479 163.28131 
L 261.293228 164.267828 
L 261.241455 165.019228 
L 261.434169 165.95898 
L 262.148157 168.336303 
L 264.252881 174.679477 
L 264.835003 175.80761 
L 265.475361 177.168726 
L 267.570026 182.936978 
L 268.191662 186.611727 
L 268.264581 186.801388 
L 268.225389 186.807678 
L 268.392915 187.271516 
L 268.200937 186.781968 
L 268.399998 187.256231 
L 268.415562 187.260704 
L 268.331969 187.469487 
L 269.112677 189.530422 
L 269.092078 189.732622 
L 269.092078 189.732622 
" style="fill:none;stroke:#d62728;stroke-linecap:square;stroke-width:1.5;"/>
   </g>
   <g id="line2d_21">
    <path clip-path="url(#pa3a3c3e56d)" d="M 140.778275 125.397483 
L 144.489265 129.638687 
L 146.366562 131.630525 
L 152.217835 138.347864 
L 154.466222 140.79972 
L 156.794511 142.9622 
L 159.536388 145.069313 
L 162.206258 146.753693 
L 166.638734 149.441502 
L 169.574187 151.538898 
L 171.346008 153.075909 
L 173.55635 155.235729 
L 177.80686 159.728059 
L 180.501092 162.458105 
L 182.330275 163.892811 
L 183.808782 164.77166 
L 186.475648 165.965773 
L 188.89095 166.662285 
L 191.80238 167.194706 
L 194.849069 167.532247 
L 200.312071 168.16385 
L 203.145439 168.815875 
L 205.782909 169.720756 
L 208.968106 171.298282 
L 211.474555 172.624769 
L 213.927667 174.141777 
L 216.100825 175.934248 
L 218.591758 178.248664 
L 220.808771 180.733595 
L 223.157465 183.483312 
L 226.394838 187.288893 
L 227.652759 188.527193 
L 228.728729 189.326422 
L 229.611766 189.821068 
L 231.81642 190.62944 
L 232.627164 190.696862 
L 233.875674 190.574021 
L 235.424322 190.205863 
L 236.911124 189.701831 
L 239.420941 188.456416 
L 244.240498 185.85364 
L 246.597812 184.968699 
L 247.989507 184.727236 
L 249.719507 184.722844 
L 251.504966 184.633261 
L 252.659334 184.345569 
L 255.535774 183.285292 
L 256.164132 183.006783 
L 257.615531 182.594849 
L 259.535148 182.672576 
L 260.160911 182.912783 
L 260.67663 183.365772 
L 260.979265 183.861682 
L 262.309955 186.707411 
L 263.268318 188.183014 
L 263.497907 188.27179 
L 263.504892 188.264046 
L 263.726566 188.143163 
L 264.025399 188.472269 
L 265.231636 190.360343 
L 265.502523 190.85143 
L 265.764047 191.517145 
L 265.636171 191.756509 
L 265.630181 191.826371 
L 265.647343 191.868428 
L 265.822502 192.436321 
L 266.060929 192.903039 
L 266.370458 193.308856 
L 266.326309 193.090763 
L 266.500996 193.08197 
L 266.539764 193.23802 
L 266.567482 193.657925 
L 266.426433 193.36262 
L 265.299011 191.843899 
L 264.830834 191.073781 
L 264.119177 189.876224 
L 263.360426 188.976328 
L 263.348735 188.998416 
L 263.392672 189.398702 
L 263.391997 189.398943 
L 263.482542 189.553096 
L 263.483339 189.552492 
L 263.921849 189.959139 
L 263.934466 189.952438 
L 263.934466 189.952438 
" style="fill:none;stroke:#9467bd;stroke-linecap:square;stroke-width:1.5;"/>
   </g>
   <g id="legend_1">
    <g id="patch_6">
     <path d="M 284.7575 115.950625 
L 323.12 115.950625 
Q 325.12 115.950625 325.12 113.950625 
L 325.12 41.56 
Q 325.12 39.56 323.12 39.56 
L 284.7575 39.56 
Q 282.7575 39.56 282.7575 41.56 
L 282.7575 113.950625 
Q 282.7575 115.950625 284.7575 115.950625 
z
" style="fill:#ffffff;opacity:0.8;stroke:#cccccc;stroke-linejoin:miter;"/>
    </g>
    <g id="line2d_22">
     <path d="M 286.7575 47.658437 
L 306.7575 47.658437 
" style="fill:none;stroke:#1f77b4;stroke-linecap:square;stroke-width:1.5;"/>
    </g>
    <g id="line2d_23"/>
    <g id="text_14">
     <!-- 0 -->
     <g transform="translate(314.7575 51.158437)scale(0.1 -0.1)">
      <use xlink:href="#DejaVuSans-48"/>
     </g>
    </g>
    <g id="line2d_24">
     <path d="M 286.7575 62.336562 
L 306.7575 62.336562 
" style="fill:none;stroke:#ff7f0e;stroke-linecap:square;stroke-width:1.5;"/>
    </g>
    <g id="line2d_25"/>
    <g id="text_15">
     <!-- 1 -->
     <g transform="translate(314.7575 65.836562)scale(0.1 -0.1)">
      <use xlink:href="#DejaVuSans-49"/>
     </g>
    </g>
    <g id="line2d_26">
     <path d="M 286.7575 77.014687 
L 306.7575 77.014687 
" style="fill:none;stroke:#2ca02c;stroke-linecap:square;stroke-width:1.5;"/>
    </g>
    <g id="line2d_27"/>
    <g id="text_16">
     <!-- 2 -->
     <g transform="translate(314.7575 80.514687)scale(0.1 -0.1)">
      <use xlink:href="#DejaVuSans-50"/>
     </g>
    </g>
    <g id="line2d_28">
     <path d="M 286.7575 91.692813 
L 306.7575 91.692813 
" style="fill:none;stroke:#d62728;stroke-linecap:square;stroke-width:1.5;"/>
    </g>
    <g id="line2d_29"/>
    <g id="text_17">
     <!-- 3 -->
     <g transform="translate(314.7575 95.192813)scale(0.1 -0.1)">
      <use xlink:href="#DejaVuSans-51"/>
     </g>
    </g>
    <g id="line2d_30">
     <path d="M 286.7575 106.370937 
L 306.7575 106.370937 
" style="fill:none;stroke:#9467bd;stroke-linecap:square;stroke-width:1.5;"/>
    </g>
    <g id="line2d_31"/>
    <g id="text_18">
     <!-- 4 -->
     <g transform="translate(314.7575 109.870937)scale(0.1 -0.1)">
      <use xlink:href="#DejaVuSans-52"/>
     </g>
    </g>
   </g>
  </g>
 </g>
 <defs>
  <clipPath id="pa3a3c3e56d">
   <rect height="217.44" width="217.44" x="112.68" y="34.56"/>
  </clipPath>
 </defs>
</svg>
