<?xml version="1.0" encoding="utf-8" standalone="no"?>
<!DOCTYPE svg PUBLIC "-//W3C//DTD SVG 1.1//EN"
  "http://www.w3.org/Graphics/SVG/1.1/DTD/svg11.dtd">
<!-- Created with matplotlib (https://matplotlib.org/) -->
<svg height="288pt" version="1.1" viewBox="0 0 432 288" width="432pt" xmlns="http://www.w3.org/2000/svg" xmlns:xlink="http://www.w3.org/1999/xlink">
 <metadata>
  <rdf:RDF xmlns:cc="http://creativecommons.org/ns#" xmlns:dc="http://purl.org/dc/elements/1.1/" xmlns:rdf="http://www.w3.org/1999/02/22-rdf-syntax-ns#">
   <cc:Work>
    <dc:type rdf:resource="http://purl.org/dc/dcmitype/StillImage"/>
    <dc:date>2021-11-10T15:02:06.420291</dc:date>
    <dc:format>image/svg+xml</dc:format>
    <dc:creator>
     <cc:Agent>
      <dc:title>Matplotlib v3.3.4, https://matplotlib.org/</dc:title>
     </cc:Agent>
    </dc:creator>
   </cc:Work>
  </rdf:RDF>
 </metadata>
 <defs>
  <style type="text/css">*{stroke-linecap:butt;stroke-linejoin:round;}</style>
 </defs>
 <g id="figure_1">
  <g id="patch_1">
   <path d="M 0 288 
L 432 288 
L 432 0 
L 0 0 
z
" style="fill:none;"/>
  </g>
  <g id="patch_2">
   <path d="M 112.68 252 
L 330.12 252 
L 330.12 34.56 
L 112.68 34.56 
z
" style="fill:#ffffff;"/>
  </g>
  <g id="pane3d_1">
   <g id="patch_3">
    <path d="M 129.09822 198.386264 
L 200.904009 138.197228 
L 199.90584 51.393878 
L 124.663773 106.302111 
" style="fill:#f2f2f2;opacity:0.5;stroke:#f2f2f2;stroke-linejoin:miter;"/>
   </g>
  </g>
  <g id="pane3d_2">
   <g id="patch_4">
    <path d="M 200.904009 138.197228 
L 316.12668 171.68791 
L 320.238571 81.894718 
L 199.90584 51.393878 
" style="fill:#e6e6e6;opacity:0.5;stroke:#e6e6e6;stroke-linejoin:miter;"/>
   </g>
  </g>
  <g id="pane3d_3">
   <g id="patch_5">
    <path d="M 129.09822 198.386264 
L 251.239879 238.27773 
L 316.12668 171.68791 
L 200.904009 138.197228 
" style="fill:#ececec;opacity:0.5;stroke:#ececec;stroke-linejoin:miter;"/>
   </g>
  </g>
  <g id="axis3d_1">
   <g id="line2d_1">
    <path d="M 129.09822 198.386264 
L 251.239879 238.27773 
" style="fill:none;stroke:#000000;stroke-linecap:square;stroke-width:0.8;"/>
   </g>
   <g id="Line3DCollection_1">
    <path d="M 141.413512 202.408439 
L 212.567876 141.587454 
L 212.0639 54.475592 
" style="fill:none;stroke:#b0b0b0;stroke-width:0.8;"/>
    <path d="M 157.774741 207.752016 
L 228.047587 146.086794 
L 228.2075 58.567524 
" style="fill:none;stroke:#b0b0b0;stroke-width:0.8;"/>
    <path d="M 174.373768 213.173258 
L 243.733561 150.646088 
L 244.575547 62.716347 
" style="fill:none;stroke:#b0b0b0;stroke-width:0.8;"/>
    <path d="M 191.215813 218.67387 
L 259.629948 155.26654 
L 261.172756 66.923255 
" style="fill:none;stroke:#b0b0b0;stroke-width:0.8;"/>
    <path d="M 208.306254 224.255608 
L 275.741011 159.94939 
L 278.003973 71.189478 
" style="fill:none;stroke:#b0b0b0;stroke-width:0.8;"/>
    <path d="M 225.650626 229.92028 
L 292.071129 164.695911 
L 295.074181 75.516278 
" style="fill:none;stroke:#b0b0b0;stroke-width:0.8;"/>
    <path d="M 243.254631 235.669748 
L 308.624799 169.507409 
L 312.388509 79.904956 
" style="fill:none;stroke:#b0b0b0;stroke-width:0.8;"/>
   </g>
   <g id="xtick_1">
    <g id="line2d_2">
     <path d="M 142.033229 201.87872 
L 140.171412 203.470155 
" style="fill:none;stroke:#000000;stroke-linecap:square;stroke-width:0.8;"/>
    </g>
    <g id="text_1">
     <!-- 0.35 -->
     <g transform="translate(122.751369 225.772328)scale(0.1 -0.1)">
      <defs>
       <path d="M 31.78125 66.40625 
Q 24.171875 66.40625 20.328125 58.90625 
Q 16.5 51.421875 16.5 36.375 
Q 16.5 21.390625 20.328125 13.890625 
Q 24.171875 6.390625 31.78125 6.390625 
Q 39.453125 6.390625 43.28125 13.890625 
Q 47.125 21.390625 47.125 36.375 
Q 47.125 51.421875 43.28125 58.90625 
Q 39.453125 66.40625 31.78125 66.40625 
z
M 31.78125 74.21875 
Q 44.046875 74.21875 50.515625 64.515625 
Q 56.984375 54.828125 56.984375 36.375 
Q 56.984375 17.96875 50.515625 8.265625 
Q 44.046875 -1.421875 31.78125 -1.421875 
Q 19.53125 -1.421875 13.0625 8.265625 
Q 6.59375 17.96875 6.59375 36.375 
Q 6.59375 54.828125 13.0625 64.515625 
Q 19.53125 74.21875 31.78125 74.21875 
z
" id="DejaVuSans-48"/>
       <path d="M 10.6875 12.40625 
L 21 12.40625 
L 21 0 
L 10.6875 0 
z
" id="DejaVuSans-46"/>
       <path d="M 40.578125 39.3125 
Q 47.65625 37.796875 51.625 33 
Q 55.609375 28.21875 55.609375 21.1875 
Q 55.609375 10.40625 48.1875 4.484375 
Q 40.765625 -1.421875 27.09375 -1.421875 
Q 22.515625 -1.421875 17.65625 -0.515625 
Q 12.796875 0.390625 7.625 2.203125 
L 7.625 11.71875 
Q 11.71875 9.328125 16.59375 8.109375 
Q 21.484375 6.890625 26.8125 6.890625 
Q 36.078125 6.890625 40.9375 10.546875 
Q 45.796875 14.203125 45.796875 21.1875 
Q 45.796875 27.640625 41.28125 31.265625 
Q 36.765625 34.90625 28.71875 34.90625 
L 20.21875 34.90625 
L 20.21875 43.015625 
L 29.109375 43.015625 
Q 36.375 43.015625 40.234375 45.921875 
Q 44.09375 48.828125 44.09375 54.296875 
Q 44.09375 59.90625 40.109375 62.90625 
Q 36.140625 65.921875 28.71875 65.921875 
Q 24.65625 65.921875 20.015625 65.03125 
Q 15.375 64.15625 9.8125 62.3125 
L 9.8125 71.09375 
Q 15.4375 72.65625 20.34375 73.4375 
Q 25.25 74.21875 29.59375 74.21875 
Q 40.828125 74.21875 47.359375 69.109375 
Q 53.90625 64.015625 53.90625 55.328125 
Q 53.90625 49.265625 50.4375 45.09375 
Q 46.96875 40.921875 40.578125 39.3125 
z
" id="DejaVuSans-51"/>
       <path d="M 10.796875 72.90625 
L 49.515625 72.90625 
L 49.515625 64.59375 
L 19.828125 64.59375 
L 19.828125 46.734375 
Q 21.96875 47.46875 24.109375 47.828125 
Q 26.265625 48.1875 28.421875 48.1875 
Q 40.625 48.1875 47.75 41.5 
Q 54.890625 34.8125 54.890625 23.390625 
Q 54.890625 11.625 47.5625 5.09375 
Q 40.234375 -1.421875 26.90625 -1.421875 
Q 22.3125 -1.421875 17.546875 -0.640625 
Q 12.796875 0.140625 7.71875 1.703125 
L 7.71875 11.625 
Q 12.109375 9.234375 16.796875 8.0625 
Q 21.484375 6.890625 26.703125 6.890625 
Q 35.15625 6.890625 40.078125 11.328125 
Q 45.015625 15.765625 45.015625 23.390625 
Q 45.015625 31 40.078125 35.4375 
Q 35.15625 39.890625 26.703125 39.890625 
Q 22.75 39.890625 18.8125 39.015625 
Q 14.890625 38.140625 10.796875 36.28125 
z
" id="DejaVuSans-53"/>
      </defs>
      <use xlink:href="#DejaVuSans-48"/>
      <use x="63.623047" xlink:href="#DejaVuSans-46"/>
      <use x="95.410156" xlink:href="#DejaVuSans-51"/>
      <use x="159.033203" xlink:href="#DejaVuSans-53"/>
     </g>
    </g>
   </g>
   <g id="xtick_2">
    <g id="line2d_3">
     <path d="M 158.387141 207.214629 
L 156.54729 208.829119 
" style="fill:none;stroke:#000000;stroke-linecap:square;stroke-width:0.8;"/>
    </g>
    <g id="text_2">
     <!-- 0.40 -->
     <g transform="translate(139.133226 231.25473)scale(0.1 -0.1)">
      <defs>
       <path d="M 37.796875 64.3125 
L 12.890625 25.390625 
L 37.796875 25.390625 
z
M 35.203125 72.90625 
L 47.609375 72.90625 
L 47.609375 25.390625 
L 58.015625 25.390625 
L 58.015625 17.1875 
L 47.609375 17.1875 
L 47.609375 0 
L 37.796875 0 
L 37.796875 17.1875 
L 4.890625 17.1875 
L 4.890625 26.703125 
z
" id="DejaVuSans-52"/>
      </defs>
      <use xlink:href="#DejaVuSans-48"/>
      <use x="63.623047" xlink:href="#DejaVuSans-46"/>
      <use x="95.410156" xlink:href="#DejaVuSans-52"/>
      <use x="159.033203" xlink:href="#DejaVuSans-48"/>
     </g>
    </g>
   </g>
   <g id="xtick_3">
    <g id="line2d_4">
     <path d="M 174.97857 212.628035 
L 173.161524 214.266084 
" style="fill:none;stroke:#000000;stroke-linecap:square;stroke-width:0.8;"/>
    </g>
    <g id="text_3">
     <!-- 0.45 -->
     <g transform="translate(155.754282 236.817184)scale(0.1 -0.1)">
      <use xlink:href="#DejaVuSans-48"/>
      <use x="63.623047" xlink:href="#DejaVuSans-46"/>
      <use x="95.410156" xlink:href="#DejaVuSans-52"/>
      <use x="159.033203" xlink:href="#DejaVuSans-53"/>
     </g>
    </g>
   </g>
   <g id="xtick_4">
    <g id="line2d_5">
     <path d="M 191.81273 218.120638 
L 190.019356 219.782766 
" style="fill:none;stroke:#000000;stroke-linecap:square;stroke-width:0.8;"/>
    </g>
    <g id="text_4">
     <!-- 0.50 -->
     <g transform="translate(172.619814 242.461454)scale(0.1 -0.1)">
      <use xlink:href="#DejaVuSans-48"/>
      <use x="63.623047" xlink:href="#DejaVuSans-46"/>
      <use x="95.410156" xlink:href="#DejaVuSans-53"/>
      <use x="159.033203" xlink:href="#DejaVuSans-48"/>
     </g>
    </g>
   </g>
   <g id="xtick_5">
    <g id="line2d_6">
     <path d="M 208.894986 223.69419 
L 207.126183 225.380931 
" style="fill:none;stroke:#000000;stroke-linecap:square;stroke-width:0.8;"/>
    </g>
    <g id="text_5">
     <!-- 0.55 -->
     <g transform="translate(189.735256 248.189361)scale(0.1 -0.1)">
      <use xlink:href="#DejaVuSans-48"/>
      <use x="63.623047" xlink:href="#DejaVuSans-46"/>
      <use x="95.410156" xlink:href="#DejaVuSans-53"/>
      <use x="159.033203" xlink:href="#DejaVuSans-53"/>
     </g>
    </g>
   </g>
   <g id="xtick_6">
    <g id="line2d_7">
     <path d="M 226.230863 229.350492 
L 224.487563 231.062398 
" style="fill:none;stroke:#000000;stroke-linecap:square;stroke-width:0.8;"/>
    </g>
    <g id="text_6">
     <!-- 0.60 -->
     <g transform="translate(207.106205 254.002776)scale(0.1 -0.1)">
      <defs>
       <path d="M 33.015625 40.375 
Q 26.375 40.375 22.484375 35.828125 
Q 18.609375 31.296875 18.609375 23.390625 
Q 18.609375 15.53125 22.484375 10.953125 
Q 26.375 6.390625 33.015625 6.390625 
Q 39.65625 6.390625 43.53125 10.953125 
Q 47.40625 15.53125 47.40625 23.390625 
Q 47.40625 31.296875 43.53125 35.828125 
Q 39.65625 40.375 33.015625 40.375 
z
M 52.59375 71.296875 
L 52.59375 62.3125 
Q 48.875 64.0625 45.09375 64.984375 
Q 41.3125 65.921875 37.59375 65.921875 
Q 27.828125 65.921875 22.671875 59.328125 
Q 17.53125 52.734375 16.796875 39.40625 
Q 19.671875 43.65625 24.015625 45.921875 
Q 28.375 48.1875 33.59375 48.1875 
Q 44.578125 48.1875 50.953125 41.515625 
Q 57.328125 34.859375 57.328125 23.390625 
Q 57.328125 12.15625 50.6875 5.359375 
Q 44.046875 -1.421875 33.015625 -1.421875 
Q 20.359375 -1.421875 13.671875 8.265625 
Q 6.984375 17.96875 6.984375 36.375 
Q 6.984375 53.65625 15.1875 63.9375 
Q 23.390625 74.21875 37.203125 74.21875 
Q 40.921875 74.21875 44.703125 73.484375 
Q 48.484375 72.75 52.59375 71.296875 
z
" id="DejaVuSans-54"/>
      </defs>
      <use xlink:href="#DejaVuSans-48"/>
      <use x="63.623047" xlink:href="#DejaVuSans-46"/>
      <use x="95.410156" xlink:href="#DejaVuSans-54"/>
      <use x="159.033203" xlink:href="#DejaVuSans-48"/>
     </g>
    </g>
   </g>
   <g id="xtick_7">
    <g id="line2d_8">
     <path d="M 243.826052 235.091402 
L 242.10922 236.829039 
" style="fill:none;stroke:#000000;stroke-linecap:square;stroke-width:0.8;"/>
    </g>
    <g id="text_7">
     <!-- 0.65 -->
     <g transform="translate(224.738425 259.903628)scale(0.1 -0.1)">
      <use xlink:href="#DejaVuSans-48"/>
      <use x="63.623047" xlink:href="#DejaVuSans-46"/>
      <use x="95.410156" xlink:href="#DejaVuSans-54"/>
      <use x="159.033203" xlink:href="#DejaVuSans-53"/>
     </g>
    </g>
   </g>
  </g>
  <g id="axis3d_2">
   <g id="line2d_9">
    <path d="M 316.12668 171.68791 
L 251.239879 238.27773 
" style="fill:none;stroke:#000000;stroke-linecap:square;stroke-width:0.8;"/>
   </g>
   <g id="Line3DCollection_2">
    <path d="M 137.832034 96.692514 
L 141.625772 187.885421 
L 262.601634 226.617774 
" style="fill:none;stroke:#b0b0b0;stroke-width:0.8;"/>
    <path d="M 152.983415 85.635726 
L 156.060546 175.785908 
L 275.671412 213.204966 
" style="fill:none;stroke:#b0b0b0;stroke-width:0.8;"/>
    <path d="M 167.616138 74.957431 
L 170.022153 164.083012 
L 288.290703 200.25447 
" style="fill:none;stroke:#b0b0b0;stroke-width:0.8;"/>
    <path d="M 181.756388 64.638521 
L 183.533482 152.757548 
L 300.482402 187.742788 
" style="fill:none;stroke:#b0b0b0;stroke-width:0.8;"/>
    <path d="M 195.428614 54.661153 
L 196.615972 141.791545 
L 312.26788 175.647987 
" style="fill:none;stroke:#b0b0b0;stroke-width:0.8;"/>
   </g>
   <g id="xtick_8">
    <g id="line2d_10">
     <path d="M 261.582639 226.291526 
L 264.642236 227.271105 
" style="fill:none;stroke:#000000;stroke-linecap:square;stroke-width:0.8;"/>
    </g>
    <g id="text_8">
     <!-- −0.15 -->
     <g transform="translate(260.048547 247.513437)scale(0.1 -0.1)">
      <defs>
       <path d="M 10.59375 35.5 
L 73.1875 35.5 
L 73.1875 27.203125 
L 10.59375 27.203125 
z
" id="DejaVuSans-8722"/>
       <path d="M 12.40625 8.296875 
L 28.515625 8.296875 
L 28.515625 63.921875 
L 10.984375 60.40625 
L 10.984375 69.390625 
L 28.421875 72.90625 
L 38.28125 72.90625 
L 38.28125 8.296875 
L 54.390625 8.296875 
L 54.390625 0 
L 12.40625 0 
z
" id="DejaVuSans-49"/>
      </defs>
      <use xlink:href="#DejaVuSans-8722"/>
      <use x="83.789062" xlink:href="#DejaVuSans-48"/>
      <use x="147.412109" xlink:href="#DejaVuSans-46"/>
      <use x="179.199219" xlink:href="#DejaVuSans-49"/>
      <use x="242.822266" xlink:href="#DejaVuSans-53"/>
     </g>
    </g>
   </g>
   <g id="xtick_9">
    <g id="line2d_11">
     <path d="M 274.664802 212.890058 
L 277.687168 213.835575 
" style="fill:none;stroke:#000000;stroke-linecap:square;stroke-width:0.8;"/>
    </g>
    <g id="text_9">
     <!-- −0.10 -->
     <g transform="translate(272.903561 233.857712)scale(0.1 -0.1)">
      <use xlink:href="#DejaVuSans-8722"/>
      <use x="83.789062" xlink:href="#DejaVuSans-48"/>
      <use x="147.412109" xlink:href="#DejaVuSans-46"/>
      <use x="179.199219" xlink:href="#DejaVuSans-49"/>
      <use x="242.822266" xlink:href="#DejaVuSans-48"/>
     </g>
    </g>
   </g>
   <g id="xtick_10">
    <g id="line2d_12">
     <path d="M 287.296236 199.950321 
L 290.282098 200.863522 
" style="fill:none;stroke:#000000;stroke-linecap:square;stroke-width:0.8;"/>
    </g>
    <g id="text_10">
     <!-- −0.05 -->
     <g transform="translate(285.315179 220.673)scale(0.1 -0.1)">
      <use xlink:href="#DejaVuSans-8722"/>
      <use x="83.789062" xlink:href="#DejaVuSans-48"/>
      <use x="147.412109" xlink:href="#DejaVuSans-46"/>
      <use x="179.199219" xlink:href="#DejaVuSans-48"/>
      <use x="242.822266" xlink:href="#DejaVuSans-53"/>
     </g>
    </g>
   </g>
   <g id="xtick_11">
    <g id="line2d_13">
     <path d="M 299.49984 187.448854 
L 302.449915 188.331369 
" style="fill:none;stroke:#000000;stroke-linecap:square;stroke-width:0.8;"/>
    </g>
    <g id="text_11">
     <!-- 0.00 -->
     <g transform="translate(301.495796 207.935347)scale(0.1 -0.1)">
      <use xlink:href="#DejaVuSans-48"/>
      <use x="63.623047" xlink:href="#DejaVuSans-46"/>
      <use x="95.410156" xlink:href="#DejaVuSans-48"/>
      <use x="159.033203" xlink:href="#DejaVuSans-48"/>
     </g>
    </g>
   </g>
   <g id="xtick_12">
    <g id="line2d_14">
     <path d="M 311.296989 175.363764 
L 314.211985 176.217113 
" style="fill:none;stroke:#000000;stroke-linecap:square;stroke-width:0.8;"/>
    </g>
    <g id="text_12">
     <!-- 0.05 -->
     <g transform="translate(313.086773 195.622392)scale(0.1 -0.1)">
      <use xlink:href="#DejaVuSans-48"/>
      <use x="63.623047" xlink:href="#DejaVuSans-46"/>
      <use x="95.410156" xlink:href="#DejaVuSans-48"/>
      <use x="159.033203" xlink:href="#DejaVuSans-53"/>
     </g>
    </g>
   </g>
  </g>
  <g id="axis3d_3">
   <g id="line2d_15">
    <path d="M 316.12668 171.68791 
L 320.238571 81.894718 
" style="fill:none;stroke:#000000;stroke-linecap:square;stroke-width:0.8;"/>
   </g>
   <g id="Line3DCollection_3">
    <path d="M 316.739071 158.314861 
L 200.755083 125.246218 
L 128.438737 184.691688 
" style="fill:none;stroke:#b0b0b0;stroke-width:0.8;"/>
    <path d="M 317.401308 143.853299 
L 200.59414 111.250214 
L 127.725203 169.874688 
" style="fill:none;stroke:#b0b0b0;stroke-width:0.8;"/>
    <path d="M 318.073106 129.182948 
L 200.430985 97.061868 
L 127.000971 154.835545 
" style="fill:none;stroke:#b0b0b0;stroke-width:0.8;"/>
    <path d="M 318.754673 114.299253 
L 200.265573 82.677187 
L 126.265799 139.569227 
" style="fill:none;stroke:#b0b0b0;stroke-width:0.8;"/>
    <path d="M 319.446225 99.197527 
L 200.097855 68.092068 
L 125.519438 124.070546 
" style="fill:none;stroke:#b0b0b0;stroke-width:0.8;"/>
    <path d="M 320.147982 83.872944 
L 199.927785 53.302291 
L 124.761629 108.334157 
" style="fill:none;stroke:#b0b0b0;stroke-width:0.8;"/>
   </g>
   <g id="xtick_13">
    <g id="line2d_16">
     <path d="M 315.765342 158.037238 
L 318.68886 158.870773 
" style="fill:none;stroke:#000000;stroke-linecap:square;stroke-width:0.8;"/>
    </g>
    <g id="text_13">
     <!-- 0.2 -->
     <g transform="translate(327.142868 163.342108)scale(0.1 -0.1)">
      <defs>
       <path d="M 19.1875 8.296875 
L 53.609375 8.296875 
L 53.609375 0 
L 7.328125 0 
L 7.328125 8.296875 
Q 12.9375 14.109375 22.625 23.890625 
Q 32.328125 33.6875 34.8125 36.53125 
Q 39.546875 41.84375 41.421875 45.53125 
Q 43.3125 49.21875 43.3125 52.78125 
Q 43.3125 58.59375 39.234375 62.25 
Q 35.15625 65.921875 28.609375 65.921875 
Q 23.96875 65.921875 18.8125 64.3125 
Q 13.671875 62.703125 7.8125 59.421875 
L 7.8125 69.390625 
Q 13.765625 71.78125 18.9375 73 
Q 24.125 74.21875 28.421875 74.21875 
Q 39.75 74.21875 46.484375 68.546875 
Q 53.21875 62.890625 53.21875 53.421875 
Q 53.21875 48.921875 51.53125 44.890625 
Q 49.859375 40.875 45.40625 35.40625 
Q 44.1875 33.984375 37.640625 27.21875 
Q 31.109375 20.453125 19.1875 8.296875 
z
" id="DejaVuSans-50"/>
      </defs>
      <use xlink:href="#DejaVuSans-48"/>
      <use x="63.623047" xlink:href="#DejaVuSans-46"/>
      <use x="95.410156" xlink:href="#DejaVuSans-50"/>
     </g>
    </g>
   </g>
   <g id="xtick_14">
    <g id="line2d_17">
     <path d="M 316.420337 143.579491 
L 319.365615 144.401574 
" style="fill:none;stroke:#000000;stroke-linecap:square;stroke-width:0.8;"/>
    </g>
    <g id="text_14">
     <!-- 0.3 -->
     <g transform="translate(327.933707 148.915949)scale(0.1 -0.1)">
      <use xlink:href="#DejaVuSans-48"/>
      <use x="63.623047" xlink:href="#DejaVuSans-46"/>
      <use x="95.410156" xlink:href="#DejaVuSans-51"/>
     </g>
    </g>
   </g>
   <g id="xtick_15">
    <g id="line2d_18">
     <path d="M 317.084785 128.913096 
L 320.052148 129.723306 
" style="fill:none;stroke:#000000;stroke-linecap:square;stroke-width:0.8;"/>
    </g>
    <g id="text_15">
     <!-- 0.4 -->
     <g transform="translate(328.735921 134.282291)scale(0.1 -0.1)">
      <use xlink:href="#DejaVuSans-48"/>
      <use x="63.623047" xlink:href="#DejaVuSans-46"/>
      <use x="95.410156" xlink:href="#DejaVuSans-52"/>
     </g>
    </g>
   </g>
   <g id="xtick_16">
    <g id="line2d_19">
     <path d="M 317.758892 114.033501 
L 320.748673 114.831406 
" style="fill:none;stroke:#000000;stroke-linecap:square;stroke-width:0.8;"/>
    </g>
    <g id="text_16">
     <!-- 0.5 -->
     <g transform="translate(329.549757 119.436627)scale(0.1 -0.1)">
      <use xlink:href="#DejaVuSans-48"/>
      <use x="63.623047" xlink:href="#DejaVuSans-46"/>
      <use x="95.410156" xlink:href="#DejaVuSans-53"/>
     </g>
    </g>
   </g>
   <g id="xtick_17">
    <g id="line2d_20">
     <path d="M 318.442869 98.936025 
L 321.45541 99.721176 
" style="fill:none;stroke:#000000;stroke-linecap:square;stroke-width:0.8;"/>
    </g>
    <g id="text_17">
     <!-- 0.6 -->
     <g transform="translate(330.37547 104.374315)scale(0.1 -0.1)">
      <use xlink:href="#DejaVuSans-48"/>
      <use x="63.623047" xlink:href="#DejaVuSans-46"/>
      <use x="95.410156" xlink:href="#DejaVuSans-54"/>
     </g>
    </g>
   </g>
   <g id="xtick_18">
    <g id="line2d_21">
     <path d="M 319.136936 83.615846 
L 322.172585 84.387778 
" style="fill:none;stroke:#000000;stroke-linecap:square;stroke-width:0.8;"/>
    </g>
    <g id="text_18">
     <!-- 0.7 -->
     <g transform="translate(331.213322 89.090578)scale(0.1 -0.1)">
      <defs>
       <path d="M 8.203125 72.90625 
L 55.078125 72.90625 
L 55.078125 68.703125 
L 28.609375 0 
L 18.3125 0 
L 43.21875 64.59375 
L 8.203125 64.59375 
z
" id="DejaVuSans-55"/>
      </defs>
      <use xlink:href="#DejaVuSans-48"/>
      <use x="63.623047" xlink:href="#DejaVuSans-46"/>
      <use x="95.410156" xlink:href="#DejaVuSans-55"/>
     </g>
    </g>
   </g>
  </g>
  <g id="axes_1">
   <g id="line2d_22">
    <path clip-path="url(#p956b3b27fb)" d="M 245.476922 116.247331 
L 245.419738 117.526729 
L 245.289567 120.741739 
L 245.472023 122.87926 
L 245.995025 125.942223 
L 246.847649 128.464128 
L 247.556194 130.047907 
L 248.498436 131.690461 
L 249.62484 133.312868 
L 252.003084 136.374684 
L 256.190099 141.228615 
L 260.231624 146.040624 
L 262.505085 149.203138 
L 264.84851 152.82954 
L 267.178082 156.2888 
L 268.905049 158.381329 
L 270.384365 160.084635 
L 275.172882 165.899554 
L 278.559411 171.752226 
L 279.0009 172.914068 
L 279.256881 174.133409 
L 279.342328 176.018219 
L 279.155528 177.627194 
L 279.12516 178.660072 
L 278.891217 179.835276 
L 277.932926 183.022093 
L 278.021628 183.613709 
L 278.496227 185.893924 
L 278.518866 187.407004 
L 278.439493 189.40012 
L 278.52094 190.316743 
L 278.281513 190.649179 
L 277.81685 191.17667 
L 277.222381 191.854111 
L 277.169789 192.832598 
L 277.173361 193.313308 
L 276.96416 194.564896 
L 276.845006 195.390384 
L 275.950137 196.472972 
L 276.045243 196.402652 
L 276.548193 196.168436 
L 276.573706 196.200877 
L 276.565208 196.278161 
L 276.399368 197.102132 
L 276.582874 197.211108 
L 276.657485 197.330949 
L 276.654808 197.335127 
L 276.629423 197.451565 
L 276.642746 197.73265 
L 276.661755 197.736039 
L 276.724842 197.830744 
L 276.698001 197.8659 
L 276.684896 197.90547 
L 276.698097 197.865726 
L 276.755474 197.961167 
L 276.779119 197.9893 
L 276.851102 198.018644 
L 276.838119 198.390063 
L 276.594075 198.802522 
L 276.715169 199.268388 
L 276.715169 199.268388 
" style="fill:none;stroke:#1f77b4;stroke-linecap:square;stroke-width:1.5;"/>
   </g>
   <g id="line2d_23">
    <path clip-path="url(#p956b3b27fb)" d="M 237.13466 85.496021 
L 236.089759 87.956547 
L 233.757952 94.979714 
L 233.217239 97.198609 
L 232.655483 100.84669 
L 232.46661 103.764163 
L 232.700075 109.263592 
L 233.252601 113.70011 
L 234.90725 124.722146 
L 236.254175 136.024365 
L 237.540419 142.688784 
L 238.341248 145.116881 
L 240.031401 149.042642 
L 241.483543 151.484286 
L 243.271956 154.080544 
L 245.602194 157.221643 
L 250.332167 163.51405 
L 255.484804 169.642292 
L 256.312582 170.506055 
L 263.401352 178.147255 
L 264.258187 178.792934 
L 264.798286 179.154339 
L 265.94656 179.907099 
L 266.150807 180.274259 
L 266.436479 181.210935 
L 266.81604 181.876136 
L 267.271529 182.481254 
L 269.734517 185.477674 
L 271.737741 188.473902 
L 272.292452 189.016636 
L 272.821044 189.836147 
L 273.28602 190.932391 
L 273.746765 191.674522 
L 274.330115 192.582288 
L 275.107711 192.851017 
L 275.629605 192.947027 
L 276.481513 193.326737 
L 276.463275 193.363469 
L 276.429177 193.511236 
L 276.438694 193.518803 
L 276.486147 193.523271 
L 275.93648 194.15499 
L 275.620799 194.701885 
L 275.889982 194.862165 
L 276.413187 195.039526 
L 276.639724 195.377361 
L 276.672239 195.605332 
L 276.613013 195.975218 
L 276.465808 197.327356 
L 276.598509 197.530798 
L 276.712794 197.555574 
L 276.540024 197.625619 
L 276.331455 197.927522 
L 276.425152 198.000595 
L 276.431465 197.999842 
L 276.53383 198.120396 
L 276.337119 198.478865 
L 276.257477 198.821949 
L 276.295058 199.217971 
L 276.295058 199.217971 
" style="fill:none;stroke:#ff7f0e;stroke-linecap:square;stroke-width:1.5;"/>
   </g>
   <g id="line2d_24">
    <path clip-path="url(#p956b3b27fb)" d="M 153.039753 108.899898 
L 154.019088 109.883379 
L 157.95528 114.304278 
L 160.587071 117.126773 
L 164.580138 120.664379 
L 167.275904 122.678949 
L 170.954215 125.098612 
L 176.512846 128.523245 
L 179.952283 130.519708 
L 206.506512 145.516767 
L 210.076073 147.589647 
L 214.335805 150.010078 
L 225.882602 156.142634 
L 228.779775 157.424206 
L 231.477329 158.488353 
L 234.339763 159.470642 
L 244.447625 162.483416 
L 249.54541 164.30952 
L 253.937715 166.289734 
L 256.418683 167.744445 
L 260.058168 170.651248 
L 263.479317 174.105248 
L 266.061911 178.036578 
L 267.50986 179.101353 
L 268.690396 179.799508 
L 272.974474 181.789328 
L 273.131795 182.477922 
L 273.436589 183.597163 
L 273.842205 184.034905 
L 274.368895 184.359389 
L 274.827827 184.670186 
L 275.40401 185.697795 
L 275.624869 186.521653 
L 275.865477 187.515837 
L 276.084418 187.968673 
L 276.292546 189.046698 
L 276.487303 189.748252 
L 276.566145 190.420554 
L 276.776402 191.640466 
L 277.084976 192.491182 
L 277.331638 192.955541 
L 277.56546 193.541299 
L 277.735136 194.532194 
L 276.686663 196.064923 
L 276.753492 196.228993 
L 276.76719 196.39501 
L 276.592489 196.840645 
L 276.579085 197.185901 
L 276.406412 197.65105 
L 276.409542 197.6527 
L 276.690705 197.986595 
L 276.607448 198.212483 
L 276.692891 198.650364 
L 276.740437 198.872733 
L 276.550597 199.805077 
L 276.550597 199.805077 
" style="fill:none;stroke:#2ca02c;stroke-linecap:square;stroke-width:1.5;"/>
   </g>
   <g id="line2d_25">
    <path clip-path="url(#p956b3b27fb)" d="M 182.055899 73.707487 
L 183.945177 75.827677 
L 185.013261 77.045116 
L 192.027933 85.128979 
L 195.473488 89.010066 
L 202.333179 96.716673 
L 214.888007 110.828451 
L 219.745672 116.597383 
L 221.372721 118.51935 
L 224.585052 122.498577 
L 229.407868 129.068103 
L 235.355004 138.286297 
L 237.787692 141.882055 
L 240.438526 145.337052 
L 242.264336 147.334202 
L 246.465155 152.039642 
L 250.035996 156.439111 
L 252.279127 159.660137 
L 255.194265 164.465478 
L 256.916393 167.461598 
L 258.758593 170.492122 
L 259.371126 171.490162 
L 260.202485 172.701069 
L 261.579207 174.489161 
L 263.415393 176.595013 
L 264.337713 177.613174 
L 268.435422 182.281092 
L 268.938184 183.235387 
L 269.251444 184.62293 
L 269.208409 185.510099 
L 269.177822 186.48798 
L 269.488417 187.267949 
L 270.51088 188.159749 
L 272.188517 189.001072 
L 274.800956 190.677588 
L 275.363417 191.768298 
L 275.338601 192.307515 
L 274.937481 193.96871 
L 273.968076 194.944772 
L 272.583583 196.49006 
L 272.353783 196.994671 
L 272.371929 197.335571 
L 272.713711 197.635712 
L 273.117127 197.916906 
L 273.777877 198.393923 
L 274.256989 198.759472 
L 274.291663 198.733099 
L 274.177548 198.753057 
L 274.22123 198.647246 
L 274.177211 198.522983 
L 274.174574 198.522154 
L 273.828436 198.39798 
L 273.069518 198.181798 
L 273.212862 198.07138 
L 273.586792 197.925732 
L 273.733693 197.897864 
L 273.944642 197.921976 
L 274.207129 198.014384 
L 274.314774 198.070656 
L 274.88247 198.207607 
L 275.280623 198.198061 
L 275.518298 198.003711 
L 275.674565 197.889909 
L 275.674862 198.012845 
L 275.710682 198.324455 
L 275.71227 198.324212 
L 275.713851 198.454867 
L 275.607761 198.9822 
L 275.675265 199.406251 
L 275.675265 199.406251 
" style="fill:none;stroke:#d62728;stroke-linecap:square;stroke-width:1.5;"/>
   </g>
   <g id="legend_1">
    <g id="patch_6">
     <path d="M 284.7575 101.2725 
L 323.12 101.2725 
Q 325.12 101.2725 325.12 99.2725 
L 325.12 41.56 
Q 325.12 39.56 323.12 39.56 
L 284.7575 39.56 
Q 282.7575 39.56 282.7575 41.56 
L 282.7575 99.2725 
Q 282.7575 101.2725 284.7575 101.2725 
z
" style="fill:#ffffff;opacity:0.8;stroke:#cccccc;stroke-linejoin:miter;"/>
    </g>
    <g id="line2d_26">
     <path d="M 286.7575 47.658437 
L 306.7575 47.658437 
" style="fill:none;stroke:#1f77b4;stroke-linecap:square;stroke-width:1.5;"/>
    </g>
    <g id="line2d_27"/>
    <g id="text_19">
     <!-- 0 -->
     <g transform="translate(314.7575 51.158437)scale(0.1 -0.1)">
      <use xlink:href="#DejaVuSans-48"/>
     </g>
    </g>
    <g id="line2d_28">
     <path d="M 286.7575 62.336562 
L 306.7575 62.336562 
" style="fill:none;stroke:#ff7f0e;stroke-linecap:square;stroke-width:1.5;"/>
    </g>
    <g id="line2d_29"/>
    <g id="text_20">
     <!-- 1 -->
     <g transform="translate(314.7575 65.836562)scale(0.1 -0.1)">
      <use xlink:href="#DejaVuSans-49"/>
     </g>
    </g>
    <g id="line2d_30">
     <path d="M 286.7575 77.014687 
L 306.7575 77.014687 
" style="fill:none;stroke:#2ca02c;stroke-linecap:square;stroke-width:1.5;"/>
    </g>
    <g id="line2d_31"/>
    <g id="text_21">
     <!-- 2 -->
     <g transform="translate(314.7575 80.514687)scale(0.1 -0.1)">
      <use xlink:href="#DejaVuSans-50"/>
     </g>
    </g>
    <g id="line2d_32">
     <path d="M 286.7575 91.692813 
L 306.7575 91.692813 
" style="fill:none;stroke:#d62728;stroke-linecap:square;stroke-width:1.5;"/>
    </g>
    <g id="line2d_33"/>
    <g id="text_22">
     <!-- 3 -->
     <g transform="translate(314.7575 95.192813)scale(0.1 -0.1)">
      <use xlink:href="#DejaVuSans-51"/>
     </g>
    </g>
   </g>
  </g>
 </g>
 <defs>
  <clipPath id="p956b3b27fb">
   <rect height="217.44" width="217.44" x="112.68" y="34.56"/>
  </clipPath>
 </defs>
</svg>
