<?xml version="1.0" encoding="utf-8" standalone="no"?>
<!DOCTYPE svg PUBLIC "-//W3C//DTD SVG 1.1//EN"
  "http://www.w3.org/Graphics/SVG/1.1/DTD/svg11.dtd">
<!-- Created with matplotlib (https://matplotlib.org/) -->
<svg height="288pt" version="1.1" viewBox="0 0 432 288" width="432pt" xmlns="http://www.w3.org/2000/svg" xmlns:xlink="http://www.w3.org/1999/xlink">
 <metadata>
  <rdf:RDF xmlns:cc="http://creativecommons.org/ns#" xmlns:dc="http://purl.org/dc/elements/1.1/" xmlns:rdf="http://www.w3.org/1999/02/22-rdf-syntax-ns#">
   <cc:Work>
    <dc:type rdf:resource="http://purl.org/dc/dcmitype/StillImage"/>
    <dc:date>2021-11-10T15:01:53.341633</dc:date>
    <dc:format>image/svg+xml</dc:format>
    <dc:creator>
     <cc:Agent>
      <dc:title>Matplotlib v3.3.4, https://matplotlib.org/</dc:title>
     </cc:Agent>
    </dc:creator>
   </cc:Work>
  </rdf:RDF>
 </metadata>
 <defs>
  <style type="text/css">*{stroke-linecap:butt;stroke-linejoin:round;}</style>
 </defs>
 <g id="figure_1">
  <g id="patch_1">
   <path d="M 0 288 
L 432 288 
L 432 0 
L 0 0 
z
" style="fill:none;"/>
  </g>
  <g id="patch_2">
   <path d="M 112.68 252 
L 330.12 252 
L 330.12 34.56 
L 112.68 34.56 
z
" style="fill:#ffffff;"/>
  </g>
  <g id="pane3d_1">
   <g id="patch_3">
    <path d="M 129.09822 198.386264 
L 200.904009 138.197228 
L 199.90584 51.393878 
L 124.663773 106.302111 
" style="fill:#f2f2f2;opacity:0.5;stroke:#f2f2f2;stroke-linejoin:miter;"/>
   </g>
  </g>
  <g id="pane3d_2">
   <g id="patch_4">
    <path d="M 200.904009 138.197228 
L 316.12668 171.68791 
L 320.238571 81.894718 
L 199.90584 51.393878 
" style="fill:#e6e6e6;opacity:0.5;stroke:#e6e6e6;stroke-linejoin:miter;"/>
   </g>
  </g>
  <g id="pane3d_3">
   <g id="patch_5">
    <path d="M 129.09822 198.386264 
L 251.239879 238.27773 
L 316.12668 171.68791 
L 200.904009 138.197228 
" style="fill:#ececec;opacity:0.5;stroke:#ececec;stroke-linejoin:miter;"/>
   </g>
  </g>
  <g id="axis3d_1">
   <g id="line2d_1">
    <path d="M 129.09822 198.386264 
L 251.239879 238.27773 
" style="fill:none;stroke:#000000;stroke-linecap:square;stroke-width:0.8;"/>
   </g>
   <g id="Line3DCollection_1">
    <path d="M 139.268576 201.707903 
L 210.537146 140.997201 
L 209.946756 53.938957 
" style="fill:none;stroke:#b0b0b0;stroke-width:0.8;"/>
    <path d="M 156.082438 207.19931 
L 226.447312 145.621658 
L 226.538169 58.144397 
" style="fill:none;stroke:#b0b0b0;stroke-width:0.8;"/>
    <path d="M 173.147726 212.772833 
L 242.575603 150.309515 
L 243.366916 62.409994 
" style="fill:none;stroke:#b0b0b0;stroke-width:0.8;"/>
    <path d="M 190.470121 218.430327 
L 258.926535 155.062086 
L 260.438128 66.737048 
" style="fill:none;stroke:#b0b0b0;stroke-width:0.8;"/>
    <path d="M 208.05548 224.173706 
L 275.504752 159.880719 
L 277.757081 71.126898 
" style="fill:none;stroke:#b0b0b0;stroke-width:0.8;"/>
    <path d="M 225.909835 230.004938 
L 292.315025 164.766802 
L 295.329209 75.58092 
" style="fill:none;stroke:#b0b0b0;stroke-width:0.8;"/>
    <path d="M 244.039406 235.926056 
L 309.362261 169.72176 
L 313.160103 80.100532 
" style="fill:none;stroke:#b0b0b0;stroke-width:0.8;"/>
   </g>
   <g id="xtick_1">
    <g id="line2d_2">
     <path d="M 139.889241 201.179185 
L 138.024581 202.76761 
" style="fill:none;stroke:#000000;stroke-linecap:square;stroke-width:0.8;"/>
    </g>
    <g id="text_1">
     <!-- 0.35 -->
     <g transform="translate(120.603809 225.053619)scale(0.1 -0.1)">
      <defs>
       <path d="M 31.78125 66.40625 
Q 24.171875 66.40625 20.328125 58.90625 
Q 16.5 51.421875 16.5 36.375 
Q 16.5 21.390625 20.328125 13.890625 
Q 24.171875 6.390625 31.78125 6.390625 
Q 39.453125 6.390625 43.28125 13.890625 
Q 47.125 21.390625 47.125 36.375 
Q 47.125 51.421875 43.28125 58.90625 
Q 39.453125 66.40625 31.78125 66.40625 
z
M 31.78125 74.21875 
Q 44.046875 74.21875 50.515625 64.515625 
Q 56.984375 54.828125 56.984375 36.375 
Q 56.984375 17.96875 50.515625 8.265625 
Q 44.046875 -1.421875 31.78125 -1.421875 
Q 19.53125 -1.421875 13.0625 8.265625 
Q 6.59375 17.96875 6.59375 36.375 
Q 6.59375 54.828125 13.0625 64.515625 
Q 19.53125 74.21875 31.78125 74.21875 
z
" id="DejaVuSans-48"/>
       <path d="M 10.6875 12.40625 
L 21 12.40625 
L 21 0 
L 10.6875 0 
z
" id="DejaVuSans-46"/>
       <path d="M 40.578125 39.3125 
Q 47.65625 37.796875 51.625 33 
Q 55.609375 28.21875 55.609375 21.1875 
Q 55.609375 10.40625 48.1875 4.484375 
Q 40.765625 -1.421875 27.09375 -1.421875 
Q 22.515625 -1.421875 17.65625 -0.515625 
Q 12.796875 0.390625 7.625 2.203125 
L 7.625 11.71875 
Q 11.71875 9.328125 16.59375 8.109375 
Q 21.484375 6.890625 26.8125 6.890625 
Q 36.078125 6.890625 40.9375 10.546875 
Q 45.796875 14.203125 45.796875 21.1875 
Q 45.796875 27.640625 41.28125 31.265625 
Q 36.765625 34.90625 28.71875 34.90625 
L 20.21875 34.90625 
L 20.21875 43.015625 
L 29.109375 43.015625 
Q 36.375 43.015625 40.234375 45.921875 
Q 44.09375 48.828125 44.09375 54.296875 
Q 44.09375 59.90625 40.109375 62.90625 
Q 36.140625 65.921875 28.71875 65.921875 
Q 24.65625 65.921875 20.015625 65.03125 
Q 15.375 64.15625 9.8125 62.3125 
L 9.8125 71.09375 
Q 15.4375 72.65625 20.34375 73.4375 
Q 25.25 74.21875 29.59375 74.21875 
Q 40.828125 74.21875 47.359375 69.109375 
Q 53.90625 64.015625 53.90625 55.328125 
Q 53.90625 49.265625 50.4375 45.09375 
Q 46.96875 40.921875 40.578125 39.3125 
z
" id="DejaVuSans-51"/>
       <path d="M 10.796875 72.90625 
L 49.515625 72.90625 
L 49.515625 64.59375 
L 19.828125 64.59375 
L 19.828125 46.734375 
Q 21.96875 47.46875 24.109375 47.828125 
Q 26.265625 48.1875 28.421875 48.1875 
Q 40.625 48.1875 47.75 41.5 
Q 54.890625 34.8125 54.890625 23.390625 
Q 54.890625 11.625 47.5625 5.09375 
Q 40.234375 -1.421875 26.90625 -1.421875 
Q 22.3125 -1.421875 17.546875 -0.640625 
Q 12.796875 0.140625 7.71875 1.703125 
L 7.71875 11.625 
Q 12.109375 9.234375 16.796875 8.0625 
Q 21.484375 6.890625 26.703125 6.890625 
Q 35.15625 6.890625 40.078125 11.328125 
Q 45.015625 15.765625 45.015625 23.390625 
Q 45.015625 31 40.078125 35.4375 
Q 35.15625 39.890625 26.703125 39.890625 
Q 22.75 39.890625 18.8125 39.015625 
Q 14.890625 38.140625 10.796875 36.28125 
z
" id="DejaVuSans-53"/>
      </defs>
      <use xlink:href="#DejaVuSans-48"/>
      <use x="63.623047" xlink:href="#DejaVuSans-46"/>
      <use x="95.410156" xlink:href="#DejaVuSans-51"/>
      <use x="159.033203" xlink:href="#DejaVuSans-53"/>
     </g>
    </g>
   </g>
   <g id="xtick_2">
    <g id="line2d_3">
     <path d="M 156.695602 206.662718 
L 154.853456 208.274816 
" style="fill:none;stroke:#000000;stroke-linecap:square;stroke-width:0.8;"/>
    </g>
    <g id="text_2">
     <!-- 0.40 -->
     <g transform="translate(137.438739 230.687648)scale(0.1 -0.1)">
      <defs>
       <path d="M 37.796875 64.3125 
L 12.890625 25.390625 
L 37.796875 25.390625 
z
M 35.203125 72.90625 
L 47.609375 72.90625 
L 47.609375 25.390625 
L 58.015625 25.390625 
L 58.015625 17.1875 
L 47.609375 17.1875 
L 47.609375 0 
L 37.796875 0 
L 37.796875 17.1875 
L 4.890625 17.1875 
L 4.890625 26.703125 
z
" id="DejaVuSans-52"/>
      </defs>
      <use xlink:href="#DejaVuSans-48"/>
      <use x="63.623047" xlink:href="#DejaVuSans-46"/>
      <use x="95.410156" xlink:href="#DejaVuSans-52"/>
      <use x="159.033203" xlink:href="#DejaVuSans-48"/>
     </g>
    </g>
   </g>
   <g id="xtick_3">
    <g id="line2d_4">
     <path d="M 173.753095 212.22819 
L 171.934347 213.864494 
" style="fill:none;stroke:#000000;stroke-linecap:square;stroke-width:0.8;"/>
    </g>
    <g id="text_3">
     <!-- 0.45 -->
     <g transform="translate(154.526574 236.406315)scale(0.1 -0.1)">
      <use xlink:href="#DejaVuSans-48"/>
      <use x="63.623047" xlink:href="#DejaVuSans-46"/>
      <use x="95.410156" xlink:href="#DejaVuSans-52"/>
      <use x="159.033203" xlink:href="#DejaVuSans-53"/>
     </g>
    </g>
   </g>
   <g id="xtick_4">
    <g id="line2d_5">
     <path d="M 191.067391 217.877451 
L 189.272958 219.538509 
" style="fill:none;stroke:#000000;stroke-linecap:square;stroke-width:0.8;"/>
    </g>
    <g id="text_4">
     <!-- 0.50 -->
     <g transform="translate(171.873058 242.211543)scale(0.1 -0.1)">
      <use xlink:href="#DejaVuSans-48"/>
      <use x="63.623047" xlink:href="#DejaVuSans-46"/>
      <use x="95.410156" xlink:href="#DejaVuSans-53"/>
      <use x="159.033203" xlink:href="#DejaVuSans-48"/>
     </g>
    </g>
   </g>
   <g id="xtick_5">
    <g id="line2d_6">
     <path d="M 208.644333 223.612408 
L 206.875166 225.298786 
" style="fill:none;stroke:#000000;stroke-linecap:square;stroke-width:0.8;"/>
    </g>
    <g id="text_5">
     <!-- 0.55 -->
     <g transform="translate(189.484107 248.10531)scale(0.1 -0.1)">
      <use xlink:href="#DejaVuSans-48"/>
      <use x="63.623047" xlink:href="#DejaVuSans-46"/>
      <use x="95.410156" xlink:href="#DejaVuSans-53"/>
      <use x="159.033203" xlink:href="#DejaVuSans-53"/>
     </g>
    </g>
   </g>
   <g id="xtick_6">
    <g id="line2d_7">
     <path d="M 226.489944 229.435024 
L 224.74703 231.147307 
" style="fill:none;stroke:#000000;stroke-linecap:square;stroke-width:0.8;"/>
    </g>
    <g id="text_6">
     <!-- 0.60 -->
     <g transform="translate(207.365821 254.089659)scale(0.1 -0.1)">
      <defs>
       <path d="M 33.015625 40.375 
Q 26.375 40.375 22.484375 35.828125 
Q 18.609375 31.296875 18.609375 23.390625 
Q 18.609375 15.53125 22.484375 10.953125 
Q 26.375 6.390625 33.015625 6.390625 
Q 39.65625 6.390625 43.53125 10.953125 
Q 47.40625 15.53125 47.40625 23.390625 
Q 47.40625 31.296875 43.53125 35.828125 
Q 39.65625 40.375 33.015625 40.375 
z
M 52.59375 71.296875 
L 52.59375 62.3125 
Q 48.875 64.0625 45.09375 64.984375 
Q 41.3125 65.921875 37.59375 65.921875 
Q 27.828125 65.921875 22.671875 59.328125 
Q 17.53125 52.734375 16.796875 39.40625 
Q 19.671875 43.65625 24.015625 45.921875 
Q 28.375 48.1875 33.59375 48.1875 
Q 44.578125 48.1875 50.953125 41.515625 
Q 57.328125 34.859375 57.328125 23.390625 
Q 57.328125 12.15625 50.6875 5.359375 
Q 44.046875 -1.421875 33.015625 -1.421875 
Q 20.359375 -1.421875 13.671875 8.265625 
Q 6.984375 17.96875 6.984375 36.375 
Q 6.984375 53.65625 15.1875 63.9375 
Q 23.390625 74.21875 37.203125 74.21875 
Q 40.921875 74.21875 44.703125 73.484375 
Q 48.484375 72.75 52.59375 71.296875 
z
" id="DejaVuSans-54"/>
      </defs>
      <use xlink:href="#DejaVuSans-48"/>
      <use x="63.623047" xlink:href="#DejaVuSans-46"/>
      <use x="95.410156" xlink:href="#DejaVuSans-54"/>
      <use x="159.033203" xlink:href="#DejaVuSans-48"/>
     </g>
    </g>
   </g>
   <g id="xtick_7">
    <g id="line2d_8">
     <path d="M 244.61043 235.347327 
L 242.894791 237.086115 
" style="fill:none;stroke:#000000;stroke-linecap:square;stroke-width:0.8;"/>
    </g>
    <g id="text_7">
     <!-- 0.65 -->
     <g transform="translate(225.524487 260.166694)scale(0.1 -0.1)">
      <use xlink:href="#DejaVuSans-48"/>
      <use x="63.623047" xlink:href="#DejaVuSans-46"/>
      <use x="95.410156" xlink:href="#DejaVuSans-54"/>
      <use x="159.033203" xlink:href="#DejaVuSans-53"/>
     </g>
    </g>
   </g>
  </g>
  <g id="axis3d_2">
   <g id="line2d_9">
    <path d="M 316.12668 171.68791 
L 251.239879 238.27773 
" style="fill:none;stroke:#000000;stroke-linecap:square;stroke-width:0.8;"/>
   </g>
   <g id="Line3DCollection_2">
    <path d="M 126.726267 104.796997 
L 131.059264 196.742478 
L 253.019589 236.45131 
" style="fill:none;stroke:#b0b0b0;stroke-width:0.8;"/>
    <path d="M 144.85146 91.570056 
L 148.310462 182.282181 
L 268.657087 220.40339 
" style="fill:none;stroke:#b0b0b0;stroke-width:0.8;"/>
    <path d="M 162.246039 78.876285 
L 164.895953 168.379894 
L 283.659871 205.006843 
" style="fill:none;stroke:#b0b0b0;stroke-width:0.8;"/>
    <path d="M 178.953307 66.684082 
L 180.853541 155.003928 
L 298.065815 190.2228 
" style="fill:none;stroke:#b0b0b0;stroke-width:0.8;"/>
    <path d="M 195.01321 54.964296 
L 196.21822 142.124949 
L 311.909841 176.015424 
" style="fill:none;stroke:#b0b0b0;stroke-width:0.8;"/>
   </g>
   <g id="xtick_8">
    <g id="line2d_10">
     <path d="M 251.991638 236.116621 
L 255.078159 237.121555 
" style="fill:none;stroke:#000000;stroke-linecap:square;stroke-width:0.8;"/>
    </g>
    <g id="text_8">
     <!-- −0.15 -->
     <g transform="translate(250.623747 257.525288)scale(0.1 -0.1)">
      <defs>
       <path d="M 10.59375 35.5 
L 73.1875 35.5 
L 73.1875 27.203125 
L 10.59375 27.203125 
z
" id="DejaVuSans-8722"/>
       <path d="M 12.40625 8.296875 
L 28.515625 8.296875 
L 28.515625 63.921875 
L 10.984375 60.40625 
L 10.984375 69.390625 
L 28.421875 72.90625 
L 38.28125 72.90625 
L 38.28125 8.296875 
L 54.390625 8.296875 
L 54.390625 0 
L 12.40625 0 
z
" id="DejaVuSans-49"/>
      </defs>
      <use xlink:href="#DejaVuSans-8722"/>
      <use x="83.789062" xlink:href="#DejaVuSans-48"/>
      <use x="147.412109" xlink:href="#DejaVuSans-46"/>
      <use x="179.199219" xlink:href="#DejaVuSans-49"/>
      <use x="242.822266" xlink:href="#DejaVuSans-53"/>
     </g>
    </g>
   </g>
   <g id="xtick_9">
    <g id="line2d_11">
     <path d="M 267.643805 220.082421 
L 270.686226 221.046143 
" style="fill:none;stroke:#000000;stroke-linecap:square;stroke-width:0.8;"/>
    </g>
    <g id="text_9">
     <!-- −0.10 -->
     <g transform="translate(266.004537 241.186462)scale(0.1 -0.1)">
      <use xlink:href="#DejaVuSans-8722"/>
      <use x="83.789062" xlink:href="#DejaVuSans-48"/>
      <use x="147.412109" xlink:href="#DejaVuSans-46"/>
      <use x="179.199219" xlink:href="#DejaVuSans-49"/>
      <use x="242.822266" xlink:href="#DejaVuSans-48"/>
     </g>
    </g>
   </g>
   <g id="xtick_10">
    <g id="line2d_12">
     <path d="M 282.660926 204.698767 
L 285.660248 205.623762 
" style="fill:none;stroke:#000000;stroke-linecap:square;stroke-width:0.8;"/>
    </g>
    <g id="text_10">
     <!-- −0.05 -->
     <g transform="translate(280.760591 225.511284)scale(0.1 -0.1)">
      <use xlink:href="#DejaVuSans-8722"/>
      <use x="83.789062" xlink:href="#DejaVuSans-48"/>
      <use x="147.412109" xlink:href="#DejaVuSans-46"/>
      <use x="179.199219" xlink:href="#DejaVuSans-48"/>
      <use x="242.822266" xlink:href="#DejaVuSans-53"/>
     </g>
    </g>
   </g>
   <g id="xtick_11">
    <g id="line2d_13">
     <path d="M 297.08088 189.926856 
L 300.038089 190.815411 
" style="fill:none;stroke:#000000;stroke-linecap:square;stroke-width:0.8;"/>
    </g>
    <g id="text_11">
     <!-- 0.00 -->
     <g transform="translate(299.119058 210.460126)scale(0.1 -0.1)">
      <use xlink:href="#DejaVuSans-48"/>
      <use x="63.623047" xlink:href="#DejaVuSans-46"/>
      <use x="95.410156" xlink:href="#DejaVuSans-48"/>
      <use x="159.033203" xlink:href="#DejaVuSans-48"/>
     </g>
    </g>
   </g>
   <g id="xtick_12">
    <g id="line2d_14">
     <path d="M 310.938592 175.730909 
L 313.854661 176.585136 
" style="fill:none;stroke:#000000;stroke-linecap:square;stroke-width:0.8;"/>
    </g>
    <g id="text_12">
     <!-- 0.05 -->
     <g transform="translate(312.734646 195.996452)scale(0.1 -0.1)">
      <use xlink:href="#DejaVuSans-48"/>
      <use x="63.623047" xlink:href="#DejaVuSans-46"/>
      <use x="95.410156" xlink:href="#DejaVuSans-48"/>
      <use x="159.033203" xlink:href="#DejaVuSans-53"/>
     </g>
    </g>
   </g>
  </g>
  <g id="axis3d_3">
   <g id="line2d_15">
    <path d="M 316.12668 171.68791 
L 320.238571 81.894718 
" style="fill:none;stroke:#000000;stroke-linecap:square;stroke-width:0.8;"/>
   </g>
   <g id="Line3DCollection_3">
    <path d="M 316.710867 158.930765 
L 200.761939 125.842505 
L 128.469117 185.32255 
" style="fill:none;stroke:#b0b0b0;stroke-width:0.8;"/>
    <path d="M 317.337703 145.242258 
L 200.609593 112.594045 
L 127.793751 171.298134 
" style="fill:none;stroke:#b0b0b0;stroke-width:0.8;"/>
    <path d="M 317.973105 131.366702 
L 200.455264 99.173254 
L 127.108802 157.074721 
" style="fill:none;stroke:#b0b0b0;stroke-width:0.8;"/>
    <path d="M 318.61725 117.300237 
L 200.298915 85.576746 
L 126.414064 142.648046 
" style="fill:none;stroke:#b0b0b0;stroke-width:0.8;"/>
    <path d="M 319.270318 103.038895 
L 200.140506 71.801047 
L 125.709327 128.01372 
" style="fill:none;stroke:#b0b0b0;stroke-width:0.8;"/>
    <path d="M 319.932497 88.5786 
L 199.979995 57.842593 
L 124.994373 113.167229 
" style="fill:none;stroke:#b0b0b0;stroke-width:0.8;"/>
   </g>
   <g id="xtick_13">
    <g id="line2d_16">
     <path d="M 315.737446 158.65298 
L 318.660038 159.486998 
" style="fill:none;stroke:#000000;stroke-linecap:square;stroke-width:0.8;"/>
    </g>
    <g id="text_13">
     <!-- 0.2 -->
     <g transform="translate(327.109186 163.95652)scale(0.1 -0.1)">
      <defs>
       <path d="M 19.1875 8.296875 
L 53.609375 8.296875 
L 53.609375 0 
L 7.328125 0 
L 7.328125 8.296875 
Q 12.9375 14.109375 22.625 23.890625 
Q 32.328125 33.6875 34.8125 36.53125 
Q 39.546875 41.84375 41.421875 45.53125 
Q 43.3125 49.21875 43.3125 52.78125 
Q 43.3125 58.59375 39.234375 62.25 
Q 35.15625 65.921875 28.609375 65.921875 
Q 23.96875 65.921875 18.8125 64.3125 
Q 13.671875 62.703125 7.8125 59.421875 
L 7.8125 69.390625 
Q 13.765625 71.78125 18.9375 73 
Q 24.125 74.21875 28.421875 74.21875 
Q 39.75 74.21875 46.484375 68.546875 
Q 53.21875 62.890625 53.21875 53.421875 
Q 53.21875 48.921875 51.53125 44.890625 
Q 49.859375 40.875 45.40625 35.40625 
Q 44.1875 33.984375 37.640625 27.21875 
Q 31.109375 20.453125 19.1875 8.296875 
z
" id="DejaVuSans-50"/>
      </defs>
      <use xlink:href="#DejaVuSans-48"/>
      <use x="63.623047" xlink:href="#DejaVuSans-46"/>
      <use x="95.410156" xlink:href="#DejaVuSans-50"/>
     </g>
    </g>
   </g>
   <g id="xtick_14">
    <g id="line2d_17">
     <path d="M 316.357428 144.96808 
L 319.300616 145.791273 
" style="fill:none;stroke:#000000;stroke-linecap:square;stroke-width:0.8;"/>
    </g>
    <g id="text_14">
     <!-- 0.3 -->
     <g transform="translate(327.857753 150.301474)scale(0.1 -0.1)">
      <use xlink:href="#DejaVuSans-48"/>
      <use x="63.623047" xlink:href="#DejaVuSans-46"/>
      <use x="95.410156" xlink:href="#DejaVuSans-51"/>
     </g>
    </g>
   </g>
   <g id="xtick_15">
    <g id="line2d_18">
     <path d="M 316.985879 131.096256 
L 319.949954 131.90825 
" style="fill:none;stroke:#000000;stroke-linecap:square;stroke-width:0.8;"/>
    </g>
    <g id="text_15">
     <!-- 0.4 -->
     <g transform="translate(328.61651 136.460534)scale(0.1 -0.1)">
      <use xlink:href="#DejaVuSans-48"/>
      <use x="63.623047" xlink:href="#DejaVuSans-46"/>
      <use x="95.410156" xlink:href="#DejaVuSans-52"/>
     </g>
    </g>
   </g>
   <g id="xtick_16">
    <g id="line2d_19">
     <path d="M 317.622972 117.033651 
L 320.608233 117.834059 
" style="fill:none;stroke:#000000;stroke-linecap:square;stroke-width:0.8;"/>
    </g>
    <g id="text_16">
     <!-- 0.5 -->
     <g transform="translate(329.385668 122.429878)scale(0.1 -0.1)">
      <use xlink:href="#DejaVuSans-48"/>
      <use x="63.623047" xlink:href="#DejaVuSans-46"/>
      <use x="95.410156" xlink:href="#DejaVuSans-53"/>
     </g>
    </g>
   </g>
   <g id="xtick_17">
    <g id="line2d_20">
     <path d="M 318.268889 102.776304 
L 321.275639 103.564725 
" style="fill:none;stroke:#000000;stroke-linecap:square;stroke-width:0.8;"/>
    </g>
    <g id="text_17">
     <!-- 0.6 -->
     <g transform="translate(330.165441 108.205579)scale(0.1 -0.1)">
      <use xlink:href="#DejaVuSans-48"/>
      <use x="63.623047" xlink:href="#DejaVuSans-46"/>
      <use x="95.410156" xlink:href="#DejaVuSans-54"/>
     </g>
    </g>
   </g>
   <g id="xtick_18">
    <g id="line2d_21">
     <path d="M 318.923812 88.32014 
L 321.952364 89.09616 
" style="fill:none;stroke:#000000;stroke-linecap:square;stroke-width:0.8;"/>
    </g>
    <g id="text_18">
     <!-- 0.7 -->
     <g transform="translate(330.956051 93.7836)scale(0.1 -0.1)">
      <defs>
       <path d="M 8.203125 72.90625 
L 55.078125 72.90625 
L 55.078125 68.703125 
L 28.609375 0 
L 18.3125 0 
L 43.21875 64.59375 
L 8.203125 64.59375 
z
" id="DejaVuSans-55"/>
      </defs>
      <use xlink:href="#DejaVuSans-48"/>
      <use x="63.623047" xlink:href="#DejaVuSans-46"/>
      <use x="95.410156" xlink:href="#DejaVuSans-55"/>
     </g>
    </g>
   </g>
  </g>
  <g id="axes_1">
   <g id="line2d_22">
    <path clip-path="url(#p44d650dde2)" d="M 155.816373 119.968465 
L 157.45724 120.504873 
L 161.466006 121.444414 
L 171.664191 123.6809 
L 180.728017 126.185851 
L 190.337783 128.442285 
L 196.009878 129.809864 
L 205.102509 132.433796 
L 210.293077 134.133821 
L 224.616756 138.948847 
L 237.326212 143.885064 
L 240.323683 145.34364 
L 243.338471 147.182521 
L 245.459762 148.668223 
L 248.153789 150.898661 
L 252.643182 155.568134 
L 258.12371 162.450233 
L 259.321885 164.476607 
L 260.389479 167.084584 
L 260.599976 167.966145 
L 260.768551 169.033664 
L 261.134497 175.049058 
L 261.16641 176.09941 
L 261.327618 177.720981 
L 261.662476 179.063194 
L 262.564148 181.476551 
L 263.119398 182.534864 
L 264.037923 184.468597 
L 264.456621 185.629177 
L 265.220883 188.200084 
L 265.169654 189.155827 
L 264.692963 191.143755 
L 263.711839 194.088115 
L 263.796116 194.700026 
L 264.31429 195.263029 
L 265.579167 196.014913 
L 269.560954 197.236023 
L 269.560117 197.238782 
L 269.663346 197.805182 
L 270.268075 198.791504 
L 270.6864 199.391229 
L 270.863027 199.398511 
L 270.863726 199.397616 
L 271.280797 199.064815 
L 270.502717 199.79974 
L 270.279042 200.029902 
L 270.432208 200.018462 
L 270.665196 199.89996 
L 271.061082 199.733076 
L 272.002875 199.658066 
L 272.016712 199.812161 
L 271.863767 200.267724 
L 272.035034 200.25882 
L 271.935664 200.377487 
L 271.732147 200.785692 
L 271.855866 200.885008 
L 272.185365 200.809497 
L 272.318883 200.817964 
L 272.163179 200.798051 
L 272.317589 200.839739 
L 272.317946 200.843028 
L 272.440209 200.846915 
L 272.441617 200.848653 
L 272.593675 200.897901 
L 272.559242 200.94805 
L 272.431986 201.328244 
L 272.155878 201.912678 
L 272.14401 202.083267 
L 272.14401 202.083267 
" style="fill:none;stroke:#1f77b4;stroke-linecap:square;stroke-width:1.5;"/>
   </g>
   <g id="line2d_23">
    <path clip-path="url(#p44d650dde2)" d="M 210.45973 158.917021 
L 213.967522 158.037202 
L 221.91886 156.412866 
L 225.266645 155.954772 
L 229.32228 155.663291 
L 232.966822 155.67036 
L 235.383368 155.896615 
L 236.999926 156.147312 
L 239.557037 156.743874 
L 242.161707 157.746389 
L 245.140668 159.318911 
L 247.529295 160.901949 
L 251.832806 164.363303 
L 256.418223 169.135073 
L 257.601116 171.388411 
L 258.274203 174.572109 
L 258.500035 176.668848 
L 258.726129 178.024387 
L 258.789695 178.472774 
L 259.141596 179.588732 
L 259.53337 179.981943 
L 261.191289 180.767916 
L 262.735816 181.248667 
L 265.188848 182.467178 
L 266.008985 183.230133 
L 266.34705 183.743875 
L 266.599902 184.443655 
L 266.820639 184.998033 
L 267.315408 186.383311 
L 267.809515 187.656216 
L 268.915637 188.735434 
L 271.877842 190.284771 
L 271.971595 190.662187 
L 271.867055 191.15206 
L 271.349314 191.928641 
L 266.975777 196.965475 
L 266.829597 197.441881 
L 266.985282 197.585083 
L 267.542653 197.605024 
L 270.429556 197.498534 
L 270.631936 197.689517 
L 270.631736 198.078131 
L 270.505896 199.182314 
L 270.64544 199.493456 
L 270.837697 199.717846 
L 271.336494 199.836773 
L 272.269141 199.657441 
L 272.531166 199.380023 
L 272.568383 199.339807 
L 271.827255 199.897403 
L 271.134614 200.583515 
L 271.278817 200.546506 
L 272.348864 200.062341 
L 272.952526 199.885341 
L 272.953442 199.888917 
L 272.965097 200.040651 
L 272.783564 200.265206 
L 272.454888 200.742922 
L 272.350041 201.39522 
L 272.213494 201.556663 
L 272.311757 201.614813 
L 272.45301 201.669961 
L 272.454414 201.669212 
L 272.516737 201.684853 
L 272.445338 201.802063 
L 272.185513 202.49554 
L 272.19915 202.58698 
L 272.19915 202.58698 
" style="fill:none;stroke:#ff7f0e;stroke-linecap:square;stroke-width:1.5;"/>
   </g>
   <g id="line2d_24">
    <path clip-path="url(#p44d650dde2)" d="M 237.208983 157.317554 
L 236.990218 158.035084 
L 237.012052 159.555393 
L 237.612094 161.049306 
L 238.442469 162.26976 
L 240.293082 164.063771 
L 243.386256 165.806771 
L 246.182662 166.748621 
L 248.483963 167.412801 
L 249.825072 167.807601 
L 251.180429 168.399199 
L 251.873887 168.819334 
L 252.585515 169.440488 
L 253.060602 170.162584 
L 253.523273 171.434211 
L 253.720289 172.55515 
L 253.959823 174.751252 
L 254.401119 175.783512 
L 254.992958 176.577647 
L 255.909094 177.556243 
L 257.409064 178.857557 
L 259.05298 180.026804 
L 261.732262 181.750088 
L 262.176901 182.320058 
L 262.344744 182.547058 
L 262.690394 182.695481 
L 263.104135 182.637642 
L 264.241758 182.265765 
L 268.060116 180.997289 
L 269.12646 180.889474 
L 270.787356 181.032582 
L 271.95524 181.505844 
L 272.512416 181.969196 
L 272.775949 182.317074 
L 273.314054 183.608353 
L 273.284491 185.054491 
L 273.021563 185.867613 
L 271.364006 189.579655 
L 269.969617 191.886082 
L 269.123855 194.454239 
L 268.706289 197.245384 
L 268.633842 197.699756 
L 268.733384 197.78204 
L 268.814124 198.092782 
L 268.798766 198.260646 
L 268.811594 198.26699 
L 269.146125 198.278536 
L 270.268932 198.344054 
L 270.06692 198.999527 
L 270.276582 199.341434 
L 270.586264 199.672101 
L 270.729404 199.946375 
L 270.62926 201.446236 
L 270.034848 202.025944 
L 270.036518 202.02653 
L 270.127246 202.085963 
L 270.362134 202.223645 
L 270.359803 202.229404 
L 269.965994 202.532233 
L 269.552387 202.748345 
L 269.609229 202.774879 
L 270.088153 203.048921 
L 270.057244 203.10715 
L 269.853197 203.513422 
L 269.892279 203.876946 
L 269.916345 203.950225 
L 269.916345 203.950225 
" style="fill:none;stroke:#2ca02c;stroke-linecap:square;stroke-width:1.5;"/>
   </g>
   <g id="line2d_25">
    <path clip-path="url(#p44d650dde2)" d="M 189.43634 88.003849 
L 194.584715 90.202498 
L 197.224341 91.553513 
L 199.752282 92.947293 
L 202.50265 94.620482 
L 205.944172 96.852135 
L 210.122496 99.947964 
L 213.979872 103.236507 
L 217.663056 106.764966 
L 221.341528 110.647337 
L 227.270017 117.157498 
L 228.98961 119.051734 
L 232.321371 123.16947 
L 235.744868 129.245766 
L 236.658608 131.070162 
L 238.005642 133.910508 
L 238.876301 135.594008 
L 245.051949 146.907522 
L 246.972719 151.439661 
L 248.273939 156.24181 
L 249.134086 159.364571 
L 249.957878 162.070061 
L 251.223608 165.131012 
L 252.11839 166.835124 
L 253.829071 169.470839 
L 259.002944 176.153488 
L 263.578032 185.054501 
L 264.068125 186.391427 
L 264.989014 189.884546 
L 265.287432 190.782786 
L 267.297134 196.727753 
L 267.862411 197.922015 
L 268.140815 198.582865 
L 268.433669 199.120401 
L 268.262937 200.210615 
L 268.437942 200.625828 
L 268.493434 200.884547 
L 268.396396 201.446876 
L 268.522669 201.612661 
L 268.80253 201.869714 
L 268.987387 202.049187 
L 269.360548 202.310211 
L 269.7019 202.592238 
L 270.03979 202.771831 
L 270.034742 202.783241 
L 269.890764 203.089222 
L 269.926218 203.11056 
L 270.407244 203.135165 
L 270.612524 203.198417 
L 270.610955 203.209937 
L 270.425343 203.760549 
L 270.599068 203.969739 
L 270.780861 204.44098 
L 270.648897 204.758359 
L 270.658033 205.068826 
L 270.658033 205.068826 
" style="fill:none;stroke:#d62728;stroke-linecap:square;stroke-width:1.5;"/>
   </g>
   <g id="line2d_26">
    <path clip-path="url(#p44d650dde2)" d="M 209.125558 59.906318 
L 210.037518 63.628074 
L 210.757636 65.214787 
L 211.583643 67.457099 
L 212.30897 69.783469 
L 213.239459 73.244282 
L 214.235677 77.412775 
L 215.381087 81.765643 
L 216.273293 84.351439 
L 218.02044 88.267741 
L 219.76199 91.666986 
L 222.968682 97.209667 
L 226.42765 103.1206 
L 230.291659 110.870241 
L 231.983188 114.981671 
L 234.59488 121.291918 
L 238.362251 129.563368 
L 240.411697 133.007685 
L 243.218807 136.954657 
L 244.535579 138.687489 
L 247.049443 141.844261 
L 248.609706 143.888226 
L 250.456858 146.404893 
L 251.653105 148.286621 
L 253.399277 151.428519 
L 255.215893 156.176945 
L 256.739802 161.116324 
L 257.39988 163.440429 
L 258.171704 167.012191 
L 258.551387 168.540339 
L 259.128528 169.759534 
L 260.088513 171.143141 
L 261.622359 172.62844 
L 262.687085 173.364655 
L 263.365858 173.881564 
L 264.794087 174.762572 
L 266.947651 175.175562 
L 267.787786 175.358128 
L 268.352361 175.775475 
L 268.988381 176.425076 
L 269.791481 177.140901 
L 270.857982 177.804379 
L 272.797376 179.200935 
L 273.611901 179.945397 
L 274.520091 180.837597 
L 274.99459 181.485171 
L 275.447668 182.153843 
L 276.184513 183.495225 
L 276.495095 184.543548 
L 276.359783 185.766138 
L 275.939819 186.633146 
L 274.559267 188.7845 
L 272.513669 191.636014 
L 272.122417 192.536093 
L 272.006529 193.345274 
L 272.268124 194.485446 
L 272.546655 195.514985 
L 272.582978 196.974698 
L 272.235459 197.625988 
L 271.006978 199.034242 
L 270.655755 199.752082 
L 270.475761 200.61411 
L 270.17065 200.977391 
L 269.767602 201.425941 
L 269.856094 201.421404 
L 269.925904 201.534308 
L 269.924809 201.536475 
L 269.931487 201.752145 
L 269.942443 201.7547 
L 270.191405 201.813626 
L 270.47646 201.841645 
L 271.162418 202.429292 
L 271.196941 202.915409 
L 270.984629 202.985091 
L 271.131052 202.825045 
L 271.862167 202.071221 
L 272.405392 202.092068 
L 273.170853 201.814288 
L 273.084882 202.047721 
L 273.033324 202.191928 
L 272.666146 202.550967 
L 272.668439 202.549396 
L 272.653226 202.675262 
L 272.680585 202.553171 
L 272.67896 202.692404 
L 272.706474 202.769398 
L 272.665259 202.812655 
L 272.422046 203.206395 
L 272.455332 203.685414 
L 272.455332 203.685414 
" style="fill:none;stroke:#9467bd;stroke-linecap:square;stroke-width:1.5;"/>
   </g>
   <g id="legend_1">
    <g id="patch_6">
     <path d="M 284.7575 115.950625 
L 323.12 115.950625 
Q 325.12 115.950625 325.12 113.950625 
L 325.12 41.56 
Q 325.12 39.56 323.12 39.56 
L 284.7575 39.56 
Q 282.7575 39.56 282.7575 41.56 
L 282.7575 113.950625 
Q 282.7575 115.950625 284.7575 115.950625 
z
" style="fill:#ffffff;opacity:0.8;stroke:#cccccc;stroke-linejoin:miter;"/>
    </g>
    <g id="line2d_27">
     <path d="M 286.7575 47.658437 
L 306.7575 47.658437 
" style="fill:none;stroke:#1f77b4;stroke-linecap:square;stroke-width:1.5;"/>
    </g>
    <g id="line2d_28"/>
    <g id="text_19">
     <!-- 0 -->
     <g transform="translate(314.7575 51.158437)scale(0.1 -0.1)">
      <use xlink:href="#DejaVuSans-48"/>
     </g>
    </g>
    <g id="line2d_29">
     <path d="M 286.7575 62.336562 
L 306.7575 62.336562 
" style="fill:none;stroke:#ff7f0e;stroke-linecap:square;stroke-width:1.5;"/>
    </g>
    <g id="line2d_30"/>
    <g id="text_20">
     <!-- 1 -->
     <g transform="translate(314.7575 65.836562)scale(0.1 -0.1)">
      <use xlink:href="#DejaVuSans-49"/>
     </g>
    </g>
    <g id="line2d_31">
     <path d="M 286.7575 77.014687 
L 306.7575 77.014687 
" style="fill:none;stroke:#2ca02c;stroke-linecap:square;stroke-width:1.5;"/>
    </g>
    <g id="line2d_32"/>
    <g id="text_21">
     <!-- 2 -->
     <g transform="translate(314.7575 80.514687)scale(0.1 -0.1)">
      <use xlink:href="#DejaVuSans-50"/>
     </g>
    </g>
    <g id="line2d_33">
     <path d="M 286.7575 91.692813 
L 306.7575 91.692813 
" style="fill:none;stroke:#d62728;stroke-linecap:square;stroke-width:1.5;"/>
    </g>
    <g id="line2d_34"/>
    <g id="text_22">
     <!-- 3 -->
     <g transform="translate(314.7575 95.192813)scale(0.1 -0.1)">
      <use xlink:href="#DejaVuSans-51"/>
     </g>
    </g>
    <g id="line2d_35">
     <path d="M 286.7575 106.370937 
L 306.7575 106.370937 
" style="fill:none;stroke:#9467bd;stroke-linecap:square;stroke-width:1.5;"/>
    </g>
    <g id="line2d_36"/>
    <g id="text_23">
     <!-- 4 -->
     <g transform="translate(314.7575 109.870937)scale(0.1 -0.1)">
      <use xlink:href="#DejaVuSans-52"/>
     </g>
    </g>
   </g>
  </g>
 </g>
 <defs>
  <clipPath id="p44d650dde2">
   <rect height="217.44" width="217.44" x="112.68" y="34.56"/>
  </clipPath>
 </defs>
</svg>
