<?xml version="1.0" encoding="utf-8" standalone="no"?>
<!DOCTYPE svg PUBLIC "-//W3C//DTD SVG 1.1//EN"
  "http://www.w3.org/Graphics/SVG/1.1/DTD/svg11.dtd">
<!-- Created with matplotlib (https://matplotlib.org/) -->
<svg height="288pt" version="1.1" viewBox="0 0 432 288" width="432pt" xmlns="http://www.w3.org/2000/svg" xmlns:xlink="http://www.w3.org/1999/xlink">
 <metadata>
  <rdf:RDF xmlns:cc="http://creativecommons.org/ns#" xmlns:dc="http://purl.org/dc/elements/1.1/" xmlns:rdf="http://www.w3.org/1999/02/22-rdf-syntax-ns#">
   <cc:Work>
    <dc:type rdf:resource="http://purl.org/dc/dcmitype/StillImage"/>
    <dc:date>2021-11-10T15:01:36.699741</dc:date>
    <dc:format>image/svg+xml</dc:format>
    <dc:creator>
     <cc:Agent>
      <dc:title>Matplotlib v3.3.4, https://matplotlib.org/</dc:title>
     </cc:Agent>
    </dc:creator>
   </cc:Work>
  </rdf:RDF>
 </metadata>
 <defs>
  <style type="text/css">*{stroke-linecap:butt;stroke-linejoin:round;}</style>
 </defs>
 <g id="figure_1">
  <g id="patch_1">
   <path d="M 0 288 
L 432 288 
L 432 0 
L 0 0 
z
" style="fill:none;"/>
  </g>
  <g id="patch_2">
   <path d="M 112.68 252 
L 330.12 252 
L 330.12 34.56 
L 112.68 34.56 
z
" style="fill:#ffffff;"/>
  </g>
  <g id="pane3d_1">
   <g id="patch_3">
    <path d="M 129.09822 198.386264 
L 200.904009 138.197228 
L 199.90584 51.393878 
L 124.663773 106.302111 
" style="fill:#f2f2f2;opacity:0.5;stroke:#f2f2f2;stroke-linejoin:miter;"/>
   </g>
  </g>
  <g id="pane3d_2">
   <g id="patch_4">
    <path d="M 200.904009 138.197228 
L 316.12668 171.68791 
L 320.238571 81.894718 
L 199.90584 51.393878 
" style="fill:#e6e6e6;opacity:0.5;stroke:#e6e6e6;stroke-linejoin:miter;"/>
   </g>
  </g>
  <g id="pane3d_3">
   <g id="patch_5">
    <path d="M 129.09822 198.386264 
L 251.239879 238.27773 
L 316.12668 171.68791 
L 200.904009 138.197228 
" style="fill:#ececec;opacity:0.5;stroke:#ececec;stroke-linejoin:miter;"/>
   </g>
  </g>
  <g id="axis3d_1">
   <g id="line2d_1">
    <path d="M 129.09822 198.386264 
L 251.239879 238.27773 
" style="fill:none;stroke:#000000;stroke-linecap:square;stroke-width:0.8;"/>
   </g>
   <g id="Line3DCollection_1">
    <path d="M 145.368286 203.700068 
L 216.311254 142.675506 
L 215.966984 55.46491 
" style="fill:none;stroke:#b0b0b0;stroke-width:0.8;"/>
    <path d="M 163.560625 209.641686 
L 233.517348 147.676638 
L 233.914035 60.013964 
" style="fill:none;stroke:#b0b0b0;stroke-width:0.8;"/>
    <path d="M 182.046688 215.679234 
L 250.978058 152.751777 
L 252.138233 64.633267 
" style="fill:none;stroke:#b0b0b0;stroke-width:0.8;"/>
    <path d="M 200.833649 221.815055 
L 268.699076 157.902578 
L 270.646045 69.324458 
" style="fill:none;stroke:#b0b0b0;stroke-width:0.8;"/>
    <path d="M 219.928913 228.051569 
L 286.686268 163.130744 
L 289.444146 74.089229 
" style="fill:none;stroke:#b0b0b0;stroke-width:0.8;"/>
    <path d="M 239.340134 234.391273 
L 304.945676 168.438033 
L 308.539419 78.929323 
" style="fill:none;stroke:#b0b0b0;stroke-width:0.8;"/>
   </g>
   <g id="xtick_1">
    <g id="line2d_2">
     <path d="M 145.98625 203.1685 
L 144.129696 204.765494 
" style="fill:none;stroke:#000000;stroke-linecap:square;stroke-width:0.8;"/>
    </g>
    <g id="text_1">
     <!-- 0.40 -->
     <g transform="translate(126.711031 227.09748)scale(0.1 -0.1)">
      <defs>
       <path d="M 31.78125 66.40625 
Q 24.171875 66.40625 20.328125 58.90625 
Q 16.5 51.421875 16.5 36.375 
Q 16.5 21.390625 20.328125 13.890625 
Q 24.171875 6.390625 31.78125 6.390625 
Q 39.453125 6.390625 43.28125 13.890625 
Q 47.125 21.390625 47.125 36.375 
Q 47.125 51.421875 43.28125 58.90625 
Q 39.453125 66.40625 31.78125 66.40625 
z
M 31.78125 74.21875 
Q 44.046875 74.21875 50.515625 64.515625 
Q 56.984375 54.828125 56.984375 36.375 
Q 56.984375 17.96875 50.515625 8.265625 
Q 44.046875 -1.421875 31.78125 -1.421875 
Q 19.53125 -1.421875 13.0625 8.265625 
Q 6.59375 17.96875 6.59375 36.375 
Q 6.59375 54.828125 13.0625 64.515625 
Q 19.53125 74.21875 31.78125 74.21875 
z
" id="DejaVuSans-48"/>
       <path d="M 10.6875 12.40625 
L 21 12.40625 
L 21 0 
L 10.6875 0 
z
" id="DejaVuSans-46"/>
       <path d="M 37.796875 64.3125 
L 12.890625 25.390625 
L 37.796875 25.390625 
z
M 35.203125 72.90625 
L 47.609375 72.90625 
L 47.609375 25.390625 
L 58.015625 25.390625 
L 58.015625 17.1875 
L 47.609375 17.1875 
L 47.609375 0 
L 37.796875 0 
L 37.796875 17.1875 
L 4.890625 17.1875 
L 4.890625 26.703125 
z
" id="DejaVuSans-52"/>
      </defs>
      <use xlink:href="#DejaVuSans-48"/>
      <use x="63.623047" xlink:href="#DejaVuSans-46"/>
      <use x="95.410156" xlink:href="#DejaVuSans-52"/>
      <use x="159.033203" xlink:href="#DejaVuSans-48"/>
     </g>
    </g>
   </g>
   <g id="xtick_2">
    <g id="line2d_3">
     <path d="M 164.170396 209.101573 
L 162.338434 210.724256 
" style="fill:none;stroke:#000000;stroke-linecap:square;stroke-width:0.8;"/>
    </g>
    <g id="text_2">
     <!-- 0.45 -->
     <g transform="translate(144.926662 233.193579)scale(0.1 -0.1)">
      <defs>
       <path d="M 10.796875 72.90625 
L 49.515625 72.90625 
L 49.515625 64.59375 
L 19.828125 64.59375 
L 19.828125 46.734375 
Q 21.96875 47.46875 24.109375 47.828125 
Q 26.265625 48.1875 28.421875 48.1875 
Q 40.625 48.1875 47.75 41.5 
Q 54.890625 34.8125 54.890625 23.390625 
Q 54.890625 11.625 47.5625 5.09375 
Q 40.234375 -1.421875 26.90625 -1.421875 
Q 22.3125 -1.421875 17.546875 -0.640625 
Q 12.796875 0.140625 7.71875 1.703125 
L 7.71875 11.625 
Q 12.109375 9.234375 16.796875 8.0625 
Q 21.484375 6.890625 26.703125 6.890625 
Q 35.15625 6.890625 40.078125 11.328125 
Q 45.015625 15.765625 45.015625 23.390625 
Q 45.015625 31 40.078125 35.4375 
Q 35.15625 39.890625 26.703125 39.890625 
Q 22.75 39.890625 18.8125 39.015625 
Q 14.890625 38.140625 10.796875 36.28125 
z
" id="DejaVuSans-53"/>
      </defs>
      <use xlink:href="#DejaVuSans-48"/>
      <use x="63.623047" xlink:href="#DejaVuSans-46"/>
      <use x="95.410156" xlink:href="#DejaVuSans-52"/>
      <use x="159.033203" xlink:href="#DejaVuSans-53"/>
     </g>
    </g>
   </g>
   <g id="xtick_3">
    <g id="line2d_4">
     <path d="M 182.64792 215.130369 
L 180.841592 216.779367 
" style="fill:none;stroke:#000000;stroke-linecap:square;stroke-width:0.8;"/>
    </g>
    <g id="text_3">
     <!-- 0.50 -->
     <g transform="translate(163.43776 239.38856)scale(0.1 -0.1)">
      <use xlink:href="#DejaVuSans-48"/>
      <use x="63.623047" xlink:href="#DejaVuSans-46"/>
      <use x="95.410156" xlink:href="#DejaVuSans-53"/>
      <use x="159.033203" xlink:href="#DejaVuSans-48"/>
     </g>
    </g>
   </g>
   <g id="xtick_4">
    <g id="line2d_5">
     <path d="M 201.425982 221.257224 
L 199.646368 222.933181 
" style="fill:none;stroke:#000000;stroke-linecap:square;stroke-width:0.8;"/>
    </g>
    <g id="text_4">
     <!-- 0.55 -->
     <g transform="translate(182.251575 245.684849)scale(0.1 -0.1)">
      <use xlink:href="#DejaVuSans-48"/>
      <use x="63.623047" xlink:href="#DejaVuSans-46"/>
      <use x="95.410156" xlink:href="#DejaVuSans-53"/>
      <use x="159.033203" xlink:href="#DejaVuSans-53"/>
     </g>
    </g>
   </g>
   <g id="xtick_5">
    <g id="line2d_6">
     <path d="M 220.511974 227.484549 
L 218.760198 229.188132 
" style="fill:none;stroke:#000000;stroke-linecap:square;stroke-width:0.8;"/>
    </g>
    <g id="text_5">
     <!-- 0.60 -->
     <g transform="translate(201.375591 252.084951)scale(0.1 -0.1)">
      <defs>
       <path d="M 33.015625 40.375 
Q 26.375 40.375 22.484375 35.828125 
Q 18.609375 31.296875 18.609375 23.390625 
Q 18.609375 15.53125 22.484375 10.953125 
Q 26.375 6.390625 33.015625 6.390625 
Q 39.65625 6.390625 43.53125 10.953125 
Q 47.40625 15.53125 47.40625 23.390625 
Q 47.40625 31.296875 43.53125 35.828125 
Q 39.65625 40.375 33.015625 40.375 
z
M 52.59375 71.296875 
L 52.59375 62.3125 
Q 48.875 64.0625 45.09375 64.984375 
Q 41.3125 65.921875 37.59375 65.921875 
Q 27.828125 65.921875 22.671875 59.328125 
Q 17.53125 52.734375 16.796875 39.40625 
Q 19.671875 43.65625 24.015625 45.921875 
Q 28.375 48.1875 33.59375 48.1875 
Q 44.578125 48.1875 50.953125 41.515625 
Q 57.328125 34.859375 57.328125 23.390625 
Q 57.328125 12.15625 50.6875 5.359375 
Q 44.046875 -1.421875 33.015625 -1.421875 
Q 20.359375 -1.421875 13.671875 8.265625 
Q 6.984375 17.96875 6.984375 36.375 
Q 6.984375 53.65625 15.1875 63.9375 
Q 23.390625 74.21875 37.203125 74.21875 
Q 40.921875 74.21875 44.703125 73.484375 
Q 48.484375 72.75 52.59375 71.296875 
z
" id="DejaVuSans-54"/>
      </defs>
      <use xlink:href="#DejaVuSans-48"/>
      <use x="63.623047" xlink:href="#DejaVuSans-46"/>
      <use x="95.410156" xlink:href="#DejaVuSans-54"/>
      <use x="159.033203" xlink:href="#DejaVuSans-48"/>
     </g>
    </g>
   </g>
   <g id="xtick_6">
    <g id="line2d_7">
     <path d="M 239.913532 233.814836 
L 238.190764 235.546735 
" style="fill:none;stroke:#000000;stroke-linecap:square;stroke-width:0.8;"/>
    </g>
    <g id="text_6">
     <!-- 0.65 -->
     <g transform="translate(220.817546 258.591455)scale(0.1 -0.1)">
      <use xlink:href="#DejaVuSans-48"/>
      <use x="63.623047" xlink:href="#DejaVuSans-46"/>
      <use x="95.410156" xlink:href="#DejaVuSans-54"/>
      <use x="159.033203" xlink:href="#DejaVuSans-53"/>
     </g>
    </g>
   </g>
  </g>
  <g id="axis3d_2">
   <g id="line2d_8">
    <path d="M 316.12668 171.68791 
L 251.239879 238.27773 
" style="fill:none;stroke:#000000;stroke-linecap:square;stroke-width:0.8;"/>
   </g>
   <g id="Line3DCollection_2">
    <path d="M 133.321609 99.984016 
L 137.332932 191.483765 
L 258.710255 230.611286 
" style="fill:none;stroke:#b0b0b0;stroke-width:0.8;"/>
    <path d="M 144.399869 91.899607 
L 147.880264 182.642782 
L 268.267534 220.803167 
" style="fill:none;stroke:#b0b0b0;stroke-width:0.8;"/>
    <path d="M 155.200986 84.017444 
L 158.175085 174.013459 
L 277.584045 211.242135 
" style="fill:none;stroke:#b0b0b0;stroke-width:0.8;"/>
    <path d="M 165.735231 76.330032 
L 168.226356 165.588285 
L 286.668774 201.918968 
" style="fill:none;stroke:#b0b0b0;stroke-width:0.8;"/>
    <path d="M 176.012373 68.830241 
L 178.042618 157.360099 
L 295.530263 192.8249 
" style="fill:none;stroke:#b0b0b0;stroke-width:0.8;"/>
    <path d="M 186.041712 61.511287 
L 187.632019 149.322073 
L 304.176642 183.951588 
" style="fill:none;stroke:#b0b0b0;stroke-width:0.8;"/>
    <path d="M 195.832104 54.366705 
L 197.002333 141.46769 
L 312.615649 175.291091 
" style="fill:none;stroke:#b0b0b0;stroke-width:0.8;"/>
   </g>
   <g id="xtick_7">
    <g id="line2d_9">
     <path d="M 257.68761 230.281624 
L 260.758179 231.271461 
" style="fill:none;stroke:#000000;stroke-linecap:square;stroke-width:0.8;"/>
    </g>
    <g id="text_7">
     <!-- −0.20 -->
     <g transform="translate(256.221048 251.579343)scale(0.1 -0.1)">
      <defs>
       <path d="M 10.59375 35.5 
L 73.1875 35.5 
L 73.1875 27.203125 
L 10.59375 27.203125 
z
" id="DejaVuSans-8722"/>
       <path d="M 19.1875 8.296875 
L 53.609375 8.296875 
L 53.609375 0 
L 7.328125 0 
L 7.328125 8.296875 
Q 12.9375 14.109375 22.625 23.890625 
Q 32.328125 33.6875 34.8125 36.53125 
Q 39.546875 41.84375 41.421875 45.53125 
Q 43.3125 49.21875 43.3125 52.78125 
Q 43.3125 58.59375 39.234375 62.25 
Q 35.15625 65.921875 28.609375 65.921875 
Q 23.96875 65.921875 18.8125 64.3125 
Q 13.671875 62.703125 7.8125 59.421875 
L 7.8125 69.390625 
Q 13.765625 71.78125 18.9375 73 
Q 24.125 74.21875 28.421875 74.21875 
Q 39.75 74.21875 46.484375 68.546875 
Q 53.21875 62.890625 53.21875 53.421875 
Q 53.21875 48.921875 51.53125 44.890625 
Q 49.859375 40.875 45.40625 35.40625 
Q 44.1875 33.984375 37.640625 27.21875 
Q 31.109375 20.453125 19.1875 8.296875 
z
" id="DejaVuSans-50"/>
      </defs>
      <use xlink:href="#DejaVuSans-8722"/>
      <use x="83.789062" xlink:href="#DejaVuSans-48"/>
      <use x="147.412109" xlink:href="#DejaVuSans-46"/>
      <use x="179.199219" xlink:href="#DejaVuSans-50"/>
      <use x="242.822266" xlink:href="#DejaVuSans-48"/>
     </g>
    </g>
   </g>
   <g id="xtick_8">
    <g id="line2d_10">
     <path d="M 267.253883 220.48186 
L 270.297413 221.446599 
" style="fill:none;stroke:#000000;stroke-linecap:square;stroke-width:0.8;"/>
    </g>
    <g id="text_8">
     <!-- −0.15 -->
     <g transform="translate(265.621384 241.59348)scale(0.1 -0.1)">
      <defs>
       <path d="M 12.40625 8.296875 
L 28.515625 8.296875 
L 28.515625 63.921875 
L 10.984375 60.40625 
L 10.984375 69.390625 
L 28.421875 72.90625 
L 38.28125 72.90625 
L 38.28125 8.296875 
L 54.390625 8.296875 
L 54.390625 0 
L 12.40625 0 
z
" id="DejaVuSans-49"/>
      </defs>
      <use xlink:href="#DejaVuSans-8722"/>
      <use x="83.789062" xlink:href="#DejaVuSans-48"/>
      <use x="147.412109" xlink:href="#DejaVuSans-46"/>
      <use x="179.199219" xlink:href="#DejaVuSans-49"/>
      <use x="242.822266" xlink:href="#DejaVuSans-53"/>
     </g>
    </g>
   </g>
   <g id="xtick_9">
    <g id="line2d_11">
     <path d="M 276.579263 210.928869 
L 279.596132 211.869452 
" style="fill:none;stroke:#000000;stroke-linecap:square;stroke-width:0.8;"/>
    </g>
    <g id="text_9">
     <!-- −0.10 -->
     <g transform="translate(274.784738 231.85936)scale(0.1 -0.1)">
      <use xlink:href="#DejaVuSans-8722"/>
      <use x="83.789062" xlink:href="#DejaVuSans-48"/>
      <use x="147.412109" xlink:href="#DejaVuSans-46"/>
      <use x="179.199219" xlink:href="#DejaVuSans-49"/>
      <use x="242.822266" xlink:href="#DejaVuSans-48"/>
     </g>
    </g>
   </g>
   <g id="xtick_10">
    <g id="line2d_12">
     <path d="M 285.672736 201.613446 
L 288.66332 202.530769 
" style="fill:none;stroke:#000000;stroke-linecap:square;stroke-width:0.8;"/>
    </g>
    <g id="text_10">
     <!-- −0.05 -->
     <g transform="translate(283.719959 222.367583)scale(0.1 -0.1)">
      <use xlink:href="#DejaVuSans-8722"/>
      <use x="83.789062" xlink:href="#DejaVuSans-48"/>
      <use x="147.412109" xlink:href="#DejaVuSans-46"/>
      <use x="179.199219" xlink:href="#DejaVuSans-48"/>
      <use x="242.822266" xlink:href="#DejaVuSans-53"/>
     </g>
    </g>
   </g>
   <g id="xtick_11">
    <g id="line2d_13">
     <path d="M 294.542845 192.526838 
L 297.507518 193.421754 
" style="fill:none;stroke:#000000;stroke-linecap:square;stroke-width:0.8;"/>
    </g>
    <g id="text_11">
     <!-- 0.00 -->
     <g transform="translate(296.625306 213.109209)scale(0.1 -0.1)">
      <use xlink:href="#DejaVuSans-48"/>
      <use x="63.623047" xlink:href="#DejaVuSans-46"/>
      <use x="95.410156" xlink:href="#DejaVuSans-48"/>
      <use x="159.033203" xlink:href="#DejaVuSans-48"/>
     </g>
    </g>
   </g>
   <g id="xtick_12">
    <g id="line2d_14">
     <path d="M 303.197721 183.660716 
L 306.136852 184.534036 
" style="fill:none;stroke:#000000;stroke-linecap:square;stroke-width:0.8;"/>
    </g>
    <g id="text_12">
     <!-- 0.05 -->
     <g transform="translate(305.129097 204.075735)scale(0.1 -0.1)">
      <use xlink:href="#DejaVuSans-48"/>
      <use x="63.623047" xlink:href="#DejaVuSans-46"/>
      <use x="95.410156" xlink:href="#DejaVuSans-48"/>
      <use x="159.033203" xlink:href="#DejaVuSans-53"/>
     </g>
    </g>
   </g>
   <g id="xtick_13">
    <g id="line2d_15">
     <path d="M 311.645105 175.007152 
L 314.559058 175.859648 
" style="fill:none;stroke:#000000;stroke-linecap:square;stroke-width:0.8;"/>
    </g>
    <g id="text_13">
     <!-- 0.10 -->
     <g transform="translate(313.428798 195.259063)scale(0.1 -0.1)">
      <use xlink:href="#DejaVuSans-48"/>
      <use x="63.623047" xlink:href="#DejaVuSans-46"/>
      <use x="95.410156" xlink:href="#DejaVuSans-49"/>
      <use x="159.033203" xlink:href="#DejaVuSans-48"/>
     </g>
    </g>
   </g>
  </g>
  <g id="axis3d_3">
   <g id="line2d_16">
    <path d="M 316.12668 171.68791 
L 320.238571 81.894718 
" style="fill:none;stroke:#000000;stroke-linecap:square;stroke-width:0.8;"/>
   </g>
   <g id="Line3DCollection_3">
    <path d="M 316.739965 158.295333 
L 200.754865 125.227312 
L 128.437774 184.671685 
" style="fill:none;stroke:#b0b0b0;stroke-width:0.8;"/>
    <path d="M 317.40322 143.811544 
L 200.593675 111.209818 
L 127.723142 169.831895 
" style="fill:none;stroke:#b0b0b0;stroke-width:0.8;"/>
    <path d="M 318.076065 129.118324 
L 200.430267 96.99939 
L 126.99778 154.769279 
" style="fill:none;stroke:#b0b0b0;stroke-width:0.8;"/>
    <path d="M 318.75871 114.211097 
L 200.264593 82.592017 
L 126.261444 139.478779 
" style="fill:none;stroke:#b0b0b0;stroke-width:0.8;"/>
    <path d="M 319.451371 99.085153 
L 200.096608 67.983577 
L 125.513883 123.955185 
" style="fill:none;stroke:#b0b0b0;stroke-width:0.8;"/>
   </g>
   <g id="xtick_14">
    <g id="line2d_17">
     <path d="M 315.766226 158.017715 
L 318.689774 158.851235 
" style="fill:none;stroke:#000000;stroke-linecap:square;stroke-width:0.8;"/>
    </g>
    <g id="text_14">
     <!-- 0.2 -->
     <g transform="translate(327.143936 163.322627)scale(0.1 -0.1)">
      <use xlink:href="#DejaVuSans-48"/>
      <use x="63.623047" xlink:href="#DejaVuSans-46"/>
      <use x="95.410156" xlink:href="#DejaVuSans-50"/>
     </g>
    </g>
   </g>
   <g id="xtick_15">
    <g id="line2d_18">
     <path d="M 316.422228 143.537748 
L 319.367569 144.359797 
" style="fill:none;stroke:#000000;stroke-linecap:square;stroke-width:0.8;"/>
    </g>
    <g id="text_15">
     <!-- 0.3 -->
     <g transform="translate(327.935991 148.874297)scale(0.1 -0.1)">
      <defs>
       <path d="M 40.578125 39.3125 
Q 47.65625 37.796875 51.625 33 
Q 55.609375 28.21875 55.609375 21.1875 
Q 55.609375 10.40625 48.1875 4.484375 
Q 40.765625 -1.421875 27.09375 -1.421875 
Q 22.515625 -1.421875 17.65625 -0.515625 
Q 12.796875 0.390625 7.625 2.203125 
L 7.625 11.71875 
Q 11.71875 9.328125 16.59375 8.109375 
Q 21.484375 6.890625 26.8125 6.890625 
Q 36.078125 6.890625 40.9375 10.546875 
Q 45.796875 14.203125 45.796875 21.1875 
Q 45.796875 27.640625 41.28125 31.265625 
Q 36.765625 34.90625 28.71875 34.90625 
L 20.21875 34.90625 
L 20.21875 43.015625 
L 29.109375 43.015625 
Q 36.375 43.015625 40.234375 45.921875 
Q 44.09375 48.828125 44.09375 54.296875 
Q 44.09375 59.90625 40.109375 62.90625 
Q 36.140625 65.921875 28.71875 65.921875 
Q 24.65625 65.921875 20.015625 65.03125 
Q 15.375 64.15625 9.8125 62.3125 
L 9.8125 71.09375 
Q 15.4375 72.65625 20.34375 73.4375 
Q 25.25 74.21875 29.59375 74.21875 
Q 40.828125 74.21875 47.359375 69.109375 
Q 53.90625 64.015625 53.90625 55.328125 
Q 53.90625 49.265625 50.4375 45.09375 
Q 46.96875 40.921875 40.578125 39.3125 
z
" id="DejaVuSans-51"/>
      </defs>
      <use xlink:href="#DejaVuSans-48"/>
      <use x="63.623047" xlink:href="#DejaVuSans-46"/>
      <use x="95.410156" xlink:href="#DejaVuSans-51"/>
     </g>
    </g>
   </g>
   <g id="xtick_16">
    <g id="line2d_19">
     <path d="M 317.087712 128.84849 
L 320.055172 129.658648 
" style="fill:none;stroke:#000000;stroke-linecap:square;stroke-width:0.8;"/>
    </g>
    <g id="text_16">
     <!-- 0.4 -->
     <g transform="translate(328.739455 134.217831)scale(0.1 -0.1)">
      <use xlink:href="#DejaVuSans-48"/>
      <use x="63.623047" xlink:href="#DejaVuSans-46"/>
      <use x="95.410156" xlink:href="#DejaVuSans-52"/>
     </g>
    </g>
   </g>
   <g id="xtick_17">
    <g id="line2d_20">
     <path d="M 317.762884 113.94537 
L 320.752799 114.743201 
" style="fill:none;stroke:#000000;stroke-linecap:square;stroke-width:0.8;"/>
    </g>
    <g id="text_17">
     <!-- 0.5 -->
     <g transform="translate(329.554578 119.348699)scale(0.1 -0.1)">
      <use xlink:href="#DejaVuSans-48"/>
      <use x="63.623047" xlink:href="#DejaVuSans-46"/>
      <use x="95.410156" xlink:href="#DejaVuSans-53"/>
     </g>
    </g>
   </g>
   <g id="xtick_18">
    <g id="line2d_21">
     <path d="M 318.447959 98.823683 
L 321.460669 99.608738 
" style="fill:none;stroke:#000000;stroke-linecap:square;stroke-width:0.8;"/>
    </g>
    <g id="text_18">
     <!-- 0.6 -->
     <g transform="translate(330.381614 104.262238)scale(0.1 -0.1)">
      <use xlink:href="#DejaVuSans-48"/>
      <use x="63.623047" xlink:href="#DejaVuSans-46"/>
      <use x="95.410156" xlink:href="#DejaVuSans-54"/>
     </g>
    </g>
   </g>
  </g>
  <g id="axes_1">
   <g id="line2d_22">
    <path clip-path="url(#p9d5664cd6e)" d="M 146.004964 118.669324 
L 152.029166 119.425991 
L 158.193306 120.461142 
L 163.460146 121.613443 
L 169.076071 123.007538 
L 175.523499 124.865382 
L 181.352495 126.84352 
L 192.136505 131.149578 
L 198.864414 134.120778 
L 202.629196 135.873614 
L 213.697593 140.694042 
L 217.946738 142.507964 
L 221.879475 144.263808 
L 229.159384 147.231239 
L 241.581418 151.759684 
L 243.013604 152.290859 
L 247.559826 154.022265 
L 250.988239 155.410236 
L 252.941848 156.479339 
L 253.904903 157.238966 
L 254.979367 158.392542 
L 256.557342 160.558433 
L 257.536198 162.212485 
L 258.694398 164.720936 
L 260.420955 169.487178 
L 260.839032 170.704976 
L 261.227125 172.080423 
L 261.548208 173.420431 
L 261.905838 174.441826 
L 262.299703 175.511594 
L 263.485881 177.981688 
L 263.79428 179.116647 
L 263.998849 180.540393 
L 263.732759 182.058518 
L 263.122952 184.642073 
L 263.116001 185.768391 
L 263.639867 186.840937 
L 264.122979 187.218295 
L 267.308336 188.575573 
L 268.363153 189.470048 
L 268.491688 190.026115 
L 268.383335 192.036879 
L 268.626357 192.985973 
L 268.913152 193.071388 
L 271.160143 193.336825 
L 271.298562 193.66719 
L 271.302361 194.384289 
L 270.876091 194.977647 
L 270.532328 195.331558 
L 270.582069 195.339628 
L 271.56667 195.076141 
L 271.606299 195.42146 
L 271.549704 196.53634 
L 271.506402 196.494142 
L 271.710253 196.683665 
L 271.653022 196.97417 
L 271.506162 197.303529 
L 271.516311 197.638287 
L 271.516311 197.638287 
" style="fill:none;stroke:#1f77b4;stroke-linecap:square;stroke-width:1.5;"/>
   </g>
   <g id="line2d_23">
    <path clip-path="url(#p9d5664cd6e)" d="M 235.87697 95.505729 
L 236.520681 96.556778 
L 237.198163 97.276971 
L 238.158254 97.964378 
L 240.338115 99.249788 
L 243.844047 101.411819 
L 245.02705 102.39293 
L 246.815634 104.187475 
L 247.151795 104.922847 
L 247.660638 106.251759 
L 248.309093 108.148307 
L 249.008716 109.526934 
L 249.577918 110.316995 
L 251.181373 112.746944 
L 252.083695 114.16473 
L 253.764564 116.370049 
L 256.709145 119.574744 
L 258.09958 121.391741 
L 258.689726 122.483713 
L 259.384345 124.193162 
L 260.432936 128.310222 
L 261.291983 131.412756 
L 261.674139 132.947839 
L 262.585862 138.293903 
L 262.663869 140.576143 
L 262.653926 141.552161 
L 262.550151 142.728125 
L 261.55206 149.890536 
L 261.83516 152.766721 
L 262.128513 155.947324 
L 262.295986 158.366447 
L 262.614577 160.308649 
L 263.191727 161.687434 
L 263.671898 162.466632 
L 264.443067 163.611443 
L 265.195372 165.172701 
L 265.354586 169.38134 
L 265.022999 171.136589 
L 264.891697 172.512949 
L 265.032975 173.357569 
L 265.878042 175.090484 
L 266.177376 175.70591 
L 266.906285 177.205839 
L 267.646224 179.968786 
L 267.760343 180.495998 
L 267.842068 181.811836 
L 267.614885 183.126769 
L 266.809344 185.72839 
L 266.936348 187.6013 
L 267.052815 188.895345 
L 267.172008 189.791354 
L 267.409687 190.318138 
L 267.752611 190.564134 
L 269.480065 191.041016 
L 269.557105 191.193108 
L 270.968163 192.586267 
L 271.212673 193.049949 
L 271.326661 193.506227 
L 271.4927 193.731445 
L 271.591794 194.028645 
L 271.429731 194.238595 
L 271.6479 194.146649 
L 272.048615 194.002514 
L 272.318708 194.124757 
L 272.718169 194.694009 
L 272.101266 195.401846 
L 272.105102 195.405574 
L 272.320609 195.835979 
L 272.326108 196.051432 
L 272.49089 196.24712 
L 272.636984 196.335226 
L 272.636093 196.336685 
L 272.69963 196.441929 
L 272.697424 196.366504 
L 272.704143 196.44366 
L 272.718695 196.445245 
L 272.689354 196.552549 
L 272.689621 196.55505 
L 272.609049 196.753758 
L 272.645594 196.858856 
L 272.641518 196.86693 
L 272.50361 197.050063 
L 272.37382 197.373925 
L 272.387727 197.691834 
L 272.387727 197.691834 
" style="fill:none;stroke:#ff7f0e;stroke-linecap:square;stroke-width:1.5;"/>
   </g>
   <g id="line2d_24">
    <path clip-path="url(#p9d5664cd6e)" d="M 151.097721 112.280229 
L 158.009857 112.711481 
L 164.218582 113.1392 
L 179.457493 114.654113 
L 185.685174 115.632291 
L 193.930976 117.120557 
L 206.310488 119.631874 
L 218.042178 122.571204 
L 221.472185 123.63806 
L 230.107112 126.599196 
L 236.617406 129.509555 
L 241.657257 131.978696 
L 244.846476 133.625956 
L 249.831303 136.616859 
L 254.127025 139.534815 
L 256.274243 141.331356 
L 258.220608 143.230419 
L 260.945412 145.802396 
L 263.359406 147.651484 
L 264.247323 148.311531 
L 268.877869 151.674364 
L 274.228933 156.197592 
L 275.005425 157.227251 
L 275.35608 157.931761 
L 275.809058 159.381079 
L 276.901811 162.444912 
L 277.119674 163.02325 
L 277.449377 165.046986 
L 277.2876 166.531474 
L 277.03468 167.622294 
L 276.274483 169.90487 
L 274.605966 173.605861 
L 273.37487 176.077619 
L 272.312121 178.374184 
L 270.92668 181.347328 
L 269.014666 185.486994 
L 269.169575 185.874768 
L 270.000783 186.65582 
L 271.296511 187.832794 
L 271.427201 188.24176 
L 271.380368 188.608766 
L 271.006175 189.126494 
L 270.62285 189.801961 
L 270.401864 190.117655 
L 269.001971 191.49774 
L 269.090225 191.770051 
L 269.463058 192.409385 
L 269.367728 192.596391 
L 269.246727 192.79181 
L 269.328914 192.808086 
L 269.262503 193.068001 
L 269.252912 193.243131 
L 269.349082 193.379559 
L 269.606335 193.665128 
L 269.927565 194.014971 
L 269.904922 194.512619 
L 270.377959 195.201001 
L 270.37096 195.207144 
L 270.114427 195.474811 
L 270.244573 195.457774 
L 270.845921 195.056194 
L 270.885642 195.028337 
L 270.850566 195.175945 
L 270.880617 195.170606 
L 270.976224 195.320925 
L 271.002887 195.498479 
L 271.098338 195.859394 
L 271.443059 196.352221 
L 271.588432 196.44508 
L 271.813869 196.474532 
L 271.729241 196.579124 
L 271.783421 196.705651 
L 271.786697 196.706701 
L 272.347774 196.673844 
L 272.250726 196.856962 
L 272.101545 197.181389 
L 272.051542 197.737269 
L 272.051542 197.737269 
" style="fill:none;stroke:#2ca02c;stroke-linecap:square;stroke-width:1.5;"/>
   </g>
   <g id="line2d_25">
    <path clip-path="url(#p9d5664cd6e)" d="M 204.457403 87.778878 
L 207.006081 88.779872 
L 211.573915 90.694351 
L 218.111659 94.014216 
L 227.363545 99.157409 
L 230.066984 101.157335 
L 233.975444 104.590075 
L 238.584955 109.088136 
L 244.886148 114.275696 
L 247.244983 116.188832 
L 248.915153 117.614114 
L 256.13928 123.452776 
L 260.656548 126.937891 
L 263.013731 128.91049 
L 265.069825 130.858014 
L 268.01347 133.64198 
L 272.265086 137.726247 
L 275.165691 140.825472 
L 278.274099 144.730959 
L 279.264913 146.47632 
L 279.854374 147.774736 
L 280.367794 149.323318 
L 280.842897 151.453372 
L 281.145664 153.708167 
L 281.159281 155.615912 
L 281.16968 157.172197 
L 280.850691 162.235038 
L 279.388933 167.831991 
L 279.295048 168.689974 
L 278.677047 170.796514 
L 277.923529 172.256468 
L 277.038038 173.517037 
L 273.490447 178.156883 
L 271.913861 181.343287 
L 270.835827 183.157318 
L 267.830178 187.374492 
L 267.422106 188.279593 
L 267.443486 188.741242 
L 267.584471 188.988355 
L 268.910524 190.066893 
L 269.584851 190.488757 
L 269.553295 190.972976 
L 269.441459 191.783248 
L 269.612819 192.056233 
L 269.338727 192.464025 
L 269.047436 192.839669 
L 268.849523 193.227588 
L 269.041293 193.331593 
L 269.745333 193.404137 
L 270.272455 193.57668 
L 270.531933 193.860091 
L 270.879159 194.379493 
L 270.897919 194.386161 
L 270.803882 194.475256 
L 270.706746 194.746538 
L 270.717517 195.046601 
L 270.70603 195.155234 
L 270.660096 195.441218 
L 270.759991 195.607082 
L 271.373023 195.877873 
L 271.422421 195.927512 
L 271.421114 195.89785 
L 271.457425 195.94906 
L 271.508361 195.988154 
L 271.467319 196.060024 
L 271.24832 196.268292 
L 271.052194 196.678222 
L 271.045861 196.964107 
L 271.045861 196.964107 
" style="fill:none;stroke:#d62728;stroke-linecap:square;stroke-width:1.5;"/>
   </g>
   <g id="line2d_26">
    <path clip-path="url(#p9d5664cd6e)" d="M 202.912189 64.428677 
L 203.836231 66.403785 
L 206.399288 73.047818 
L 209.392731 82.025583 
L 210.999766 86.238228 
L 214.13389 93.838491 
L 215.052179 95.476275 
L 217.546024 99.875207 
L 218.805755 101.956598 
L 221.718005 106.747668 
L 222.298264 108.703427 
L 223.011886 111.627347 
L 223.781244 113.709797 
L 225.786369 117.821874 
L 226.759998 119.276083 
L 227.906843 120.75061 
L 231.026798 124.674227 
L 232.590353 126.710001 
L 234.135498 128.67582 
L 237.729501 133.908006 
L 238.566803 135.549849 
L 239.93336 138.434988 
L 240.919584 140.253652 
L 242.437759 142.680899 
L 245.23408 146.447758 
L 247.044769 148.898579 
L 251.867193 155.598136 
L 252.734367 157.870949 
L 253.650611 160.123734 
L 256.043442 163.211067 
L 256.491529 164.384014 
L 257.280329 166.261806 
L 257.76447 167.246885 
L 258.907736 168.949455 
L 259.372531 169.656741 
L 259.918301 170.366395 
L 260.458211 171.125762 
L 260.940215 172.196519 
L 261.347762 173.546888 
L 261.723281 174.828501 
L 262.84114 176.658081 
L 263.403835 177.672382 
L 265.178781 181.08242 
L 266.227009 182.460223 
L 266.5526 182.891022 
L 270.291741 188.284994 
L 270.289695 188.67754 
L 269.975677 189.213707 
L 269.793715 189.579977 
L 269.783251 190.216026 
L 269.83936 190.594048 
L 269.799152 190.993874 
L 268.915368 192.392531 
L 269.150178 192.818734 
L 269.329318 193.102323 
L 269.184583 193.305972 
L 269.068722 193.542304 
L 269.219862 193.694567 
L 270.516701 194.352846 
L 270.850936 194.872291 
L 270.770355 194.874831 
L 269.808139 194.951119 
L 269.996892 194.846583 
L 270.104345 194.77602 
L 269.869713 195.109788 
L 269.931618 195.312474 
L 270.337855 195.45451 
L 272.008094 196.112531 
L 271.987506 196.144382 
L 271.63343 196.30489 
L 271.477014 196.434348 
L 271.522984 196.474527 
L 271.834567 196.502217 
L 272.163363 196.515247 
L 272.286182 196.584347 
L 272.545501 196.737174 
L 272.500074 196.792285 
L 272.185554 197.2938 
L 272.206503 197.711387 
L 272.206503 197.711387 
" style="fill:none;stroke:#9467bd;stroke-linecap:square;stroke-width:1.5;"/>
   </g>
   <g id="legend_1">
    <g id="patch_6">
     <path d="M 284.7575 115.950625 
L 323.12 115.950625 
Q 325.12 115.950625 325.12 113.950625 
L 325.12 41.56 
Q 325.12 39.56 323.12 39.56 
L 284.7575 39.56 
Q 282.7575 39.56 282.7575 41.56 
L 282.7575 113.950625 
Q 282.7575 115.950625 284.7575 115.950625 
z
" style="fill:#ffffff;opacity:0.8;stroke:#cccccc;stroke-linejoin:miter;"/>
    </g>
    <g id="line2d_27">
     <path d="M 286.7575 47.658437 
L 306.7575 47.658437 
" style="fill:none;stroke:#1f77b4;stroke-linecap:square;stroke-width:1.5;"/>
    </g>
    <g id="line2d_28"/>
    <g id="text_19">
     <!-- 0 -->
     <g transform="translate(314.7575 51.158437)scale(0.1 -0.1)">
      <use xlink:href="#DejaVuSans-48"/>
     </g>
    </g>
    <g id="line2d_29">
     <path d="M 286.7575 62.336562 
L 306.7575 62.336562 
" style="fill:none;stroke:#ff7f0e;stroke-linecap:square;stroke-width:1.5;"/>
    </g>
    <g id="line2d_30"/>
    <g id="text_20">
     <!-- 1 -->
     <g transform="translate(314.7575 65.836562)scale(0.1 -0.1)">
      <use xlink:href="#DejaVuSans-49"/>
     </g>
    </g>
    <g id="line2d_31">
     <path d="M 286.7575 77.014687 
L 306.7575 77.014687 
" style="fill:none;stroke:#2ca02c;stroke-linecap:square;stroke-width:1.5;"/>
    </g>
    <g id="line2d_32"/>
    <g id="text_21">
     <!-- 2 -->
     <g transform="translate(314.7575 80.514687)scale(0.1 -0.1)">
      <use xlink:href="#DejaVuSans-50"/>
     </g>
    </g>
    <g id="line2d_33">
     <path d="M 286.7575 91.692813 
L 306.7575 91.692813 
" style="fill:none;stroke:#d62728;stroke-linecap:square;stroke-width:1.5;"/>
    </g>
    <g id="line2d_34"/>
    <g id="text_22">
     <!-- 3 -->
     <g transform="translate(314.7575 95.192813)scale(0.1 -0.1)">
      <use xlink:href="#DejaVuSans-51"/>
     </g>
    </g>
    <g id="line2d_35">
     <path d="M 286.7575 106.370937 
L 306.7575 106.370937 
" style="fill:none;stroke:#9467bd;stroke-linecap:square;stroke-width:1.5;"/>
    </g>
    <g id="line2d_36"/>
    <g id="text_23">
     <!-- 4 -->
     <g transform="translate(314.7575 109.870937)scale(0.1 -0.1)">
      <use xlink:href="#DejaVuSans-52"/>
     </g>
    </g>
   </g>
  </g>
 </g>
 <defs>
  <clipPath id="p9d5664cd6e">
   <rect height="217.44" width="217.44" x="112.68" y="34.56"/>
  </clipPath>
 </defs>
</svg>
